<mxfile host="app.diagrams.net" agent="Mozilla/5.0 (Windows NT 10.0; Win64; x64) AppleWebKit/537.36 (KHTML, like Gecko) Chrome/135.0.0.0 Safari/537.36" version="26.2.14">
  <diagram name="Página-1" id="H8jEH6x_Xlw1daOKfOeM">
    <mxGraphModel dx="1662" dy="838" grid="1" gridSize="10" guides="1" tooltips="1" connect="1" arrows="1" fold="1" page="1" pageScale="1" pageWidth="850" pageHeight="1100" math="0" shadow="0">
      <root>
        <object label="" id="0">
          <mxCell />
        </object>
        <mxCell id="1" parent="0" />
        <mxCell id="bytlwHfJNPBL17TegRJU-14" value="&lt;b&gt;CONEXIÓN ESP 32 WROOM-32 SENSOR CAPACITIVO DE HUMEDAD&lt;/b&gt;" style="text;html=1;align=center;verticalAlign=middle;whiteSpace=wrap;rounded=0;" parent="1" vertex="1">
          <mxGeometry x="202" y="110" width="445" height="30" as="geometry" />
        </mxCell>
        <mxCell id="bytlwHfJNPBL17TegRJU-15" value="&lt;div style=&quot;-webkit-user-drag: none; -webkit-tap-highlight-color: transparent; margin: 0px; padding: 0px; user-select: text; clear: both; cursor: text; overflow: visible; position: relative; direction: ltr; color: rgb(0, 0, 0); font-family: &amp;quot;Segoe UI&amp;quot;, &amp;quot;Segoe UI Web&amp;quot;, Arial, Verdana, sans-serif; text-align: start;&quot; class=&quot;OutlineElement Ltr SCXW107485866 BCX0&quot;&gt;&lt;p style=&quot;-webkit-user-drag: none; -webkit-tap-highlight-color: transparent; margin: 5.26667px 0px 0px; padding: 0px; user-select: text; overflow-wrap: break-word; white-space-collapse: preserve; vertical-align: baseline; font-kerning: none; color: windowtext; text-align: center;&quot; class=&quot;Paragraph SCXW107485866 BCX0&quot;&gt;&lt;span style=&quot;-webkit-user-drag: none; -webkit-tap-highlight-color: transparent; margin: 0px; padding: 0px; user-select: text; font-size: 16pt; font-style: italic; line-height: 25px; font-family: Arial, Arial_EmbeddedFont, Arial_MSFontService, sans-serif; font-weight: bold; background-color: light-dark(#ffffff, var(--ge-dark-color, #121212)); font-variant-ligatures: none !important;&quot; class=&quot;TextRun SCXW107485866 BCX0&quot; lang=&quot;ES-ES&quot; data-contrast=&quot;auto&quot;&gt;Prototipo para el Control de Humedad por Sensores&lt;/span&gt;&lt;/p&gt;&lt;p style=&quot;-webkit-user-drag: none; -webkit-tap-highlight-color: transparent; margin: 5.26667px 0px 0px; padding: 0px; user-select: text; overflow-wrap: break-word; white-space-collapse: preserve; vertical-align: baseline; font-kerning: none; color: windowtext; text-align: center;&quot; class=&quot;Paragraph SCXW107485866 BCX0&quot;&gt;&lt;span style=&quot;-webkit-user-drag: none; -webkit-tap-highlight-color: transparent; margin: 0px; padding: 0px; user-select: text; font-size: 16pt; font-style: italic; line-height: 25px; font-family: Arial, Arial_EmbeddedFont, Arial_MSFontService, sans-serif; font-weight: bold; background-color: light-dark(#ffffff, var(--ge-dark-color, #121212)); font-variant-ligatures: none !important;&quot; class=&quot;TextRun SCXW107485866 BCX0&quot; lang=&quot;ES-ES&quot; data-contrast=&quot;auto&quot;&gt;SISRIEGOSENS &lt;/span&gt;&lt;/p&gt;&lt;/div&gt;" style="text;html=1;align=center;verticalAlign=middle;whiteSpace=wrap;rounded=0;fillColor=default;fillStyle=dashed;" parent="1" vertex="1">
          <mxGeometry x="75" y="10" width="700" height="60" as="geometry" />
        </mxCell>
        <mxCell id="bytlwHfJNPBL17TegRJU-16" value="" style="endArrow=none;html=1;rounded=0;" parent="1" edge="1">
          <mxGeometry width="50" height="50" relative="1" as="geometry">
            <mxPoint x="150" y="80" as="sourcePoint" />
            <mxPoint x="690" y="80" as="targetPoint" />
            <Array as="points">
              <mxPoint x="430" y="80" />
            </Array>
          </mxGeometry>
        </mxCell>
        <mxCell id="bytlwHfJNPBL17TegRJU-21" value="" style="group" parent="1" vertex="1" connectable="0">
          <mxGeometry x="40" y="910" width="250" height="100" as="geometry" />
        </mxCell>
        <mxCell id="bytlwHfJNPBL17TegRJU-17" value="&lt;div&gt;&lt;br&gt;&lt;/div&gt;&lt;div&gt;&lt;b&gt;LEYENDA&lt;/b&gt;&lt;/div&gt;&lt;ul&gt;&lt;li&gt;&lt;span style=&quot;background-color: initial;&quot;&gt;Alimentación 3.3 v (positivo)&lt;/span&gt;&lt;/li&gt;&lt;li&gt;GND&lt;/li&gt;&lt;li&gt;Transmisión de datos&lt;/li&gt;&lt;/ul&gt;" style="text;strokeColor=none;fillColor=none;html=1;whiteSpace=wrap;verticalAlign=middle;overflow=hidden;" parent="bytlwHfJNPBL17TegRJU-21" vertex="1">
          <mxGeometry width="250" height="100" as="geometry" />
        </mxCell>
        <mxCell id="bytlwHfJNPBL17TegRJU-18" value="" style="line;strokeWidth=2;html=1;strokeColor=#FF0000;" parent="bytlwHfJNPBL17TegRJU-21" vertex="1">
          <mxGeometry x="200" y="45" width="30" height="10" as="geometry" />
        </mxCell>
        <mxCell id="bytlwHfJNPBL17TegRJU-19" value="" style="line;strokeWidth=2;html=1;" parent="bytlwHfJNPBL17TegRJU-21" vertex="1">
          <mxGeometry x="200" y="60" width="30" height="10" as="geometry" />
        </mxCell>
        <mxCell id="bytlwHfJNPBL17TegRJU-20" value="" style="line;strokeWidth=2;html=1;strokeColor=#00FF00;" parent="bytlwHfJNPBL17TegRJU-21" vertex="1">
          <mxGeometry x="200" y="75" width="30" height="10" as="geometry" />
        </mxCell>
        <mxCell id="bytlwHfJNPBL17TegRJU-22" value="" style="group" parent="1" vertex="1" connectable="0">
          <mxGeometry x="80.00000000000006" y="160.00499999999994" width="700.385" height="788.2850000000001" as="geometry" />
        </mxCell>
        <mxCell id="bytlwHfJNPBL17TegRJU-4" value="" style="group;rotation=270;" parent="bytlwHfJNPBL17TegRJU-22" vertex="1" connectable="0">
          <mxGeometry x="269.99999999999994" y="-159.71499999999992" width="270.67" height="590.1" as="geometry" />
        </mxCell>
        <mxCell id="bytlwHfJNPBL17TegRJU-1" value="" style="shape=image;verticalLabelPosition=bottom;labelBackgroundColor=none;verticalAlign=top;aspect=fixed;imageAspect=0;image=https://lastminuteengineers.com/wp-content/uploads/iot/ESP32-Pinout.png;clipPath=inset(0% 36.67% 30% 37.33%);direction=south;fontColor=none;noLabel=1;" parent="bytlwHfJNPBL17TegRJU-4" vertex="1">
          <mxGeometry x="-117.72239031589973" y="206.22264027424" width="501.5997500416598" height="266.1549694098603" as="geometry" />
        </mxCell>
        <mxCell id="bytlwHfJNPBL17TegRJU-3" value="" style="endArrow=none;html=1;rounded=0;strokeWidth=4;endFill=0;" parent="bytlwHfJNPBL17TegRJU-4" edge="1">
          <mxGeometry width="50" height="50" relative="1" as="geometry">
            <mxPoint x="-117.71756403534738" y="336.2226402742399" as="sourcePoint" />
            <mxPoint x="-210" y="336" as="targetPoint" />
          </mxGeometry>
        </mxCell>
        <mxCell id="bytlwHfJNPBL17TegRJU-6" value="&lt;b&gt;&lt;font style=&quot;font-size: 19px;&quot;&gt;3.3 V&lt;/font&gt;&lt;/b&gt;" style="text;html=1;align=center;verticalAlign=middle;whiteSpace=wrap;rounded=0;" parent="bytlwHfJNPBL17TegRJU-22" vertex="1">
          <mxGeometry y="160.28500000000008" width="60" height="30" as="geometry" />
        </mxCell>
        <mxCell id="bytlwHfJNPBL17TegRJU-10" value="" style="shape=image;verticalLabelPosition=bottom;labelBackgroundColor=default;verticalAlign=top;aspect=fixed;imageAspect=0;image=data:image/png,iVBORw0KGgoAAAANSUhEUgAAAZgAAABfCAYAAADVodHtAAAAAXNSR0IArs4c6QAAAARnQU1BAACxjwv8YQUAAAAJcEhZcwAADsMAAA7DAcdvqGQAAP+lSURBVHhe3L13vCVFtbD9VIed90mTMxOZwJCjKAIqYiKDiaASBC4SlChZQJICCoiKAfWargkzIFHJcRhghsk5njlxx471/VFVe/fZc2bg3vveN3xrfj1nd3d1dXWFldcqIaWU7AB2cgsAIUTrpSHw333+vw87f///3SDfRfvfTf+9Ux07AvEu6/+vw//s/PjvPGvg3YzB/xT8z/f//x6IQY9163ia8R/+ukAIa8j1Vng38ydZxryn9b2mSOt0ixPXzS3ZUn5nI2Se3xFYAmLVPepcf24cq6G3dlZ5ov7WcrHcebveDbQ2XSQuNOrW7VX9KbfrPylB7IzA/N8CyQlhfg83cYaC+WC5wxkk41g9K4TuDatRXkq5XfnW9/xXu848Z1kWUr+rtW41ojurX4AUyeFuWUDmm3dWx/AgYwkILMtu9J261gLvVLds6T/bao5FApJ1J8fXMitOg3lexpJYSix7eASk+kEQS/UdBmIpsYTYrq8b4yFEo8fVuMTvuFBNXWZuJueqQZBS12r+AsSxxLYsJJIoipFS4jh24x6ApZ9X36HatzOIE3PJtizieGj7d/TdyXPV7uQ8Gnq/eQK2Hp/Wck1oGUu9zhpjvPPPafZfYk4kv8HMj3q9TiaTwfd9hBC4rovv+ziO0yhLYozAzDmrMT+iOFLPOhZ+EGHbdqN9UoLv+2QzKTwvIJV2KZcqRHGM6zhYtk0qlcKxIYxQf0NwHIhikLFGLS3gWIqYWBZ4vsS2BWEY4zgWlqUIhSUgCCJc1yYMYzzPo1jI4gcxlm0hpcJjUkpc1yaWEEcxURQhYzWnWr/bzFPf94eMnZSSMAwBsB0bN50CJFEYNahZHEd0tHcg4xg7pearquP/BwRmR9daF44CiTBI2pQdtpyZRQlWYthy/zMQ74SIWAjVfg1DywqQw8zaRN+0cjbvFszzggQy1sih8RuQcdR4BkC0EITt+Kghi7sJwjTUvGsH4yWj5Bht/75YLzSDkG3bHVJHEsGjvy953Zyr36q+nXVhg6jEEmENRcyxVAxK49s0JBd6LGMsyxpCpJJg6RaZr44i1d+mjlYEaiXKWgnChCZO5ny49TQcGAJinos1QyaEUPUlxyMBhhAm32eeMSCFui4T/WhAiORINPsl+X5zHoYhjuPg+z6ZTIZyuUyhUGj2c6IeWoh0reqTSqUIgiZSrdfqFApZwghsB2r1gHTaxbKgVgsU8o5jQBJFEUEQUCgUKJfLtLe3q3prNbLZLEEYJJiEmCiMGn1h2w6+52NpRqB1THzfx3YsqpUK1VoNANd1iaMIz/NAKEbEtCEIA9B9HQahuub7immSkjCMGgQljlU7qtUaURQShhFxHOP7fuMcJDWvpr4zCAjDiGwmwxFHHMEB+x+gCJfdnO//vyEwZoBaJ+T20CQwpmxruWRd5neznIVMEp1hoLW+VmglHsNxogKBRHPkQ+prIgQDrfdbYQjCHEZMfqehNt8zXN8m78Wa47Y1x23gneo3ElsrmGuG8Bik3Nq/ZoySCKYVmvcFYWzKq3tSDt/G1veQ6N3t7wyFJLFUREa9J5aSSKpBSLY5Oc9a0V/r9wjNQreOgYHW8kmJb7jvTIKUSoJKQrLt6r4gimOkVOPdbId6zk6Mp0xInOaaOW9tpwElwSkwz5h1IFvWg5QKmSbBsqwGga7VathakojjWNXT8n1hFCKEKi8Q1Gs+tWqN9o52tmze0viGarWK7/tUanWCMCDwA4QQWJbFwMAAxWKRwcEBLNuiv6+Per2O53lKgrIsyuUy2WyWak0hcN8P8H0fP/CJo5gwCpUkESuiU61VcWxFJGu1WmNdVSuVRn/U6vVGfwwODpJKpxGWIAhCgjAgCpUEJqUkjELiKMbSRF31XUwUhY3fUsY4jtP4LYTCd7IhYUpy+SwgEXqeZzMZrr76ao495hjV/7qdpnzrMpL/rxCYJKIdrrmtC0+B1By8bCD64ThnJSWIIeXUNfT1Zt2tCP+doLVdrZyyRDYJTCyxWkWOVhXTsN85PAzX1OH6LglJJAhgW6Kh55Ua4cQJJN3antb67ZbviTTCp6Vssp7kI61auR09Y8Dcb/wF1dstRMaUMQxEUxWjFlqj7tYGDAOOo8rGEqLQ1CewbEEsmmoOU4Yh3zH0e5L9agmhkIZuX/L+jiDWEqXhbB3XQSYYAnTdQktWUdgigRpkpDlcxRDEDQ7bMAhxFBPrvpMa8Zu1FSfKS02UwlAhtiFHHOMHiqM2KkLzrriBfBWilAmuO06oeIQQHHDAAWQyGVIpF98PiOOITCZDbJjHIV+YWINSUCpVqNc8AFatWsntt3+DwcFBwiCgVq8DgmqtRuD75PJ5fN8njmOCICCTSWNZkE6nqVarCMuiUi6TTqeJ4phyuUwunyOKIiIt6QkhsG3Vh2EYNqWbKCKdTmPZdqOOMAxJpVJIKUmlUopYafVVHMekMxlNSFXdcWyk4SZRjbR0Z8a1db6b6405kWC2FbEJAUk2kyWVcrGExY033MBHjjySWErcVAoS81kIkZjTuu7/mwlMYxkmPqC1uYbCxwmOrFFG7ABxazDIfbhzRQQMMlT3lWjcRG5JBCq3N9lAowYFrcjGTAr0BMFwZbpMGCo9Kyi9KvrbFIKwaDVBxHGiHQLiSOtKEt+QhFakO9x5HKlFb1lWQ+crhNIfBxo/tT5nQAxjqGzto+G0LFKqRWd0yuaaa6s5IeXwuD85BmahgMSy7CFtFJpTt7QO3Cx4x3GaXFwsNVcHUsYNJKiQp2p0A3FYWmWkO8C2bCzbwg8CzUmLBmIUQmBZyj5j1CNBECpkqp9XSDYiDHxkbJBu1ECgpi2+7xOGQaJtStVh3lXz6gRB0OCwgyBoqFSklI1z3/eJwpAgDImjSP9VBEBx3AkCEkeEUUQcxZpzDol0G0ExcZFuRwMhbkdcDBFT3xUEYYI4aoQZxcgoIgxCNSaxxLK1jSpSxCaby3LxxZdw2qmnEoQhjq36PQwjgjAgm83otqm6LctuSMcyhmqlRhxLtm3bxtVXX8OCBa/h+z7FYpGUm6Jer1Mul9lzzz2ZNm0av/jFLzjxxBPZunUrJ554AtOnT2XLls3cfPPNrFu3jnyh0CBO6XSacrmMbSuk3yDOCbWyYRziKMIPAoqFAn4QkMlklJSSSuF5niagKaIw1KozxTgkIaltsW1FVAwBT+LGKI6xLQtLz9Gk1kC1RUurFgghcRyLTCrdmNPXX3cdHz7iw9iWjdDjoSChTtfn8v8FApNUM7USBPSEFpZo/G29JyWNjmy9b6F01kldcixj1XmWSDKYQ5Cu6ccoGtqWoR2skKvUCMwgF1NGTbYY2yyaBJfYLDP0fclrlmgi52Tbks9EOzAuGmjVABqbfhwppBBFoUJ+kUIUaGRhCeUAkE6nIYHMg0Dpgc01pctt9outx8EgUoMcbVtPeMsaqj7U46rUNKpv4oSuOJ1KN5GWXkhxpJAbSDy/rrhrTTRirbNP/o6iqPHXtDuKIuJYUq3VkDEN1UIQBA1kKKWkXq/j+z6e5+F5HpFGqr4f4Ac+URwRhhFhGOB5HrVaXSHeKCSKYmo19bzvBwldeETU+OsPaXsQBPp59Y1CiCHfZI7GPDTIVF9LpVKNe3EU47iu6md9zXUdNQ763LLsBqIw5dQ7lArKcNiqfc21kER2STBqGHSbXNdutjuOEZaFTKjTHMtucBJCCGxtsEbbo1xHGfOvvOpKPvvZzzbWuGM72I4gjCLCSNkjpJS4joul5xoI6nWP3t5+rrnmGp5//nna29uJwpBqrYZXr5NOpfDqdY4++mjmzZvHl7/8Za655ho2bdrM9BlTuffeuzn33HOQUnLHHXc0mEXTX+l0ujk3whDHdZVkGsfEUUQqlcL3fWVbiSMsy6ZWq+KmUqRcJR0A2LZNqImLEBaOY+N5XmP80ETXEGfLshrKD8tW64rG3I41g6PGsuFQYglcN0WsnR0AgtAjn8+RchyCIMR1Ha6+6mqOP+54Zf8TFkNZaMU4GZD/LxEYQ2lbm2vUGlLGDQ6lKa5rXa5tbYdMDZgJbyQFU04kXBDNepUJfwHFUTUJgSJmQ9tmO+q9iqtUE8iUiWLFBbp6koRh2OQC9URw3VSjbnQbpea2FYJpvksalUCiDeZnHBvOWyEHM7HUeVP9YJ4PNNcYRGpS+4GvEL1GtGhk4fu+JkgRsW6XUgmobzOEwfSN1PrhKFQLv1qpKkIWhkqHrTmuMIyIohDXcQlbOGzDxQVhiJCKo47CSCHzIGz8RUg8r0oUq75S7VGL0PSvWuzqWhhGQ86jKMayHfUNcVM6MH0vtYogSoyb0Hp6Mx624zS47aT0awm1EM1clXqONgiDnl+uY4G2IZo5kATDdZrnzPg1z5sIvRW5G07WgLmm2qPWlAHDmNlWk2OVeu0YZiH5XhJtSYJC7BqkkQSbRDH5jACiMMLWDJdtKeJivllqgp/P5Wlvb+fcc8/ls5/9LEKgJMcoIpvLaGkranLuDa5bsGVLNzfffAsPP/wwHZ2d+L5PtVKha8QIdp01i6VLl1AaGGDvvfdhr7325Oabb+aiiy5i5cqV/PNfT7HHHrvx5a9cxA033MCiRYvIZrKEkZrLju3g2DZhEBBppqiVeYrCEKEJiGVb1Gt1XNelXq/T1tbGwMAgmUwG23aoVivk8wUlGZVKYAls7eTR2s9Cz2MhlI3LeJIBhAk7lmM38ZG5P5RIxbiuQyaVxvcDHMfmwgsu5IzTTwcEwnL0SClQEtn/cQKzo9clKaGCWMqmq+AOCYxRZTT15+ZarAmC0Jy9ccFTICiXSmryOmoyWLZNFIaNSWlapCa/1UCwBskYjtKcG5WAAaNyCCOFMNHI3qgpDPcCaO7Yb9wPwwgpBb4fEGoOLJaSsKHyqANK1WAQa+D7CaMslMsVhThC/b7AbyB3I7WFUdT4ZjQnFIRaahHgB4pDbxDtWBETS1hqfGKFaNSC1+oMKQHVdoM40BNd9V+ToBkw42pZFo7jYFkW9Xp9yPPqfkIKjJUNKwlNBB9hOwIpEyoJzSG3ep8lF776JtV/lm0PUdMmEaBlWZqLdhDCahBOYSki49gOoR5zoSWNRrt1HVGojM5JaErZQ43wxhW1FQzCNN8VR00ONAzDhkQstRSEbrtR2ZBALsPVbyD57Y0+cOwmE6EZvOR9oX8nueQmSH0MBTMv4ziCWCFBW9sRYs2UWbaFbTs4jqPtIRn6+/u5/bbbOfa4Yynk8yDUWJr6DPNg6o4iyZfOv4CnnnqKjo4Osrkc/X19lEplJk+axCGHHMK0aVPZvGkT2WyWiRMn8pWvfIXzz/8Sq1evYdOmDVx88YV87WvXs3TpUlJuiq4RXUgpGT9uHN3d3eRzeYrFIul0itLgIOvWraO7eyv1ek3NGySZdJpqrYqMJaNGjeKYY4/FstQ3t7W14/sBuVyeVCpFNpdlwYLXefDBB5HQkJqllNi2jZ3QmYdhCHqcbbvpqpxkZEVCrSsSXn5KyrPIZDPU6nWK+XwDt51++ul85ctfVqMrtISr3ymE8ntMzqf/AwSmKUrEWrcfhIpbVR2gfNARyqAstJFQ6ccV8k27DuVqjYG+ATZs2MCWLVsIw4h6XemclQjpE0WSWq3WUPMY5GM4VM/zm+eaQ/Y8Ty0KzfUYXbThRAzHGsUKMUup3E3RHFcYGelCGVGNh4cpE2oVi5EAbIN0g6CB5B3bRgiLIFD66SQYBKv6xNaEVd+zLdW+htePEmHNxEl6fckWlWHyPI4UZ2rbTS8fEkhWqciUfaJ5r8VArjlWwzWDkqhlQqIxEp05khMzlkrCEAkCk9RfK/Q1tP3mvlo0EoV7m41sRZK2bRPohWPpxWbuJ78j2b7mYbW0Z3sw8wytHiRhtzHnSro0RvWkTlu/M3GFxrc1x2I4iPU8aiWkreWT45mE5DuSYFuKqVD3YsVFawJnmC/zDiGshhec6T8DqoyS2gzSN9dNWUsIQj/EsmzNgRvGoSkVxxLa2tqo1+vkc3n8wOdTn/oUxx5zLG4qhWU7yFjhgNLgII5tkclkWL5yOY89+iiPPfoYnV1ddHS209vbS7lSIY5ictkccRzjOC577LEHM2bM4MMf/jAbN6zHdR1+/OMfc8EFX6KtUODZZ57mX//6F6tXreKBB35MX28vPb091Gt1MtkMvrZ9WZbguWef4a9/+TO2DYV8ji2bNpHNKDVvGEbkcjnO/bfzqFRr+IGyudluirrv0dPby/gJEznppE9y0kmfpFyu4PuBVsPVieOIdFrZbADcVKqBP41aUGpthdEuCGFUaUPHxrYElsZBQli0txXxajVsy+bTn/k0X/nKV0inMwjbVvNBWxMsYWHcptRY/W8lMGrRN870a4MwwHVcTVWVfzgo7juTy2Pp2DypJRHP81mxYgWvvPIqLzz3PKtXraZULlGv1TUVt6lWq3R2djIwMAh6sisCoiQBc01q/b4Bx3GG6LNbkYzh+pSqwMQxNBGgbTsNpGMWhuHqzXmjvlgZKc3AGw5BWKoPlFHNJo6anK/tONpAp2wRtmOQnJJkMMhFqAWYTmeGLG6zgA1nF0XKsGyQq0E0RlViJmtTKhmK2ITmzE19SRWMTKhcTB2KwBg1jPoew2FKKRv9p55tqkeShC8JSkLV9W9nY5Naehm6eAzxN+NpbC/mm5J91axn6HwQ75LA0GK/oKV+824znq1xLaZs8twwZYYLTUKSgXo3YMon5zmN9+4cLUhAComjCYxhjkxdlhAqwFD3QbJNlg4wFZZSFTevq7UgNNELAyXhJZ13VN8LpATHcQl8ZfdLp9PaE0ut686uEYShIkKqrgCvVqVQyFOtVanWquSyWYrFIqVKCSklPb09FAtteLW6YvDCkFQqjZty2X3+fOrVKgMD/WzduoWZM6bje3VqlQqlUolUyuU7997DVVddRalUVipe16FYKFCrVent6WHcmNFs3byJIKiRz6aJfJ9arUpbWxuZbI629nYy2TzpXJ4whuXLV5ArFJk0ZQobN2+hUq1x66238ZWvXMyKFSsBxWh2dLTTP9BPIZ+jXCnT1taG53m4qbQiEgm1osJ5kcKpTVLQCJpW/avUoY6bwhIWbYVCI6bmU5/6FBdfcrGyJzkOsVTrLtYMrWWi98w8/z9BYJKvDKOwodsVwqJeV14TQggqNY9MJk2t5mFZFsuWLeMXv/gFzz33HL09vfieR2dHJ/0D/dja6Gy8LqRUCDKTydDe3kEmk2kgeIMgUqlUg6AY4oReoFJKUtqIjUbcRrw05ZLcOZobNYZrdV/ZLdDERxlFlb4/0j75hmiFoQpmsiyr4WXkeX7DUB5rbxuz+BSxjJWNIVJG4Wa/qr9J7x8DMoH8W68b5GDsBk19daJcQsXk2E0VSVI1Y97huEoq1U9qVaXUBEsjlB20zxA8kSAwrWVNeQOtiDKKlZtlEpLf2YqoDcERQhngzPiaxZn8vtZ3DQeWsBLqoaHIf7h3t8JwhOLdvjvZLwZan2vO46FlVbkm07JDaAkupYXARGHcdMVNqPhM/2IlpS3lOGLKWEmPppZ+V/NCSedSShzHJYpCHM2oCiHIZLIEQUwYxTi2g2sraTqVcql7Hq7rMHLkCLZ2bwUB6UwGEPT19uHaDplMBtd1GRgcJJtJ09/fj4Vg1KiRtLUV2bhhPcgYV/dhZ2cn3/72Xbz11lsMlktUKxWOOfpotm7dwu/+4z844oMfYNnbb7Nlw3p6t20hl0mBtgv5YUA2nycSgpM/9zneeGsxW7q3ccQRH+Xtpcv4zn33sf+BB/HWW4u44MKLuOPOuzjjjDMZO3YsGzdu5Pvf/z6XXnoJhUKeMAq48YYbeGvRooauSPWVAimVVkYRBLO+FYGRscmOofo5lUojpKBQUCoy13Y44YTjuezyy3HTLsKyFZHSEoySXpTSujHW//MEpnWBN5Gv0BylWlzKqyObzQJQqyvi0j9QJpVK8fhjj3PvvfeyYeMGJaVUqmQzSgQlMbGjOCabyTBx4kQ6Ojqo1+tUa1Vq1RrVarVhswjDkEw20zAQoxECWn8pE6obo3KSmgMwCM8QBwNS2ztMe5L3hfb+MMQliuOGflnGsuHyKRL2JGXkV/0UaYnD0sbOOI5wXeVWG8umB4lB5EJzeVKLyep8aFtb22/6UCEDNRGFRvDJdgmdisRwrUlCm5zMBkGA8s5zHPU+qfXyxo6zMzBEhmEQoYHWOizdZiUhtM6/7RG0QfZJpG9ZQqs1TTsVsmyqH98JyQt1DN/kIdCcI0Pr3NH3tpZrhR3V1wq2NvImiR5D1tLQ/kvOfSG07r3lFeZZS1hKAtEFtvsWAcIWCSLeVIE1znW7Wp8VQmAJSzvCuJTLFTo7OxprJJvNUa3VSaezWJZD6Aeg47gymQwIcFwHz6tTKBaxHeXMcdRRR2NbNsVCkXFjx1Kv11i5ciV/+vMf2dbdzZ577MlHP/IR2tvbeOH553jt1VfYtHEjvu8zdswY7vvufTz2+GO0d3Zw4IEHMG2XXXj80X+wdfNm5s7alTdefZX1q1biVcsEXo2UVnHnCgWqgY8vJV+57DIefvRxli5fycc/cQxjxozjP37zW1atXs2Klav50vnn8+Of/JRzzz2Xu+66i/e///08/czTXH755fT19lAqD3L3t7/NmrVrFSPYYnRHj6Na/5rAJALSFa5o9DSWsMjncshIpcU54YTj+eqVXyWVSWPZTkMNFyMbBEbKpmxkX3fdddeZ6v7Xg2q4guRMbOqxzYeGYYTrpBCWoL9vgGIxT73us2nzJm6/7Ta+f//3KFfKRFGE73uk0ymiUBm84zhCIuns6GDXXXdl3LixhFHI2rVr2Lp1C5u3bKKndxueV8f3PR1SGVOtVqh7NXzPo+7VqHs1avUqvu8RhD4ISRip2APFdSuEY5C473taYlF2FaWHNrYDJUEYJIVOLRFGoVIPCKOjVzYT29K5moTh5gSBr+IUzMSIYyXh2LYaxCgOiaVqWxOak8UgWCnVe8xv8x1SxyGYv2C8pVSshe1YiclmCK56XonZQ/vEnEsZN/O8aeKiJm+SkxXY2kvKELThEKJMqKjMP1Pf0PsJI7q+NqSexuJpvsPUaxCsecaUM2PXWte7hmEea7RRt8e0wVxLHqZs6993gtb2mueshMHflEuWHfp+9JptHrblaCSi5qqlvZTUejZ163e2fLvp0+ShUIL2kNNMUaPTtCOJUdsOeU6fSyQFrYIya0q5JfvYllIvWwiiMCAKA/K5DAJJOpOmXq8RBMqGYds2nZ0jyOfzjBw5EsdxGBwcIJ1Okc1mef75F5gxfTrXXH0N7z/kEJ588immTJ7CrBkzWbhwIVEsCcKQY447loHSIJbjsueee7F0yRLWrF4DcczkCRNZv2YdrmXR17ONkZ2dRIFiKm3HoVAsUii2MXf+7mzc0k2lWqNa87Adl1wuT/fWbcQSZs+ey6bNm/CDkAcf/COPP/EEYRhy8MHvYc3aNYweM4ZRo0fz2OOPq1RJJl+h8YDV4yqSDLC+0ZxfZv6p9YkSVonikJkzZ3DIoe9XIQpCxZc1HW2U/JJkCv8HCUzja5pXEpNWSvD9ANdNKWOWZevcO3WKbQVKpQo/+/m/c9ddd/HmW29i2zZeva70fVGEbVt49RqpVIpCscD06dPIZrNs2rSRvv4+Vq9eRblSwg883XmqTaF2vQ0Cv3Hdto0hUXGulqUibs2EN0g0lsp/XSHgqOEVlfzWWLskGwQcayITa0O+IobGCSBUfv8JvNFE/irOAN0mkVDZSJTqTTEnrf2s9al64A1SUc+biaRK2o7TcI+1dCClWcTDaGyGvMfUmTzUdXOoYFD0iEMC8em2CNE0epu6teZjSJ8YMN9ivkFKpcdH19Xsi6FjkkRMrWCum7YJoQzXSiqSicaYOkw9zevDH6bMUGhtR/K9zb7XUmKLCku0SKGtdbWCud/61xCRnT/f+j1KYmn0qlSMUBzH+oJBYipNkXqm2dbtoKEubRI5NV+S3ze0FstITYBEEgbKhT6bSRPFEZl0Wkn1JrhSSgQSQYxtgVevUi2XqFYr1GpVKtUKvu/T09NLb28vy5Yt5+WXX+axRx9lwWuv8cILz/Paa68hQKnZ02l23XVXent7yWWzzJs7l56eXlauXEVbRwefOPpoXnv9dbpGjGDWrFm8vfhtSv0DOLZDZ3sHfdu2USmVCP2AerVCoZDHdmzK1SpSWPQOlDjiyI+wcvVatmztIYxiCsU2Fi9+m7FjxzE4WGLGzFm8uWgxu+22G6++toBDDjkEKaBSKfOnv/yZ0WNGM3XaNP70pz81PFRN/ybnjgGDb4ZbI0ITeEvbwaSUzJw5g0MPO1Spz7Qjlhp65dFpVGQGhkUj/7vABOq5rgqAqlZqCCEolap85zv3ce+997Jx4wY8r065NIgfeMRRiBDQ19sDSDq7Opk5cyblcpmly5ayectmVq1aRRgGxFIh+iAMtFuwp4mTIJ1JKU+wOCIIfaIoIIzCIUcQ+gRhQKw5dlAZT83hefUhbn+2Dmoyh23b2I66JoTy4jJIXMoYx3W0Z5ciYkqaUAco6clwX42JoAUdS6sXmod5tnlNSSOhPtS3RrHxdIvwPOXuHIa+OgL113x3a3+YNpjDSDvmGNoeXVYYA6Ke3IZQCq3j1/ctWyg9cPIdO8F/Umq9sa4LofsmcSTLDr+4NGJr4axj7T2ouPLmoTjqodd2dqDnhCEUOwKzsG3tTopum5FezdFUg26PLJLlzHckr6GZn1anhp3BsOPZGJvm+1Xb3sFe8y5ASu0A0oibUqlQGvM5IXlLGZMv5InCgEq1ooiN7xHLGD/wiEIf1wGvViIO66QckHHAmNEjyWVcujqLTJo4nrFjRjFr5kxGdI1g9MhRyCjCtW2q1Qqlconu7m56+3oJw5DHHn+cO++8kxUrVrB27Vp+9u//zuYtW0il03R3d1Or14m1mt5NpRg7ZhxvvrmI3r4+HDeF7aYIophKvUa+vZ16EFDzAto7u0DYpFJptm7dhm05ZLN5CoU2PE8F4gph0d83QCaTpVwqM2/ebtx5511cdvkVhGHEgQe9h1tvu433H3oof3jwQWX/FDqpqFDxhMnz7VfD9gQ/cafB4Pq+r1ygh6lhOM3B/6ANJoFUzBWJ4oT0IlBR0TGZjA7ksR1WrV7NLbfcysKFC6nWK1SqFe3CHBOEKkkcQFdXJ7NmzqRWrbFmzRr6+/sbeXdUHIkiREkk1TRi6c5s1Snra6DjEWTTEIqOHjbdpb6hacMwtpFk6o5UynjHKTDvML9NPcl7UttGLMvGtmx8X7lSK48yFWchYyWJNb9P9bWyITX7fbjcX7aOmBeWUO6TGhG2IiVjc0hC8tpwCKp1Kqn+aarFGt+vkZOR3ixLIe6k6ksh6KErwUp4fcU60NT0h5FsmyAaSL61reY8DMMGUk/2vdTI3dqBm2/rd+4ITH0kDPatdZh+F1pyURJwsx9aIfm8qbu17HDvGO7+O0Gy3sbYJUDZLppZBZJlhNCc7PCfoeZtwqtwOEcO4xTY2g5zbff58/n85z+nElzq1DXt7e1UKxUEEhv444N/4J9PPkUcx8zedVcuuujLpNJpsvkCdsollc5Sqwf4fsjo0WO49557+d1vfwNI0tkskydPZnBwkHQqhYwl+XyO3p5eisUC1WqVOI6o1es4rsv+BxyAH3h84qij2HefffjnY0/y97/+lVTK4WMfOZLVy5fT37sNS0bUK2VsIclmMwyUygjLpuYH7H/QwUjb5bWFb/ChIz7M6jVreeLxJzjs8MP5zW9+y/Vfu4GvXnUVWBajRo1iy9YtrF27BtuxmTZ9GvV6jfUb1ilcl8BPsSbYjZGXycDZ5NYXEhqEQqj4QAHpVIrQDzjiiA9x0803MWLkKITlKJyu1ZVGHZecXf+jBEZxPcp2YNu6MSgO0bZtfD/EddT1aq3Gxg0buP7663l7ydtUazWEAC/wiMKITDZDHEXUajXGjR/PtKlTeXvx21QrFU1MlEoh0pHkUra6rSpITmApTZT/9pTXeHmpo1mPKSeH6MibBvAmNL9/RwudFq8ioYlj8ltIPGfe0yRaajIYdY6ZMIrbUw4HtqMyzKKN7koSabZdceTNRWtAcYsKzPVkJHfyGVPWEAnzO0lgkvUoMBLK9shDXRNYwm54YZk2D9f/OwKhpREDhnignzcIfbjxZZjxap0jrdBavhVan2/t9529G31fao9Hcz9JvJvzRBErxWnuGJLPmHcnz81hpHE0kwWasGvGB5qpSmzbaRB7SzRTvyQJrdRr00gkBoasVwnKMK+0ATNmziQKQ9586y3a2tro6uxk111n8ZEjP8z937+fQKfsyedyOI5NuTRANuXQ17ONWqXSWMv5QpF8oQi2gx9GlKs1cvkifX39nHvuv9Hd3c0DP/4RqVSKXC7PuPHjWbdmLcViUfVpEFAsFhFCUCgW2dazDcuy8AOfdDpNW3s7n/zUJykW2ti0fiNz58xh6bIlLHjtVQQxG9auYdOm9cShj1et0NnewWCpRKHQxsxdZ7Nx81be895D2O+Ag6h7Pj9+4CdMmDiRCRMm8NDDD3PdddfxtRtvZN26dQDU6zVyhTxSSJ2gExUgWVUZmoUeyyiOSGk3eMNYtuIrYSmtCHoeODpsIOW6WEhkFHHEER/itttvo71rRCPQsglCHWr5qiv/kwTGUEIzaVUeHGW3qFSq5LIFgkAFQL624DW+cfttvL3kbaROAxFGAWgbSaVcIYoj9thjD4QQbNq4iVq1SqjTk4gEUh4eoSkErf42uS3zt7W8QjxDk8HB8K6yjYU9hOM1BKZJvEw5A8l3m3sG4SURRKP+IQjT9Guz/lYEGmk3yOSiTyJc431ljHLm2eT15HnyWhKS5Yc+q5I8Gmgdj6aapbVPTZ/YQzJKG4LAcHUliLWBZH+09r25JodVCShofWZH5XYE7/Z5U87MRzP+rd+TLGNpaW64Ok0dw91rheS8I0EITL+YupIERmoCIVsIjNTpccy5SKyX5Dc1n09Ks9u3NQoj8vkcl19+ObN3nY3t2Lz5xpts3LSRj330Y3z3vu/wwcMP54orruCA/fens7ODjo4Oxo4ZA1FAV3uetatXks1kyGZzdG/rYZep09iwYROvLXyTEaPHMFAuk8sX+PvfH+aLX/wicRTz05/+BNuycFNpJk6cSM+2bSqtf3s79UTa/HQ2w8hRoyiVynieh+3YbNu2jWnTpxP4AbVKjam7TCWXz9LdvZUlSxYRhD7l0gAWEflMmoG+ATLpFMW2DjKZHOMnTGLM2Am0d3bRva2X9s4uqrUqpVKZCRPGc/Y55/D5L3yBtWvXEAYBuXyOUqWMFOCmXIVPtTQSeD4ZbYawLItYO/pYlqW9XVvXRDMWTlhCp/MPcbX2xLVtDjv0/dz5rbsoFNuw3PTQOoxDAYk/cRID/Cdh5wtI6WUV0jfutSrOJZ1WBqLBgQr5fJ4FC17n0ssupWdbN7V6DcdxqNdrDaO67agYkj12351ypcLSJUuo11VgZSuYhaGOobhLaHfb5AI0f1sXYxxFzTQcCdXZUBj6/a39gRhKYFphuOuGWCYRTJL7S4JJvdFKEAyYWBJVNuEirK/v7Lnk9XdLYJLQeDYhgQz3vYYRGdqVqpxAcUimX/+zBIZE3w0HSSQ83LPbjef/EJj3DPdNSUjOW3OYaySeT5Z7t2Dqs1o8zdD1metDiJqO+EavF1XWzNUI0bK1g6lXCOVGHmv72fBrC3LZHK7rcPttt/Pd732X1atWM3fuHKI45tJLLuXHP/oRhx36fr511118+1vfYtq0aQgh+OH99zNvzizGjmxn4YJXCYOATCZLGEUc8eGP8Myzz/PcCy9x7vnn8+bit/nOfd9l3br1fPYzJxOEAT+8/35SqRSW4zB9+gyWLVlCNpsjp0MoAr1zZjaXw3JsstkcvX29FItFZs2axd777M34MeOZMHaCyk8mI3r7esnm0mzr2UoQ1Hnx+Wd54Ef305bP09vTz+23f4NxY8fT2TWSStVj3YZNjBk/gTCK6ejooFAosHHjRjZt3sy9995LT08Pge/hBT6pTBo/DHBclTonjEKymQwyVuvQ8zyVmbleI+W6jXxnJkjWgGh48oEiRGrMTDZl4pj999+P+753H4X2dhBDc5E1JBhTg5TY11577X/Zi6zZmB1BkxtTv5sG8L7eforFIs8//wK33HormzZuVGKc61Kr1ZSbK+C6KQI/YK+99qRcrrB06ZKGdBHHSl2gEI+ZyOpdUgfyCctqHoY6N5Df8MhKLQStBtghcaGlc1tBas+mJpjFubOj2V/NRZlcnEmQ2sNQSuO5k7zWPG8Ga2rdfkJtpfzWVb+pBJiN6rerP1m2OZmGtktK7U0iLB3GMHTSJZ8b/rr5Y5KW6jEznnTm/jBDYsR7BQlklkDArXNgZ/BuyiRh+/EZOrat0IrMk/NSzfHh32+kdPNtZr60vqP1fDjY0TsUqPFW1TSlZ1Ntck01yyloSMuJi8m+F9oNPJk9OenFKFCeS1EUcdxxx/PqK6/w1qJFLHzjDUaNHMX+++/PW2+8yZzZc1j4+uuccfrpdHR00N/Xz2sLXmPsqFHIOKCne2vDk1PGkl13nc3Spct4e8kSap7PrNlz6O7uZsGCBcyfP5+RI0by5FNPkHJTpDNpbMsin8ur9un216pVkOD5Hpl0hkq1gmVZVGtVBvr7WbduHYcdeii//PkveOhvf+fZZ5/lmWee5rnnnmHdurU8/a+neO3VlykP9lOr1shk0rz55ps89tjj/P1vD/HoY4/z7HMv8Mc//Znf/u73rFm7hkmTJnPKqafw2KOP4gc+QkClWqVQzOPrbRdiKXFdlyiKlPQRqjgkS2eYRm/LrUJCHCyh0z4JgZXwVhVCfWsmnVJbkkidny9WxO7oY44mnUojdFbqJiTWsJ5/VmNA/wtHKwy9rv76fggIarW6jkS3qFXruKkUr7z6Klde+VU2b9qI59WJdKrsIPDJ5rLKqC8lhxxyCBs3bmbBgtcJggjHUVmG1aRX+6aYRWk+MhnkR2KxR6HOvmuQbtT0XEmWResqTT3mWqOe2EgnzZiQJlExSGXHxlo0gjFeRobwmt/J/jXvNGWSzw9XhzmSz0mtuzcgtNrDlB2OgzfQOt4N4jSMjaNZxsS3NBGU0YPv6GhMUGmBVDmUjEeYpSe+2oMn4Z2WOIbOz+2Rp2hRhxqCa661fmcrJMu+Gxjanu0Px3EaY2AcVMx4iMT4tLardXxlgpAmy5q/rd+6oyP5TBNR6DHR42fGsrHOYhU0mzxXyUz147pOMzfMu+JYJa00RAW9FlV5VdbzPIRQRGbSpCkcd+xx/P53vwcEI7pGMnnyFFw3RblcYeEbb1AuV3nyySeplCv09ffj+wHlSlnhhijG9wNq9RrZXJZarUa97vHaawtIpzNks3m2bevB83xcJ0UYRYwePZopu0xm+vRpTJw4ge5tW9m6dQtRFGI7NtOnTsN1HXafP59cNsueu++BbVmsWb2GOI55fcFrrFy5grZigX332Zv99t2XmdOnceJxx3Hiccfxb188mwvO+zfO/eJZnHDccZx4wvHMnz+Pj3/sY0yfPpWD33swc+bNUVJKyiGdTpFKqQzdtVqVYluBuucR+D75XJ5sJkOtViGfz1Gv10i7riIcwsQChYR+gFevkctmsPR6si2Ba9u4jo3rWLiOhWNbxGGIjGJkHOHYgkzaRSCpVqr4Oni1df4kx1cI8b/OTbl1sqoXCpVuYWBQLRjLxqurFO/Ll6/gxhtuoFarUalWdJLJmDAISKVcyuUy+Vyevfbcmw3rNzKg/cldx1Vp3htZV7XXTawmpnm3maSJFmpuSSpCYKlrrYeh1A0HBRkRm5xWCVdYW7vVqud0vUmEx/YLupUAJKHxHYny5lrrge7vVjCL3RwGIUgtdSjvtibCRy/+JIJIHqacautQbrYJzfJD628ttyNIIjCFxMyhnC+ScUXKWGlcolvHbmj/D0Ww5m9zbjavJ5Fysl+H6+MdwXBlW5F+6xGZrQ0S7sPJ5wxxYZi2DwfmudZyre81xzuBGgfdlhb7Zev8bb3XWn+yPQrhD+/WbMZc6gDswYFB/v73hzjppJM44YQTefDBPzJ+/ATiOKZYbANUfsJt23p1TrA0Bx54IAClcgnbdnBTKTLZLKl0msWL32bN6jWMGDmKcePGE0YR3d3bqNZqFNvaiWKJ54fstddefOITn+DEE0/glFNPZo895jNz5gxcnQFAyphx48cxb85civk8hx16KDNmTGf+/PlYloVtqwzbp552CqeedgpnnnE67zlgfzrbihx+yPuYO3Mm0ydPYcqECYwfM5YD99uXg99zEHvvvReHHX4ot9x2K17gUSwW2LJlM17gM3PmTO7/wQ/49t3f5qKLLqKuVV/nnHMOd911B1MmTyabzeL7yuFAxfypvWjiOFZ7u6RSKjI/jlRSSwGO/mtbSmpUdlsL2xJkM2nSKRchVPZvz/OolJXTBNvNp+3n2Paz5H8hmEmWzWbJZDIqK3EUsWDB61x91dWsWr1axWUEiiOIdULEcrmCbVnssfsebOvuZt3atVTKZdqKRRVsqWNnkjBEvBYmf9XOEJCyEZnYEIkiKibKX5WLQcQq6FDEmpC0HLrMdveFDsxsIQyt0IrwDJGJtadd8kiCEIrLH3IMQyR2dgjMPjnb3zOHpd+jXB6Nmo13+c53C6bszp8xHmpCNPf8ebfQSjjihAoqOQbNxTIUqe8Msb9baK3PEBhztL7HEB9zPdkuEm1tvW+gtb7/LCTbmvQqHO7+cO+xWto3tD4d76I9OGNzTV9HZ28uFAr84he/4NRTT+W8887jT3/6E6+88gqf+exn+c1vfkOpVKZYbCMKIx5//HGCIOCgg97DmjVr+dOf/swTTz7Fg3/8E7/69a/505/+zB8e/COvvb6QqdOmU/U8/vXMs/T09eMFIblCkf5SCTuVomvkaNrb2wijkLlz55BOp/j85z/HQQcdSFtbkYkTxzN37hxm7TqTv//9b6xetZIDDzyArq4OdtllMkJIhK3MFCNGdrFi+VI2b9xAWK/hVyqUe3uxY0nGdsmlUpQGBrAti57eHtZtWMfWbVuZNn065WoFIQRdnZ185uTPsuD1BfzgBz/A931GdI3g+uuv57DDDuXee+9h/fp1ai7FkXYBV56lSkK28TyPcmmQTDpFuVTC9zx8HQvneXVqVZVSq1atUq9WqFbL1CplyqUSg/0D1Osq03y5XMZxlENVEIfqiCLCOCKIzKG2APlfYuRvTq4motQlGtR0cLBELpfn7beX8OUvf4Xu7m5sW1Auq/QvMlYutGp3Q4tdpuwCCNasXt3Y7CYMVf4t31eESiVTNAFxSfWHWpRCi4egDNENEdzSubRCwwmrljfEePN/LBtn6sHmNw9FQs02JBcUGCSsYKiNQEHSO03ZGZp1DIdwm31riMyQ20MgWRbdBwZUZK65vn27DBg3ZilVvjQStgNLDE23bt4ndK4ylRK8cXu79gz9PtNnyTKqbw0kN1hq6O637yIFWmozrzRjZH7HOhhOJtLlqznT5MZanR0MCGF8/XV0+076750g+d7hJJZWMPeHg6QayhBQU4d5Rysk38cQNedQSSiZiNKUi6Xcrv8NwZAybsSxkHhPk7Cr/cPNWjXQ7AM1v4zrse/7WLaNY9sqnxjQ0d7BjV+7gfvuu4+xY8bgOg65XJaZM2by1hsL2LB2BcuXLqJn2zaiKGaXqVN53/sPo3+gxOix48kU2yi0dWA7LplcnokTJ/LE40/yve9+l7FjR/Oxj36Y9xx0AC+//BKVcoUPfeiD/PvP/p0Fr73GiK4RXHbZ5dQ9jwcffJCNGzdx8qmnsGXLFhYseJ2TTz6ZW75+MyeeeALvPfi9jB87hh98/3uMHtnJBw59PwtefRkRxyojs+cxa84chOPyr+eeZ+yESQg3xao16/nd7x+kva2Nyy+/nM2bNrNy5Up++tOfUClX+MTRR3HjTTeyZctmNm/ZzCWXXEL/YD/ZfE5tShbFpN2USvtkq9xu48aO5XOnnUbKdUi5qcbcNtqfJEMeRaFyEqirWDwpIZVO8/GjPkF7RyfStmlG1hi8pc4aa+k/46bcLGoapSZMGKrU1GGk4lr8wNfBkQIhLGrVGo7r8tzzz3P33XezatVqlQsoVB+gDIJKDVWtVNhjjz1wbIc333pryAKUesMcIXQOiZZ2bbeAEi6S5u9wC06K5rlCGPqdev0oxGTKJ7tLFdgxN60WCgyPhFqba0BKqd/STI2BWdQNSUg93PAk0wu7FWEkYbv+SRjo5TCBe63lW68n1Tq0JE+UMsZxbaDJkba2SfVr8x0mGjz5HjVmTZWJGUNFMNTjikg0jd5m/JJ1JImLuW+1eNbZCbWPbNgcVIofobccjjRT4joqtiiKIsWc6E2wYr1XkGrPUPzb2p+t5wZM24dTQ7VCa5/u6JowKXAS9jNTbvu+Uh1rWUp9avqoec+sF63KTPSpqTeKI203U+WFtteZcmgvpTAKVaBkol0miaXneRTyBQA8r04q5ZLJZqhWqkRhxHsPfh933nkXUkoyqTRhoPZIGhwYxLGgqy3Dd+75Ft///vewbIvJu+zCD3/0AJlcgTAGy3LIFdqIpYWwHSIpuf0bt/PDH/4QS8Cc2TP54llnMm/OXEaMGMHqNau48qtfxat7rFmzhve852Bu+vrN2JZFtVbjqX/9i3/96xmklHz205/hyq9+lc9/7vPstdeezNl1Fk89+TgDA33MnDGdRW++QWd7G7bOpjxy1GjCKGbhG28wdvwEps6YyWNPPs2TT/2LKAq54oorWLtmLf39/fzgBz/g0EMPJZaSL5zxBe6445tcdtml/PjHP+IPDz5IW1uRWq2GJSAOQ1KuqzGR5PQvnM6FF5yvGGw/0rFtijDIIV6EipmPY5WRXers6LG2P6s8i2qdKEWG/mtSXmq89N8iMEEQ4LrKOOn7PsJSKdyDUOcWs13K5Squ67Jw4Rtc97XrWb9+vUq/oqUJk49LTcCQrs5Opk2dxptvvqlSLyQQs9TIi5bFuaNPELrTkouJYRaXRH2S0K67ihgIhBRGna+eG7LeDUJqFhjqrmveoRDk9veNwXrHoAawCUMJTPMamjNsPW8tm+wzEgiUlj4cjhgmwSDrVjD9qhCO2isH7YY63Bi1EhhTxrQzbmTabv5ufYcYIvEl22DOm5LlcO8ZWnboeBjGI6WzWsdmm+UwREpwbEdlupIxUhPSWCrO3LYsRIMp0fW19EHruQFz/d0QmOEgWa/5xmQftNbfem5+m/nTWp+6ZtaWIdJmXZrxUpkQWmlos7/VYcY1jEIsYeG4ao8gS2837DiK0OTzuUYG5KoOIvzwh47kzDPP4m9//SsjRoxgy+atKCP7arJph5SIWPTmAlasWEm+kCWbzzFn3m509/RTbOsEbGIpqHkhg+UKh37gcDo6O7njm9/Eti2ymRSplMvE8RO4/bbbyOYyPPvsM/z+d7/njYULSaUzBGHIoYceyqxZu/KHB/9IvlAg5aY568yzuPfue/jgBz/AzJkzmDRxPGvXruaNNxay8PUFpFIuE8aNo6+3l7rvMWbMWAI/oFyucOYXz+KHP34ArBSvLnidtrY2rr7qau6///vccOONlEol6vU6V19zNV+/+WbGjx/HmjWrOe+8f6Ovv0+tPSHwajWVwj/wIZZ84mMf4/jjj2f+bvP0ls4ulg4FUENs5ogaGzV3EtH/wlIMncZlQlhgqYSnRlEjtFdaLFX6p/8UgRkOzORFR79XqzXy+RyWZROFMUEQ8sorr3D9DV9j69athGbrYCmp11TQUhRGhKFPIZ9n3rx5LF26hL7ePhzXUdvAGvfaBCJNIpbmpB0KhkPFTOwWSSOJSGUSOcsYYewO2ugIRp21/XtaEZMB2bI43wlaiacQQyUYhqmvFWkkz1sJTCvCeicCszNCwjBtMWA42v8sgRkOWse5+XsogWmUb+xzj667eb+13a1zopkuA0ASo6TzXDarNqzSRlUh1eZ0cSQROqpeLTjVtliPmopmb7bNtD95Phy0jqWB1vMdgXl++/Ee/t2t/dMKw5VV17YfG3M/blGPNp8xf3UWDakITJTYbjqOlYTY1TWSOXPmsGnjJhYtfou5c+cwddpUAF547gV2nbUrRxxxBD/4wQ84YP/9mTplF8aOG8uMGTP47a9+zuY1K3BE1PAcGzdhAnvtsw9//fsjzNp1HjNmzeGtRUt44623efnV1zjqmGMYP2E8d955J+l0CkGMQDJhwgQmT5rEyJEjiMKQtxcvZvXqNQhLEMUxo0aNplQqgxD0DwyQy+a54447uOeee4jCkIkTJ7B8+TImThjH+vXrqFYryDhm4oTxLFu6DMtW8YGWZdPW1k6+kKdcrRFFEEQxXZ2d3HPPPZx77rnkCwUmTJjAG2+8QU9vL51dnYwaNYqenm2sXr2KUaNGUq1VsS2BY1nEekNHAZx4/AkcfthhTJ8+jUK+QDqVIY6TY2nr9E1qnJKZOxogdBJbodZWcj8YM+ACRYuk+C/taNlaXDQCKZPXatUa2WyW1xYs4LJLL6N/oJ8ojqnV69i2xeCg2m0yCiPyuRy9PT3su9++DA4OsHzpMorFgtbhD+Uy44Z9RWBZdkN/HsWKaifBtGnoxG7CjhBwHMfKBG4QhkZoO1qASTtPEkQLgWh9f+u5geRCTUKyHwwkF3zyudZy0LT3JCGpvmp9drg2oOsRQu3/noSh/SkbiTwbnHALgW9ueKSgtc1Cc0PJ+2Y+qHmgxsRwTOixUONl6h/qEGAIkPlrrtHSPikktqM4uHwuT6SzcFtCUK/VSTmuzvVmtp1V80cItTdGEASk9DbgSaSbhB317zv1/zuBed6oLE2fJQlOkmkz72llyMz11jlmfifvmW8bsoZa2m8cGVR7lIRrO3bDlmdbNlGsAo3b2jq49577WL58BXPnzuWnP/kJxx9/HCtXrWTKlCk8/a+neenFFznrrDO58YYb+NrXvsb7Dj6YTCbDuvVref2VF5k1eQIvv/AMQghSaZe+gQHed+hhrFm3gT//5SFO+ORnmDZ9V666+nr+9eyzfO4LX6BrRBc33nQT2UyaCRPGsm7NGmZMn47nefT19iClJPB9ojjCTaWYMGEC+XyRdevWUSgW8YOAarXGz3727yx4fQH9fX1kc1miMMDWxnbf91i/bi1/+P0fCIOAIAw4+eRT2GvPvYmlJIwiRowciRA2ubyyDfX39XPBhReyfv16qtUK+XwBYQlqdRXeUSwWiWVMvV7V23FLLCnxanUmT5qEjCWHH3YYB7/nPRx04IHkc3mEsIgio162NT6NkVJt6a52F27mFgvDSFMPoXajlZIhDKJeRxaKsYyIdh5o2TpBjOhkjuakUgZ4pBK11F7RGZ5+5hm+ftPX2dq9lTCKqFQrBIHatjiK1ADFkdrnfvqMGWQyGZYuXUpbWxtRFDVS5wsdA4FGIJaltuUUAs1tK8Rryhoi2Mqhm0VljlYYspCg4Ymh3q+Q9/CHhdDOCaptrf2mwHiCmfcYhGSO5P3kYjbQ+t7kNVqyOTcMAIbImQ7T3ydBBUqZ68KUMeet11BqoMbz5p/q7Vgqe5SwFIfTTL2e+I7tu3ynoHT46rex0RkQ2q3SWBVNM824mlxLQugN03TQbKMKaQilJjRSeyJa6ruFAImOcYojfE9FbwupEGUmo7a7bnDdSS5eX1NdOZRBMuPVKl2QaHuy7DtBch63zq8kkpcJidb8NnPFzMPks63vbj2XLTa7ZDuSxMvcay1jQMpEokspCYOQlKsyER/6/sP5whfO5KUXX6JSqfDiiy/xhz88yISJE5kyeRdeeP45Dnnf+3j++ef48IePIJ1OUa/X+MEP7mfcmFG05zOsX7sGx7ao12sIy2L+/PmsXr2Gnt4+puwyncFSBTeVZuEbb7Db/PkU29p44okn6Ohsx/NqtLUViaKQTZs2EUYR6UyaWrVKoVCgWlOpqlzXZbBUoqd3G3EcUygU6O/vZ+q0qbgpF8exKRTyuCmXUqlEEKiMxK+/vgBf2/fSmTSVWo3lK1awes0aFi58g+eef54XXniB3/3udzz+2GMsW74U21a5BU1qGiljUm6KKArxvBr5XI5qtUIm5YKUdHZ2knJdfN9jt7nz2GXyFMaPG6/G3bZBM+qNYHQz+S0BmgDJuJmKn4Zjixm3xHyRUm+YrC6Hcfif8SJTiLZJYCCOJZblIKUkCBTVq1XrtLXn+ec/n+Wb3/gGGzaup16vEwSBkkj0/s2WzqYMyhB14IEHsnjxIqrVitJxR5F2Pd5+AqMRmvlQqTla46uv7Daq40wH0EBSOwCZ0EkbTlM0je2mTBOa9RpDu0Em6L5RRZoPKYLX5OaH5i5rQpOTfuehSSKQJOJSdgEFrX1nzq0dcKyt5ZLvSEKyvBkDGshdMQND1JDJ56Xpq2Ydyfr0GxuGYoO0kt+o3HjNtyjE3dxfRu9VkTA4JsFIMeY3NFVkUhNQy1ZbLASeDzrPVhgECJ0lQjFBaldSYVuKWYqNqsdGJrbObu3L5FxpheT4DHfdQLIu8zc5niTqMOeOoxwRDIFJljHzodV5oxUa35Lov9a1pb5ZtckQsNb2q20pmiAspS7PZrNMnz6TKy6/mk9/+uSmytUWfOHzn+eII47g0ksvIZfNcv6XzuNb3/4Wl15yMYe+/xBefvklfvazn/LBQ9/H5NEjWLtyGd3dWxk1ZjS9/f0cevgHWLJsBf/813NMnzWXaTNms3L1Wn7ys39nn/32Y6999uaaq68mk00j44C069DV2cXg4AC1Wo1qpYLrOji2jdRz07ZdgjCks6uTrd3bGDVqND09PTiuS76Qp1IpEUcxXr2GYzsEga/rcEillI0p1ExLX/8AxUIBKVXaf0tLEkKIhvNUJpOhWlWxKJZlEYYBtt7TCiSOa3Pg/vvT39tHIV9QTLkQfPDwDzBp4iSmTZvG2HHjqFSqWLbTUFXLWM8lYRLoKi9YoRl7ozKLZQwJJlZoxktqvA6KOQ+J1YZjYjuOfLgDhSx0DImUKj22bVkEQaiN+jZC2Cx47Q1uuOFGNm/ZRK2m9nixjNFQQKmkAqCkzjW2y5Rd2Lp1C5VKpaHrNu8lsUCTHi0ylloU1JMzgag0f646LbEAlb6weUh1pfmcVFGCjYWgEY0+adSjQNWPNpCZ4EZdRaMVSS4f8y36vGmDUEcUGoSp2mYWljl2Bsn7przQXlfoPkj2qRBC78GiumM4MF3VBPWOxrMJZJZ0xlDvGNq35nryUG1uljKIqNlOxdQoRkESRdoza8i8oOHarp5XbZZI0PNW1dH83fwuNRKWJVS2gGSqDAvllq3dbW3H0ckCIZ/PU6tWyGazxHFMJJsGbRWHoG1D+tuGG4P/ytE6B9R6a94fDpLXrUSmiFjHWQ33XLLe1ncaUBKh0h6gcYMQVnP/I70ZWes3tLZX7WqqiJTtaC9BJPlcgY985GMsXLiQc845h9mzd2WvvfbigvPP54GfPEC5VMYSgoMPPphHH32U/fffn23btuE4Dvvusy+bNm5gZFcna1avZvSYMUjASacpFNsZLFVYumwlnV0jeeLJp+gfGGTFypVMnjKFXabuwhNPPIGMIywLUimHjXpbZNdVORFjnUQ2ny9QbGvD87Tav1RqbBMiLGU6KJVUkLllC0aPHs3g4AC5XJY4ikilHNrb25Eor7sojMhk0o2tOVLpFL7n46YcwjCg2FYk1Ptatbd3UC5XGDVqJHEcE4YB6UyKUaNH8tWvXsFBBx3Iew46iD123535u81n1sxZzJwxg2KhSL1ax7JU4LVtvB+1+tKylCE/ilQmdm3H13hRq6U12oqNmy1SB1QqhtDMCWyx8x0tm3PLoMSm37tC8I6KR3Fc4hiqtTrLlq/g2muupbe3l3q1RqhjJ7y6hx8EgCCVSjc4nkw2w8SJE1i9ejVCSHzPJ5PJNhqbXABCoAQ1/YUmF5KlvRuaZTSSUVi8QWSSS0WjKPXbuCMPudd6ohdFsqC+bhbh0MWYJE6Jq7pMrN1uW6GBKLW42rook0cSYaC/0SDpBBbVfajsBaY7VdnEfWFUgc0jmfnA9JUqP/RAd0nD0L0dMVaQTMtjPAeTnZlUYcYyRuqMvAhFxJUOX5VTHHizHywdUGZA6Fgcy7FwTKCq0FKLaKrDLEulpLEsgaP/KoJjkcmkcFyVwymTSSMQTJ8xnfe992AmTpxEOpPBsiyCIAAkruPgplwsx+yQquamGRMztmbcpFGpJcYzeT7cYb5tuPKtkCyTPEfPw+GeSUIrAROa4AhL270inWtMz2njE6LmRTOXXPLZJARhQMp1kSgPvZSrXL89zyOOYgQWRx11FLValb/85c/M2nUW69epvU7S6TTr12/gsEMP47HHH2PWrFksX76COI6ZNHkyi958i+6tW+ju6WHdxo309PezaWs3a9et5/U33mTtug3YjsvK1Wuo1uqsXrOWiZMmsu+++/K73/6GfF55X3mep8c/o4lASFYnvTz88MO5/PLLlWp/yVLCMGT0mNFccOEFzJ8/n+XLlAHftgSXXXop7z34YKqVCuvXrSOXzfLliy7iC1/4Ap7nsWjRIlzXJdD7P4FW22rGJQgCojCio7ODgf4BpDbCx3FMLp8jCAP6+voYMaKTM844gzvvvJOf//u/888nn+LJJ5/kuWeew3VdZsyYQRzFFPIFYiSuk8JtuB9LHMfB0olI1c67aq1GkdqgMAwDtedVHGE52kkDCTJGSKm1Puqvm0q/s5Hf81T2Y5Oew7YtlSnVEtSqyvPBslQKl1deeY1bbrmVNWvXEvg+9Vqt4UttXI6NfjqKIzzPZ+7cufi+z+pVK3FdV6vGbOq1Gpm0S11vi+z7PqlUWs3nGFJpJSbm8wX6+/vo7OpgcHAAiHFdhyiWxFLgOimqtZrae9uyGsGCtqXdIG21aZIlBG4qRbVSJZ1OI3WOMcfVeyiEijjaWt9u6eSQQRCQb/jqe0RRqLIW+D5YCpHV6/XG7p1Sb3oWR0q9WK/XyWZVIFm1WiGTyZLP55Qvv2PhOg5hqLY0MEghm81SrVYb3FQQBGSz2cbWBSrhXYztOEjAD1SwWhg1A0tBIXLHtgkjZd9Ip5Vul0amBOV+nslklcQaqBgkk0UhCJQEa9k26XSacrnc2HvGEmqzojAIieJIzaEo1on6FJNhtsq2NEedRJjotlWrVXK5HLVajenTp3PooYfS0dFBKpWiUMhTLpf53e9+x7JlyxoIs16vk8vncFyXaq2K66gEgGgCrrzBXAK9U6ix1Ugp8TyVnkPtRyQItBdO4PvUqjXuvPNOTjzhBEqlEpVylbPPOYely5YNDTgFhVi1g4Ehmklk32A0Eob/VomidWmaNprrpt9M2eSz5r4pa95vrhtIvj95HcC2HSVVG0kFww/o9wtje2o6XDRBqVySsD2R0QipxdlC1SOIIzWWtu0o5BuEhIFyKOrq7GTmjJlccMH5XHLJJfi+Ty6n0qSM6BqBlCGDA73Ua2Uq5TJxrHZlnTZ9Op4X0Nk5kiiGYrFTfZRlcdB73sPue+zO+eefh+97ZLIpent6KBaLar1E6hujMCSfz3PLLbcwe9fZrFi1krvuuotFixcxc+ZM/vDgH1i2bBk/+elP+eMfH2TSxIn8/Oc/Z/WqVTzxxOP8+Ec/or3Yxo9+/GMKxSIvvvgS11x7LUIIxo4dy7Zt29Rc9AMc18W2bCZMmEB3dzdCqNihOIoJgoiurk7a2gqAmrsDAwPceedd/Pzf/50PfeADCAnLli5j3dq1TJowEduymTN7Du9///tJZTIN+7EaDdX/sU59FcfKHhYFAZs2bsS2bIIgoFAokMllEcLCcV0V8xjH2ELtl+OmU7jpNMXOjp0TGHNL6DiXVMrVk0tSKpcp5IvU6z4ylrz22gKuufY6FTUbx9SqVWzLRpqgM71/RBAGSGEmu2DevHksX76MarWCpaUB3/dxHItqpUxHexvCUsGauVxB7wsDIEi5KYQFuWyWcmUQIcC2FVKv1TyEcLAdF0cv3EpVIZt0Ok25VFJ6RdtupK9ua2tDCEG9XgckbR3t9Pb10t7errIHBAHtHe1qh7t0BsdxCXyVHtt1XLK5LKVSCcd2yOVzVKoV0tlM4/2Dg4N0dXUp4tNYgEKlVBCC8ePG093d3Ywh0JJAFEWkUorTCHUC0CAIiOOYfD6PbdsMDg5iWRa5XE7FCWgCEQQBwhJa7+sihMBxLCqVSoMYhFFEqBG/qwlqtab0xbbdJHCxjn4vl0pkMpnGfjV+ECDjmK6uLrZtUxswCUCYCaff6/sqiWkYhLr9Sgo2iMcgSaEJjIx1kKMlOPjg93LttdfS1dlJqVxSxDwMGD1mNOvWreP737+fv//9b6CJY7VaRQq1LbcyiKoMEJlMhnq9jhCCdDqlmCUhCINQtS0MKZfKpDLphhMK2pDqBz5zZs9ht3nz+MTHj2Lq1Kmc+2/nsfjtxU3bj3HZBIS2MyXXkWghAsl7yd/Dgbme7Kvh7psyxt7yXwOlc4900Gyj6gSBiRuJYI1b+lACpQo32zS0fZogDUNgVAEANffNHBE6n17KTTFq1Ggc2+ZHP/wRa9aupVar0lZsJ4pCwlAFbmeyLg/85Me8/NKLlMuD2LbN7bffxoiukYBFGCrbcb5QpFyukM1leeqpJ3nggR/S1lagf6CfadOmcdhhh/HjH/2IT3ziE2TSadLpNGPGjMGxbE4++WT+8re/ct9997Fx0wY+9KEPcvoZZ7J16xYe+MlPeOnFF9lrjz0555yzKZfLPPbYozz894cYM2YM55xzLuMnTGDx4re58647KZVKzJ07l6XLlqlcYmHMpCmTueKKK8hlc4RRyF//8lcOP/xwbrjxRubvNp8jjzySWbvOZPPmjUycMJHf/f73zJw5i4f//hB777kXe++1F2+98Sa9PT1k0mkmT5zE7NmzGTd2HG4qjTRzT89bKYw3rMQSEoHEETbLly2lvb2ddDqNZSmGUmjm1LYsXMcl1kHIYRhhuQ6ZfGHnBAbNpZpMr77vq4HLZADR2NtlwYLXufGGG1mzdq2ivJ7XMIbGcdRwb5OgvHKEMjaOHDkCx3FYt24tmUyGvt4+lYhNJzhMOcpLp7u7m+nTpuM4KZCCTEbF2WzatJFKpdJQ73heDcexcFy194xSmauJGUYh6VRacfxhQCaVpq2tjVEjRjJq1CitJrGo1WoA5PJqj4euEV1UKxXtwqf2ppF6y+IoVIhfaE43jmLq9TqpVEpxzqkUdc/D0tsTZ7M5SqUStZra88ZxlMQgdRT54OAgubxKDS5jSaVSbqTFMC6e9XqdOI5xzMZOGoFEOkW31OK8kmyiBrcOypXb8+q4rrJ/AVQqVQqFPJZlEUUhlWqFtjaVRLBeU9lsbVst7CgKyWmXXeU5qLaHzmQySCmpVivkcnlc16FWq+E6LqGW6IzaQ+oo72wmq2x3ttMgXnFCZ4/2KEqn0xx00EFcdNFFTJ48mXvuuYdHHnmEwPdIpVN85CNHctZZX8T3fc4++4ssXrwYtDTppl0sLbWGYUQ2k2nYRyyhXDxTKUX8jCSYTqdxHIcwjNTicRxCXxlR0+k0A/39pFyXa6+5jg9/+EjOO+883njzzUZ8F3qRQjNIN7nEdkYUWolBa9nktZ0RGPO+1jLmd+tzw4NJBdRCYKBhh1VMUlOt2ahXGG89Y2NsQrMv1JqF4d3nkWozs8a3xEqlHMcqJf3YsWPp7+9n5IiRgMqyEAQqr2EYRQwODmI7FoOD/YRRwLhxY1i/fh3pdIq2QpFyuYqUFtlsnsHBEq5eT7YlqHsVOrs6qHse06ZN46qrr+Lzn/s8nzvtNHadtSuFQp58Ls+St99m3rx5PPPss/zhwT8QRSHzdpvLAQceSHt7O/feey9bN2/hvQcfzNy5c5k/fzceeODHvPryK8yatStHHvkR9t1vP37729/yl7/+RYVsFPIMDA7iptIEYcgnP/kpPvqxj/K167/G/PnzCaOQi79yMY888ghPP/Ms5557LmHgc8GFF3Dwe97De9/3PmzL4h//eJRCLsceu+/Bxg0bqJTLCAnzd5vPBw4/nDAIcV2Fu4xqW4ULgzKkSISQpFwHG8Fpp55KEKhkl+PHj6NSrTJi5EgKxSJRGJLL5th15kwOP/xwUqkUK9esZfIuU3dugwGULl4HQ3l1j2wuh+cF2m3T4qUXX+Lyy6+gr7cX3/Mol0tKnaKJkbIRCG1/UZNEah37lClTWLFiOW4qRRSGRGFIJpMGoQy3UaQQzH333cfFl1zKpz/zWb7whS9wwoknctRRR5HL53nhhRcA1cZUWm2mAxD4AdlsHtt2yGay1LRKacKE8ewyZQoTJ06gWCjiex5Lly5h48aNbNiwgS2bN9PX18fKlSupVissXPg6mzZtYtOmjWzcuJE1q9ewcuVKNm7YwIYN69i6dStLly5h/fr1dHd3s2HDerZs2UJPTw9r162lf6CfNatX4/k+q1evolwu4Xt1KpUKvb19VCoV7boYUKlU8H2fLVu2kEqpfXHqdVW2Wq0qPawmNEaSSaVSlMtlPvvZz+L7Ptu2KVfJcrmMjJWaKYpCoigEKSkUCop4uy5hENLe3kalXFHINwrp7OjQSfB8CrkCMo715kUxuaxSVVmaAOTzeZAxMlLI2bIsUqkUPT3bVOrwep10Kq1VUUrPnslkcByHWl0ZGkXSAUQjP3PYto3v+5x22mmMHz+eBx/8Az/84Q+wbQs/CBgYHGDhwtdZ/PZi5u+2G4sWLeKtRW+RyWRIpVTKdcd1KBbbyGazdI3owrEd6p6HrzeNUqoXJfZPnjyZsWPHUqvVdR9HCtFZykMMIJ3OIIRg//32Z+7cuTzyyCNs2ry5IbVAwvbVuDY8GKQsWiS4HUGSUBlIEg1TBzsgaq1/W6G1fqk9g9B4oAGGMIimTVJYmoM0xEfbzXYGDQKjf0jtLm46UwhjZ1DJQA0TFMdqp8vBwQEGS4NEcUR391YGBgYolUpKepUxXuCTyap5Xa1VGTV6NLVaTTMZFo6TIoqUATaXy2Hr+hXToTj5fL7AQQe9h4cfeohRI0czccJE/vyXv3DggQfx+GOPM3v2bPoHBnjl5Vfo7Oqiv3+AOXPnqlRXb7xJ4PuMGzuWKZMnU6/XWbVyFVu3bGXq1GmUq1WkhI0bN7Bs2TKCINQMpsD3fMIoZvyECUyZsgu7zd+dfffbl4H+AUaMHEm97rHffvtTqZQZNWokf/3rX4nimMMOPZRYwuK33iIIAnp6evC0F++IESOIooiOjg6y2VxDhd7w/JJqLI2rcRiFWjpxWLd2HRMmjGfy5MmMGzeO8ePHM3LkSNra2sgXCoRhwOZNm+jt7cXzPSQwYuSonWdTNqqaOFZSieO6+H5IHCn7xltvLeLmm2+ht6eXUqlMEGj7hm0pHXfgJ7gfvZe4JQjCsIE8wigijmLKpRLZXIYwCvVulpJ8ocBXr7ySufPms3nLVhYvfpvXFrzOiy+9RP/AACeceBLf+OYdyk3UsoliqZBHEJBKp6mUVTbQwPcY0dXF7rvvRldnJ2vXrGHBa6+y8PUFrFixXIl1Ucjg4ACeV8f3PWq1Kr19PWSzafL5LNVaFZAEoY9tKylJcboB6XSKdCZFGAZks2na2lTQU6GQp1Iu0dnViZQR+Vy2IUH065QOBsEZO021WmXMmDENScfYRAxiNmAQcKlUYuLEiZx33nlcfvnlDSmsWCji+z7FQqFhQJVS0tfbh4xiJVHEMYEXYOld7xzbpq+3V+0k6LhEOu9btVoFoFqpks+plN+O41Apl6nX6mQzGWzLYtSIEWQzGebMnsO4seOYMW16QwJzHZdCsUCpVGrYoyzt5dZKXNAOAyqYS9nC2jra2bxlCxLw/ICe3h4c16FWr/H8C8/z6c9+mn8+/U8lcdaqRHHE5MlTuO++7/GTB37Cr3/1a+7+9j389re/46abvs6IkaPIaCkqlUpzw4038etf/wf33H0vt956G1LSsHEJnYesWlH9gJGQXKVuRSPnVgJhvscchqCaw07smCo0sbNa4lKslv1+zDVzGIhbAieTxNtK7DeTvNYK5huGI1LmdxxH2wXYNhw3tC0mjtTRSuSS7VZjrxwtzPOtYOw/UqfgEZbAcW1c1wZicvksURwyMNiH59WwbIHtCBzXAhFTrVXwfU97S8rG7yhWGpXBcgkv8HBTKcI4UnY328axHTzPJ44kYNHR0YVtpygW2/D9kCCIAYuxY8fx4IN/4q23FhFGyqbsui7Lli5jcLDUCJvo7e3jjTfe1NH6Dp4XsGLFKtauWUdXVxe5XIF63VNuybZDva5wrbBsXDdDodDO/T/4EVu7exg1ZiwIm7/87e/MmzePKIppb+9g0qQp7D5/d0BQLBbp6Oxg3bp15PI5Ro4cydSp0yiVyixdspRXXn4FR8fQGBB6XgkJaCccgxdK5TJHHnkkJ530SU466SSOPvpoPv2pT3PKKadwzLHHcNqpp3LRRRdx2WWX8rGPfpR99tmX3XffnWwuuzMJRrESUip3xiiSWqcekc2meebpZ7ntttvZuHETcRwrVZBWPViWwKsrRBpGysiLUFG7hnOcOHEifuBTq1YJQsU1IGOCwCeVUgFTH//4x/jkpz7FunUb+OpXr+L737+fB37yUx555B8899xzzJw1i0MOOYRVK1fy9pK3yedzyl5Tq+E6DtlMBgHMnDmDzs4O1q1dw8oVKzR3olyma/UaCAj1VqPpdIrBwUGEpYx56Uy6wbW7rotXrzNiRBdhGOLVa1pdZJFNpwElWdRqVdIppbPPZpVLYq2mImzHjR2L7wdMnDiRtrZ2bNti4sSJZNJpent7KBaKBIHPnnvu2eCoq9UqnnbdNvYQpRIIOOqoo9h3XzWgjuOQy+WQUrJq1SqVjVaPw3777ccZp5/BUZ/4BJMmTuKNhQvJZNIEvk8uq7KvOo7DMccczTlnn82C116jp6eXzvYOwjDA9zza2tqYOmUXbrv1Vjas30D31q0UC0WqlSrvP+T93HrrrXzxrLP4/Oc+z6c//Wk+c/LJ7LPPPixbvoyNGzYSx4qgVqoV0unMEKSyPfes7EwIwV577cV73vMeJk2axONPPEFffx/ZbJbeBJFJpVPUqoogZ3NZJk2cxE03fZ1999mPvr5+BgYHdXaJPLvNm8esmbN49tnnCMOIUqnMtKnTCMOIXC7PtKnTePyJJ+jt6wOtfnQdhyiOcR2HSrnC7rvvwQEHHMijjz7G2rVr1WqRao0kEX0SksQleX9niN2A1MGRSeLRqlIj8Q5TprVudlA/Lddb225AIaUmIZVSISODKzCZLxptaXo4ttSkrgmNanYAJgDQSmzQJixBJpOhUqli2zadnR24KZeOznaKbQVSKYdcIcvUqbvQ0VFk5IguBgf6sSzwfZ9dpuzC9GnT2W+//Rg/fjzTp09n3tx57LHnnsyeM5up06bS19dPtVqlWqtxwvEnsO+++3Ho+w/l2Wef44ADDmDe3Hm89NJL7LPPPoyfMIGnnnqKarXGxAkTmTxlCrvvPp/XX1/AylWrSKVSHHjAgRTb2tmyZSsbNmwkCEIKbUXmzduNBa+/zoaNG7Bsm1QqTa1ew7IdbDdFf/8gHzriQxx22GFMnjKFB//wR4rFIr/4xS+Iooj2tjYsy+ZDH/oQe++9N9/73vcZM2YMmzZtYsSIEZx04kl87GMfI+W6DAwMEMcxhxzyftrb27ebj40+B5ASYQsymTQyiunv69eOXtDZ2YHSMtlk0lmyuRz1eh0ZSzLZLOlMhrrnk83nd2aDkTplgABsHeviEIYxL7zwIl//+s10d3fjeXUllfgeURxi20J7d+WQ2iYhYy196cyhmUyWPfbck7eXLKZcKiEEuK7iiG3LIpfP0dPTw1lnnclFF36Z88+/kCef/CfFQjsAfqA81KbsMpWPHHkkTz31JN3dW9m4aQPtHW1EYcDIEV1MGDuOieMn0NHZyeZNm+ju7mbp0qVEUdRoy957782EiRNpa2sjl82qjKFxTLFQoF6v8x//8R9s2riRYrHYsLs4rvJqueOOb9LW1tawcziOyz8eeYQHfvITLMsiCFW2gkqlwoQJE7jggguYO3culs69lMsXsCxbeT1lsxx/wgmsWb2aL559NhdccAF1z6dUKnH33Xfzt7/9TS0ujTTCMGTGjBncc889jBkzhrVr1zb27n7qqae48IILyaaU1NPTs41vfvObHHvMMWzeshnLglNOOYUtW7fqxI0q4nfd+rX827+dy8VfuZhf/8d/cMcdd1IpV3C1M4DnefzsZz9jzuzZfO2GG/j735RR/cgjj+TCCy+kUCjw0ksv0b1tG57nMWHyJPbbfz+6u7u56MKL2Lp1K5s2b6Krs0vtiGdcvxPILXmeSqUIw5AxY8Zw2mmnceKJJ7JmzRpeffVVQNLWpqKjf/WrX/HSSy9Rr9fp6lLE/7v3fZe5c3fjkUf+wZ133km5XKFYLOD7ATfffDN77rknr776KhdffIkaj0jZFu+8807GjhnLaZ87jd7+XgCiIGh4mmXSaQYHB/n0pz7NVVdexaWXXcZjjz9OFCu7oWWpfY0AHYXV/LZ3khqSi10mjPTm+TjhaWfKJKEVUZjvMnUnpaBkvQZMOfXXSqi4ZIMKxDqjQiMoNVaeYEkqoYiQQMaikQ6otW3JOpM2GMN0SO3G32yL2gHT1vm/CoUC6UyGlStXctlll3LQew6kVq1gae2J7/v4ng9SqYBuueUWlq9cScpN84HDP8hRRx2tPeAg5WZYu24948dNoFavs+eee3D9ddfy2muv4Xl1xo4Zy957740lBE8++SS7TJlCOp0mCgMGBgYYN34cry98nVw2R7GtSN9AHyNGjmBbt1pfuWyWet2jq7OLSqWqpIPGdhaCTC7L4OAg3d3dTNllF3r7eql7Pul0FstSkufUqbvQ3d2tbINhQLVSASSu4zJy5Egq5QplbbO9/fZbefpf/6Srs4sDDtifrVu3sn7tOlYsW84nPv5x9tpzL+I4JuWmsVrmXBMkfhzguDbVcoWOtnZqNZX+q16vA+Cm0oRadYmUuLYNUsWMRUiE4yLkcLKpBqn3zYgiiWO7RDEsWrSYG752A2vWrMWyBIODA4qrtgVRFGBZ6q/U2xMLoTwM/MDHsiykdgeeP38+zz77DK7rkMlk6O/vUxKHEISBTxTHHHfssVx11VV86UsX8PxzL5LJKO5cvcemolUWKtBOBTal0ylSaZdf/vznzJwxA7R6z3Vd+vr6ueXWW3j44YexLIvBcpmf/exnzN99Pu3tinjVtTdZrVqjVqvyxsKF3HjDjaxYsUKpvCpKmth333346U9/0jAM17Ubtm3Z/PiBH/OjH/2YWCpVz5gxY7jqqqs4YP/9efOtt2hra0NKief5RGFEoCfq5ZddTqVaYd68eXzmM59h7NhxzJ23G9/97n3c/4MfkHKbNiZPu48feOCBTJo0mbPOOgvP8/jLX/7CI488wtuLF2MLG6GRQVtbG3Nmz+Gqq68il81y2udOY9WqVeSyObURXKj6buTIEXzve98jk8lw/pcuYPmy5QShcuc+/AOH87Wv3cDSpUs4++xzkFIyZuwY7rnnHkZ0jeBb3/oWP//Fz1W0chiQzee49rrr+eAHP8DTTz/Dl7/8ZbK5LOVGoO1QgtKKPE0gbRSp3fi+9KXzOfroo3EcW3n2BWqir161ivvuu4+HH34Y21FR1k888SRrVq/lmGOOVeNZq5FKuchY0t7Rzne/+z3S6Qyf/OSnGqqAMIq45+57mDp1Fz756U9RrqjAuZSrnlOBxSoh4AknnMhVV17FV7/6VR565GE9LxUSVF442xMY823Jb2xd3IbICM2xh3o3QnPPcZwG0TASjbknE8RK9Z/JLaV+GxUcmsAYL0ADpj3qb1MS03f1OzWBScTTDBVBdOBlLAGlBiPRviQYmtP6DabNQsfaWLZpi7YpxsqWl8lm6O3r5YorLmf58mU89vijRFFATadwsYQFsaRWqTJq1CjSmRzd3dtIuWkGBgY14yQQ0iJfKFKpKPvM12/5Ok8++SQvPP8cMpbUalWyuSz1ao2MDkFwHJsxo0YRhgGxlGSzWcqVslJ5R8pUYPrF0jFZQRAqR5xY7bVi2w5SKEagXFEbi1m2Ralc0YG9asOwWGdXiKOYzq5OgiDE9+r4nofruHR2dlGplImimDD0ufueu3n22Wf48x//TGdHB1JKojDkc6eeyvve+z7a29ro6uwi1GEHrXPQtF3aUK/XyKYzahyspkercv5Qau4ojkk5yqVdaPV2JpelHgSIOA6k0OK20Bv8WJYS1Xw/wLGV/3kQhryx8A2uueYaensVZ1fTdgmp9eRKhDLiskRpxkwsgcqM7Hl1pk6bRr1eY+PGjY2JpD4wVinQdczFqaecwgUXXMCll1zKU089RS6Xp1qtNrySDIdmPJWiMERYilP74he/SCaj9o6o1euMHDmSE088kUq5zF13fYu//u2vDA6W+OWvfsWus3blF7/4BS++9BJhEJDL50in03zsox/hkEPex6aNG/niWWexedNmpSrTKrzRo0fT1taGpV2gO7s6ue322xk/bjy/+vWvuf0b3yCKYu777nfZff58Fi1axKWXXUZvj0qaBypvm+2omJx0OkU6ncb3fWr1Okd+5CPce++93HLLLfz0Jz9RaSV8j5SrDNgGCYwcMYpf//rXeJ7HKaecwrZtPdiWhZQRjmNR0xJSuVzhT3/6M1MmT+H4E05gw4YNxHGMY9vU6nWy2TRBEHDYYYdx++238/ILL/Fv/3YelhDkCwVuu/029tlnH66+5hoeeughHMdh5qxZfO+73+XFl17ih/f/QC2Wstpczk45zJgxg/PO+xKbN2/ivPPOY2BgAE/blVQyvaETO4lsoigkl1eed50dHZpbHE8umyVfyOP7Pvvvtx9f/spXKJVKXHLxxSxYsIBUKsXjjz/OGwsW8rnTPkdHZweBdpeOIxWYdve376ZQbOOUU06lVq0qhBuFfPtb32a33XbjU5/+FN093YCyxZj4J+Oi/cEPfpDbb/8GV1xxBX/84x8RQpDNZfE8j3JZ77I4jAqLFgIz3PV3CzLhGmyIkDk3RvHWsgaJt76blnaZ+2Z9tra52dZmPck6pZSJ3VKHB5VLq/kew+vGOkW8rVU0U3eZyi233EIQBmzetJkf/vCHfPazn2Hrtq3ccsstnH32F9myeTMvvfwSxx57NB0dHWzbto3ubdsglmzbvJVapUqlWmXjxk2MGTeOUqnMsccdz+K33mb61GlIKVm8+G0ee/xxrrnheha8voDHH3tcu6er+aqIp8QPAjLpFOPGjEFIKBaLSCnp7e1FWIJQzyUpVfCtMaLbjk21UqGrq4tAx5DV63UkECNpb+/grUWLyeSySOMUk1Y2TCkl1WpNZ24uKcbfV+/IFwp4nmK20ukUt916K3PmzCEIlLemV6srvJbNqNg/y6azowMhBLbtKE9J7QVpm/mjd8VEj2DDIzI5nHq/L8z8MsyRipBHCoFlAggVkYnIZHI4jlLb2JaD74cIYbF0yVK++c1vUiqVEEI0iMvQIwnK/S2W4DiuDuZTE9N1HGrVKo5j47qOysvjaA7LtpQ6Aujq7CSbyeDo4E4Zh0BMHIcUCjmCwCOVcnBsi1qlrLirOGaXyZN56O8P8Y1v3MFd3/42P/jBD7ntttv5xje/SSzhnHPPZfyEiYr6RiridPHbb/Piiy/xyquv8dhjT/D0089ww4038vIryjtkv/33J51Oky8UCHTQZ73usWr1GlatXsPAYImly5bz9Ztvobe/n9lz5uA4KcqVCpMnT6Faq3HDjTeqGJpslkxOeXFkc1nS6TSpdBr0Bky2Y1MsFvG04d2xbTzfww984ihCWGYvGeWSXK/XsLQnljFM246Nm1bcVDqdUsixUlHBlgKKbW04ruZEhCCdyRCEyi336WeeYePGTcyZO4+DDjqIWEqmTZ/Ovvvux/IVK3nhhRdVDFAYYjsOW7dtY5999uGee+/lrm99i//4zW+5977v8J3v3MeVV15FHMfUanWCQG3nUCgUGznEdgYmT5Nj2wwMDOC4Lr09PWzYsIFFixazedNmfvSjB7jn7nvIZXOceOJJVGt1OjtH4NV9stmc6he9j4tX95TEmUqroFHU/kUCyOdzeLW66kshyGbUYsznc1QrFfoH+qmUy7S3t1Mql4i1K306k8KyVSqQer2GY9vkclmiSHlN/mfBIPd3c7RC8tpwRKH1dyvsqG6ppYrWQ5Vlh8fOiAsJNV2sMzwInZRU5bJTeeWqlaqKT7ME11x9DQMDAxx11FHMnTuXKZOnkNEBvMViGyNGjOD0L5zB6aefyYUXfpnZs+cqVVgsKQ2WKOaL7DprV2q1Gn7gM23aVKZO24XPf/40jvrExygWshQKGSqVAdJpFT9Xr9dxXRc/8HSGbYuYiKOPOUqrxZWXrGUJHMemo6MD27FVm6Wks6NDu77btBULtLUVsW2LQiFPtVqho6MdYamtHWbNmkU6rRJXRnoTxyDwCAIP31dqeLURmE29WlVbCuh9XwQoj844ol6v8fzzz3PxVy7m9C+czmWXXsall1zKs88+SyqVYqC/n3K53DocDVCjL5qH2lGs8VtFxyjiYjWOhATdSPAgsUwAmdIx29RqVTxPbXOsbAsOL7/8Mtdddx0rV64kSOQKMxUalUArmAlu21ZD1BdCkEopQ6+5n1wM5m8UR8rTIVIdndJeD5l0ChmFlAYHSDk2cRgQBT5tbUVc26KtrajqL5fYe689ee/BB/PhDx/Bhz70QQb6+ujv76W9rUjaVXraMPRJpVQQnm2rtpmJMzg4wJKlSxgxciTtnZ0EUURvXx+FYpFMJsMZZ5zBVVdfxU1f/zpfu+Fr3PT1r/PZk0/GcV1lEE67tLUV8QOPMApZt24tlm1RKZcIfK8RIR1Gaic+27LwfY96vaaOWp10OoNlqc2B2ts7EMKiUqlhWQ5hoDgY31dj4rquImBa+gy07SCKY9LpDG1t7Qihtoq2hEWpVCaXKyBjJeratkOt7mE7Lr/5zW/JFwqceNInyRcKfPBDH8IPA/75r3+ydVu3UltolWImk2Hjpk0sWfI2y5cv59F//IMFr73GM08/w69//WuefPJJfv/737Nt2zba2tro6elpOCPIFg45CbW6R8pNM3bceI466mi6OruIomZiVd9Xacr/8Y/H6B8YpNjWjm3Z9Pf36+wCGaq1ujY6a+9Fx8FxU2SyGYzjieXYlCsqKLbueeSLBbAE7R3t9Pb2NrICOK5DzauRL+TZ2t0NOr6ppj0ALcsi1rvBqEDXnYP57h19f+v91iNJEAxRaP1t6pGaSCRhR8+3/o0i5SZs6jCE4R1BaPvMDg6j7WhcM4yqUGo2x3WxHIcginFTaVKZDBMnT6Z/YJBf/OrXyoZh2dQ9v8EsFopt5HJ5EBa9ff2kMzlS6SzTZ8xi0uTJjB03ltlzZlOqlKn5NZaseJu3lrxJpV5i7333xHIFHV3tpLMqTVChkCefz6t0WFFMJqNsEHvvvTfZbFYfGSUd62wOlXJZx5qp2HiBcv0NPB8BOsuJkjiMJ2EYRRSLRQqFQkOSC4OgoeqztLRjWzZRGLH33nszbdo0PM+jo7ODQ973Po4++mhGjhxFtVqlXCqx5O3FbFi/jkq1TFtbkZdefJGbbryRlatWksvnFCFpmXbm2nZEZtjjncGS0mwsox5KpzOk0xnqNY9cLsNbby3i6muuprevlziOKFfKeL7SVyehdbLGidQRZjIqzlqpRaJQ6RTjKCYKVaK3pGuj1OKl0ClHbNsm8H2k5tLR71G6ZYfBgX4AJk2cQDaT5pe//AX3f+97/Oj++7n5ppu44xvf4IavfY1sOkN7WxttxQIyDlXyOK9OR3ub5mYl2Yxyca5WqgwOqqhxS3tudXR0kE5nuOWWWzn2+OM5/PAP8L5DDmHvffZlz732YtfZsxtBSLEO+CqVBkmnU+QLeYSAjo4OqjXlq+9qn/tqrapUfdkM7e3tSi1j2/h+SDqdIYpienv6AEGx2KYmm2M3bDGZTIbe3l7K5QrtHcqe5GgVVBhE+L7ap6KqMyy4qRSdnR0qIFYoRAmQTim327/89S+sXLWSfffbl499/OMc+ZEjGRgc5I9/+hOO6xBEKl1QGCr1ZL1e55prr+X007/AlVddyRdOP50vf/kibrnlFm688UZ++9vfkslkKJVKdHV1USqVeCdIp9JIKdlrz7249trr+N73vs+cOXOwLIvAVzFBxWIbV199NR3tHWzcsFFJVkHIihUrGTd+PBdfcgnpTJZ0Jks2nydfKHL+BRcwddp06r5PEIZUazUs26atvYNKtUrd8xgxcmQj3U6pUlFzzVGZDdrbO5g9ezb1ep0JEyex5557gmVR9/2G2i8Iwne9CFvBrKFWgtJ6tIJ5zvxOXm9di8NBQ6LYgWqvFcz7hjveTR2mTcm2mWfjWGLZNkLY+H7AiJGjuPXW2xkxchS/+/3v8TyfbDZPf/8gcQz5QpG2tnbCSNkGypUqq9asI5svIrEIY0lH10h6+weZNGUXMrkcoYzxw4AXX3qR7p5tWI5Nra7SW0kZNzQD1WpFSSq2IJfLNdZ1FKpA5iiKdeyMUlnnCwUymQwd7e3UqzW1uVc6rWwXYURRZzh2HZeB/gFt15P09vWRzxd0/JaL7ThMmbIL3777boIw5IgjjuDkU07h4ksu4cabbuLKq67iy1/+MhdffAkXXHgRJ510EmeffTYdHZ0NPHvMscdw8smf5YCD9mfK5EmMHz+WfCGnnDQahCQxJ8y1YQhP68xR46Vc080cU4JKc45aJl2H5/kgdZ6wSHnwvPrqAm686Ub6ensaHLclwNHeHLHe6MtMTFNpUqJRQVLNeA8jGUEi3XfLYkAbxjwd5a6e9bFthVDrOlre1iJsrVZnzJix2LbNbrvN55JLLiXtpli+bClPPPY4r738Cg//7e88+/TTWBL6tvXg2jZCQuh5OMKio1ikXq0goxDHEtiWIJvNKU8LyyGTyTEwMEguX+CKK69k7m67sXz5Cr599z1ce931XHPtddz+jW/yzTvupKrVQWZSxXGsfrsparUaQRhQyBewtfddHEfkshnS6TRBEFGp1gjDmHJZpeQuFAo4jottK+67XvNAi6hKjK8RBAGjR4/mvQcfzPr164njWHHl6Qz5vPKeUotXKhdhKenu7tYu5BJHu5DbtkXge/T29nL3PXdj2RbnnvdvpNJpvv+D+xtBhel0GoTF5i1bWLpsGTNmzuTsc85h2vTptLe3M2f2HMaOG0culxviWu04DgMDA42Egclxb0Wahmt79tln+cMf/sC0adM455xz+NznPsfZZ5/NySefzJVXXslee+3FypUruffeextz5M4772TL1q18+jOf5t7v3Msll17K5Zdfzje++Q0O/8DhbNi0kQsvuoiBwRKpdIZjjzuem75+M+8/9DA8P+Cyy6/grm99m5kzd8V1UjiuihT/0IeO4Be/+BWnnnoavh9w+ulncPc99/K+976PlKvGL4rV/uXDEYLW81ZIPpNURw13iJYATWNzae3LZBnzuxVaryXL2baK+UrWORwBSd5P2n92BOZbTduH/LbUdh5+GFIotuH7ARd9+SvU6h6HHvYBjjv+BHbffS/Gjh0P0sK2U3R2jsSxU5TLNd5+exnz99ib3oEyo8ZOYPHSFTz93PN4Ycyf/vqQ2iZ5sEx7eyejR4/lxedf4uGH/4FtuThOupFHLQx9gjBQalCh1KCpVIpavU6xWCDQKZuUBBVRKpWwLYv+vn68Wp3A9+nespVsJsu2rd2kHEdttiglIJSd20mpPIsxuG5KB5eqXGT9A4O06cBIy3bZdfYcDj/8A1x/ww1c8dUreXvJUsaOG88DP/kJp37u8zz73PPEEkaNHsO+++3Dcccew5ixY3Bsm3Hjx3HCCcdz5JEfRugM42gbuokVMrZ0dFS/RG8dnjgYhsnZ0by2LMvG85p2GM9TnNeCBa9z3XXXsX79OhAoih2FWLZFOp1G6HTdaiLuWGSWeq8I11W7+6XTOq7EVtsR08LBGBBCbSMKMHr0aGId+NbW3k4Ux3iez+577MHf//53Lr/8Ch1wOIkvnn02Y8aO5Y9/+hOnnHwqZ555Jp/7/Oe57PLLueD8C1i5apWKxagoHabve7iugxDge56KWalWEcCECRM46KCDKGtpJpVOM2bMWA4++L2EYcTv/vAHHvzjH/nHY4/x1D+f4tHHHuPVV18lCAKd20fguC7r1q4n8APuuONOJoyfAChvEVsvWiWBZKlWaqTTGVJumo7OTjo7RzAwMEix0Mb0aTPI5wqaCbDJ5fLas0Mh1AceeADbtrnp61/niCOOIJ1O630sSgjLYsyYsZx00ieZOHEim7ds4aijjuaUU06ms7Ndpe+RcWPP80wmg+PYvPTyyyxYuJC651GulHnsscep+0piqtaqaq+UMOCaa69lzdq1HHvccfzmN7/l0cce46GHHuLJJ5/k+uuvb8Tn+L4KREunVcqeoeO9/QRVnGGKIAi5/fbb+cMf/sC+++7HhRdeyJlnnMkFF1zIAQccwMKFb3DuOefS3d1NEKgNoF588SXOv+ACBstlpk2fwYc/ciRHfvSjTJw8mcVLlnDBhReyecsWSpUKQRiCEBTaitQ8j02bN1Ot1ajV6wwODioEo11mn3v+BRYtWsSWrd28+toCnn7mGf75z3+xaNHiIRkLjPHzvwKti/e/A8k+Nr9biUzr9R293yB/c7wzNFDUsEeT+1WH0EkQLJ0lO45V1t8XX3qRj3/iEyx84w2OP+54/vjHP3LGGWdw5JFHUqvW6OnpQWim9PHHHufxxx7nkUf+QalU4he//CUbN29my9ZuNmzczMI33sRxUrS3d/KXP/+NRW8u4u1FS1i3bgPZdI7JkybjWA67z9+DfffZh64RI/B9hYfyhbxKOxSF+J4KjDTZNoQQZLMZMpkMXSO6FK7SKZfa2tro2baNSZMnUa5UcBwH102Rz+UZPXqMTiLZTKlkWWp3yWKxjTBScVq249LT2wsI+voHkDGsX7+Bhx5+hDCMqFRqOI7L4088ybr1G/B9nwMOOIC+/j4WL3qLIPQReguKnp5tCRuhRGr1ZIKkmKQxNNVhQw+JyWbfPJK0oDGXojCWURzjujZeXen0316yhJtuvJElS5dga27C932lzoqVWJjNZLWnhJkcSc4rVARaKq80W6cvr9VqTJkymXq9plRuOv2GldisybEd9b66xwcOP5yrrrwSy7b5xu238/zzz1OuVMjncuwydSpXfvWrTJ02jauvuorHHn+cuXPn8sWzzmLu3LmsWLGSn//8F6xauUpFxpdLFAtFzjnnHGbOnMmxxx3LmjWruf766znqqKN4+OGHee2110in00Q659h7D3k/8+btxtq1a7j8ssvZuGEDjuNw9hfP5oQTT6Tuezz3/PP09Gwjo12sOzo62XvffQiDgM9++tP09fYxefJkLrnkYg488EBWrFjBtm3btCG/QK1apVgs4rguN3ztRhYufIMZM2Zw88230NHe2Yg2dxyb79//PX71y1/qjYccYpRaUanQIo455hguveRS3njzLc477zzqdeVIUalUufrqqznllFPp7lZtBcm2nm7OOvMMtmzdSuD7FIoFajWVkiabzRGEEYcf/gEu/srFPPrYo9xyyy10dHYyMDioJNFaDdd1cVMp8rkcl1x8CfPmziUIAqqVKsISPPvss9x9993kcrmG7c7WOaYMFz48MlMTVuUzi/B9n0KhwNFHH00+lyOTzVAqlalWKvzzX/+kt7ePtE5imslkGkRjzNgxdHV2ASClymDQ09tLrapyzoWRcmIJfJ/Ro0czMDCgEKhtEQY+lq0SrWayGapVlZU7l8tSr6n4L/NN9Xqdjo4OPM9TyCKdJtJuwAaBD/ed/x1IEonhQLRIOOhnzHXzd2eQJDimLgM7+h5Vxhw7htbnzbkhzlIqDl+tSZWNIpVy2bath1wuyzFHH8VHjjyS9vZ2CsUCTzzxuPbGTNNfKtEzMMDadeuoDZTYtnUb69atw7JtMrkc++63L+XSAB887DByqTRd7Z3EMqa9o50JkydTrVWp1T02btrI5VdchmVbSnPj2HT3dHPZJZeyYukyli9dTrFYoKOjk9WrV6tUL3r3VBlFVMoqqazve4wY0UVPTw+pVArLspRDlevS29dLX38/B7/3fSx4fSGr16xppCRyXZdbb72Vt5csYc899uKtt95i77335rFHH6O3p48xo0czffp0AP7+0N84/LDDmDRpEitXrWDhglf5/OdO459PPqlS/EtJ4HscesghvPfg9xLrMAHLtpsjlbS/SEtbjxJDKVBcAKCFngbEOnGsEJbqAwHCq/nSdhw8zyOXzfDqq69z7bXXUS4PUqtXqVYr6mHthhaGWvceqESHUkqE3lq4KaIrEd4QmHRGRZ1LKdlll10YGOynu3srtk4VYqSZMFLcpxCCwA/I5/IcddRRXHD+BQwM9LNp82bS6TSu41IsFhg5ahS//OUvuf3228lkMkyfPp21a9fy1a9+lY9+5KP09w+QTqfp6+tXXh1a7VYsFjnppJNYvmIpV155JUce+RHiONIR+sq5wA9CLNtm46ZNnHvOuaxduwbXUYbbKIr42Mc+xnVf+xrFYoEoVu7VcRwRS0mtXmfJ20v44plnUq/Vle+4m+KKK67gmGOPaWwR4Hl1Yp0MdGBggDPPPIstW7YwYsQILrrwIqZOm0EURjplTJ1f/fpXPP2vfzUIu2WrbAO2o7ZL8P2APfbYg87OLp544glc16GqCVhnRwczZszEcV0q5QphFDA4OMDWrZvp7+9vBKc5rnartCxi7Q0ydtxYtm7dShwp7zQ/DHE0kZCxGndjG4tClV1V6JiNvr4+crlcI3uzo7MaC82hJlUjQ5GXCvSLQmXrKxRVJm0/UA4oyoFBkM1kEUJQKpfI5XLKGB1L3EQmBT9Qe2z4vq8yRDvKUGrmm2VZWlXRDGRVaqgI11UR/JZW/Qa+iudKN5xglCeerQPnYq2P9zyPlJ4v5rtaEep/F96JOBhIrs3hVFs7guGIybv5luZzO39XqxSUrFvo7TCQohEPJYTae6etrY1SqcSdd3yTl158kUqlwpzZs1W2DJ0cVwKe7+HVauTTGV575VX6BwZZv3Eju++5F+PGj2flqhWMHjGCtStXM27sODxPpY3pLw1SD3xGjx3LJz/1Sc47/zx232N3tmzZhBCCzVs28+WLLmLZ20tZu3oNxWKRYrHAsqXLaO/spObVGDlqFNVShZLOct7Z1Ul/f58K2NYOT6lUupEXr1b32H2PPejp6+eFF16kvaMdGUv8wGfUyFHcccedrF27lhtvvInDDz+c8847j0KuwF13fovFby/mwgsvYPToUfz2t79lzOjRjBo1krvu/AaXX3YpFoJFb72F7/vM3203dpk8iZkzZ2HpLb8bW6cn6IhEgLT1phMtvIKlN0+Wyp8sCUIMdVMWkRdKwyU8//wL3P3tu1m/fj2VagXLVrm3YhM0aanApyhWnLNlK+OUTHA2UisvlfZLud1alnYzlpJZs2bpbZRrDQQFQ7dfFZZOFR6pDXGO/MiRnHjiiXR2dFCv14l0hoCXX3mZH/34x3R3dzNnzmw8z6O7u5tMJssZZ5zBXnvs1YiUV1KWasfixW/zox/9kE2bN3HxJRdz6qmn8vzzz7Np0wasREblwVKZRx/9B0uWLFX5tpxmVHK1VmP//ffX0oAKfPT1ZkEDAwMM9A9SGlSp+6XegiCfyzNy5EhyObVBkKdtTJ62K9Wqyj5jWcr1z3FdaGywFSFEcvEqwh7FKiGjbdvIWHmjmDYaBI5xsNDBdnEU66zJKkldGAagA75inX9Ov4E4VnpZofNxSSkJooggCMhlc0pS0E4b2UwGGSkpNNbZiU1bDEIyCM4QliRSSf62tC0wCa1IzraUis4EFKLrNVmYI50k0VxPme0JdHCr7ajnki7Ttg7qU32nNl4aDlSckXpuOC9K0eT9GiATksRwCLo5tkNhKOJt9mOcyKod6rxxyXJCb/VgPMDM9wudGT2J4E3/uY29fpQ2I53WexvpvjFMpdFsmPWKVmmiVVVRHGHbOiUTNPJyJc+FZi4jnXMsl1VbXNiW2nfe0p5/SuUodGCfyqtmWRYXXXQh6ZRLebDMiM4uDn7PQaxYvoyXXnqJamkAKwzYtmkTbyx4XUny1RpBLOkvlZgweTKf+MRRzJu3G/VKjdWrV1Ot15kzby6vLVzIlOnT+evDD/Hxoz7BlVdfyfgJ4+nt6wUUk/G5005j+ZKlbNvaTVtbG+l0mq1bt5LOZhgYHMRxXcIgYNSoUfT39zfUaJZlkcupmLSC1lz06cj9Pfbck4HBEi+8+ALpdEZpKfS4GE1GHKlxz2Qy2JaDp73RHNfBtiw8v85ZZ32RyZMmcsVllzJh/Dje9973sc8++9DV2cnoUaOYMH6CdnlWdKOx9oZktRYIYROFyoXctizl1Stj0LjFsSydl07tRmraqr7TBttGyFBKBDz3r2f43vfvZ/Hitxs2iUqtRCzVfi5mYhnpRMYSIZqBUvEwxsMoVilNLNsClLtjksAIsyueBlW/qsOybNxURu0Dk883NswK9PYBsZSKs9eTf5cpUyhXKgwMDID2oCrkC4Q6xbTxdIr1dgPbtm1DCvjS+V/izDPP5Jxzzub555/XvudBww8dIJvNEUWhTu+eIpVOq2jhQG3Ig05fI7Q9xbFtwiAijmTTkytSm5opJB7rRavcZJWdSueZslXmA6M2NK6PxqXZgNSbvxkEats2AqtBYFQE8FDkKLXDBKgI3XRapWKJY0UkFAOhJoyw1F7jSeSp0qfHxFISRhG27epsDSooMpvOKgKlxzWJGIeD5HxJljHIRJ81rjeuJMqaiGjTT4aJcBxl8zOHWdxoZBrpWCGZ8HiS2isR3d8qpYd6TmrbigE1pxW0fqfUK7e15aYdpqx5r4HWfhpSX8u5qcu01xCRZDnLshp2LzNPDCFSbrVa05CAZn3KMUdJemqMDVFRWRgU06ScWJQU7ui5jA4qjCJ/pwTG0lspGGkwDEIKxYJSM/o+ft1Tbrs6Ul7Gqn2Bzht46y23EIUhcRjz+dNOI+U4rFuzhr//7a/UB/uxyoNsWLGC1StXEEURTjpNrq2NJatWEkhJEEkOPOhgLCyOOe44nnrmaQ79wAdI5XK8/tZb/PWhR/joJz7OVddcTVt7Ec9Xee62be3m5M9+hk3rN1AaLOHVakyYMIHVa9eSy+eIpaSnt5e2tjb6enuZNGkSGzZsQFgWxYL6Pl/n2Wtra2NgYIAojtl19mz8MOSf//ynUrXFkkIhT39fP51dXUShUvHmCwVq1RqWUJofxTRGFIsF+vr7OOuss5gyeRKXXXwx+bxKXJvP5zn9C6dz/PHH09fby5gxYzQR0RJHglGSUsUvWkKnftGbM6Zcm1BrTKRUUr2MlVu5ZVlNKV5rcoTtYBFHLH7zTb5997dZtmypCsqLIgYG+ocQDWsYJBHpiobj4GghGCS4JNGid28tBxDpBJqpbBY/DNiyrZuB0iA1r065WqFWr+P5AW4qTSyhUGxDCAvPD0ilVTxDT28vlWqFIAwaxrlqraZiHQoFUuk03dt6SKczIGzyhaJO7wLFtnZAeY4Y6cR0aBiovV9SbgpH25cMYRGojZhAqxQjtZOeGkOVbiSKVboFxXUoDx3HVaobtF3A8zzCSJVtEhdjRFP9GMcJzz0tSb4TSJ25Vm0k1kRKBkRCkohjFVHdmICR8ghUHI1Koy4Vf4KFQuzEChEbgmnqa30POyAwpryqO0bKaJijaRg2faKel437sd7oDo1o0Ug40ik3LKGcVEAmtkmGWOpUKEJtSSD1hEjqmkHrnvU9C4Gl939pHEOLvysw/bSjI07svSJbvMJMX7f2t/kba2nHqKDNYe3EYB8Eav5lMmlyOtN5EAR4Xl3b91S2CJDYtpKWwihUWo/EDp87gjAKceymyrSzq5NqpUoURlx00UU8/fS/+McjD3Pv3d8mn81SyOf45je+wQXnn09boYCUMY5jM2/eXBwdvP3www+xy+RJyHqdvjWrmTmqiw/vvy+H7bUHh+yxG4fusyfv2X0uVEtkbUkhbTF71hRGjSiyrXsT37v/O5Qq/bgZh1QmheO4KrtyXcUKgsrYYIz4pVKJSEvr+VwO27KxLZtsNttQ5/X09iIsixFdXcQ6VCMKQ4qFvA7aVuppy7LVxl1a5eq6DuWy2p8pCIKG1KmYe0XwHZ2ixXFdqrUavq/yF7a3t5POpLWK2KNUGlRrKo5pb29PpAkaGkgpNf5Drxe0alkIQV9fP2EYUiqVqNfreJ6H56utAOI4VtKm1oBk/r/i/jverqrO/8efa/dTbk+FQEiQloSmgNKbgAyCAoq9oAIDqCNFVIpiA8VeEEcFHLGAfQYZUSkBKdJrqAnp7fZ7+tn1+8d7rXP2vYn6ne/nM7/fyuPknrLL2qu8+/v1DgJKpRLW3/72IF++5ktMTIwRBB6NRo0oDunpKZMmXfiXvARtaSdofrGDSNWmqe1IaLYGa7QtS+feSDPXsHTRL0ubT0QyMmGCAlseJ4JWHMWRaBthCFqaGhsbgyyj2WhohiiqnUEzVrrccJqm1Oo1Wq0Ws2fNYmJ8nB3mzxdsHiwKgZQkLhYKou5rM5/rOCS6nIDjCIGNk1jn/OhnThLSJCaNY+2bEmKXZxRKge1I9mtqYHaMP6tDILrH5ompsqT2uQiE2xLtfBMiqsdWvzcRY3kTj3GqorUUI53Ls+h8pTSRDGNdj6OjX2tibNuqszIzXT+o2zLyjECescs0zXOonDSltiPQmGbGVMZH5nnm4WbdmvvpM+U7S5vC0m7kEjo/Gc3UOvOU8ytaSqwIYmKW+25/DrrE/R+9TN+6YzL9d2GS8hxm3vLjts2cTBtPsd93zRqiZdu2jW1b2oJgIrZkPMTXIefatsIPPCCj1WpSr9exbEWhGOC6kntmog7DsK2vK7+XyyXdz3/cLNXVsLIsY3JiUpcnhl/8/Bdc8+UvE4UhX/nqV4miiEsu+QQHHXQQAwP9JEnC1i1bKZck5yRJErYOD/P0U08zf94OxO2QJbvtxq4LFhBYFr2BT08Q0KpWmNXfRzHwaDdqjI+N4NgW4xNj9PX3Mjk5wVR1io2bNlAuS7XYTEe/CnxWiOtIFGoUxSgFhSCgVq8xOTnJ5i2b2bJ1C3EUMTk+TiEIaDeb2uFfo9VqUq1MUSoKQoSsK4XvuTr3rs7QwIDU00okaz+KQ+q1Go4jvr+JiXEcRzQ57e4gjkKisE1PucTE+BjNZgPXc6hUpyiVSxLxGUU0m03qjQZN7RsWzRedfZ9fy7JnbMfG81ySJKZWrTIyMkyjUaeu+54mCbEWOqJIBIswalOpVMR69atf38Lk5DiVyqTUOnEslJI67pYtm0g6kWJrSAyzuB1bss/N5uhGf3Ttw7a2l+YZh2SNC7OZ2cTppKRUp20LoU5TVJoStVuoNCXwPFzLIglDbAUF3yfwXFzbpqdUJI1jSFMcJXkmcdgmjWKyOCJqtUjjiN5SiaLvc9df/sKDD9zPXXfcQdhqY2WKJIxRaUZ1akrXRYBUO9YdWyQLpcCyhaHEUUSaJgIsqQTGxfNc0kQWoIk3N0QrTRMa9XpH0jNET2niZWuJ2lIKS3+vlBGbc6+ZRDVHtAwzMwTJfE60VmTU2jxRB1lkSom66zg2lpK5sHTCq5lzdDlV21JkmTaLpbEgcJtxsOU3QxhlneSjDuk8i/m+Y6LLPVueCOeb0ZLo9FvWoTHzyF+jDXWvq7TwItMiJZEVGSoTjBOVmXkUgmvOtWwZLzOO0+aioz1Nf96Zfc4zkJlt+vHyPEa7MmvCrAVjuuusDX38zHENAp84iSkWJHIwSSKUkvpC+XE37/PP0263cBwLyxbtztWmEfETytr3fY9CsdARptrtlgSv/L9gMEma4Ps+WSoCYrEkZYEt26JarbJm7TrGJiYZn5hkl0WLeeMpJ5OkKSe84V/Ybfc9abVDXC9g7boNNFshDz38KNVak5deXoXrBTz93AtsHZ8kUTaZ7ZHZLrZfwCv1kCibYm8fhVIP6zZuIiiWmT1nHkcf83rSTLF58zBpqnAcQeUIAsnaF3+QxZNPPMHatWuwLUsXO5vEdix6esoMDPRhKRgaHCRLYsrFAkMD/TiWor+nh7mzZuFrehV4Hq1Gg95ymTWvrOLRhx8ibLXIkpgkifBdhyyJ6estE0chZAlDgwM06zUC36XdbmLbUCxKakGlMoXr2gwO9GFZFuWeEkkaExQDbNfinr/ew/PPP0+h0C2X0V2vObNvmlIsFoh1ocharYplW0SRruUVtZmcmiKKYxzXxfO8DmJLlmZdreywww7F8xwKxQBLZaSp2OTjWAgqaC0qE7u1bI5/vnhMy28w4ZgicRn1S+mYd2Zk92dZRpbGQqwdG8+xIU1QmiC0mnVsW+HYFrXqFM1GHc+1aTebOJbCc23IUhxLUQh8At/Dc11hFnFMEkfYtuKVVSv53GevpFmvCRR4IgW4XMelWChg2xZKo5GKlAikqYDG2Ta2oyV+HWmU6WOjUIqt5WEwbFtJSWfHQll0cNQc20KJzaVjooFM/F85c5AZe/OSPsn3aI0ljw0kDGg6ETQESOzviR5nvdBMwIWRplNNfPTfTI99miZkSQJa+jJMAa0x5gmXmV+ldExj7jWdseWfM3c/un0yf4XwCoQ7OW1l5ivfj3wzmsHMscFoMWSdZ5LztUahBa2ZzMGgM8n4zyTyMxlHt8kcdF9dBmGOn3EfI3zpV95upzTTFG1GntfTVVGNxm/6lqayLjvPlXsm0ZS6mqFEFUpydZYlhGEbpelBFIedXLJmo47jynqOorCDlfePmm2JRSLVici2hkEpFoq02m2mKhXmzJ1HmmWsWbeON735NC697Ar+9vDDbNi0iclKlTjNCOOEMEpohzEnnPgv1JstFu62G8HgEMP1JsONFiPNFmtGxnjmlTU8/dIrFAdmkTo+r6zfxNaxSVatWc/uey5lp4WL+OPtf2HhwsU6CjXAdSS4pd2WEuJKWaxbv4FKZYoojugf6CfVfqowbFOv1ymWigS+x+TEJAqkoGIQUC6VqFWrUgyx0aDdanHoIQeTJQntZhPf8ygWCpTLJQLfo1qr0D/QR5rGRFHI6OgIYbvVmQODPhJHIbOGBtlj990ZHt4KZJRKBYJCwKc+9Sm+973vsf+rXw1Ao1EnjhOhXUb4t7v7Cb3W6nWZ0yzLGBjoZ3JygigKqdYqOLYjQQg6ubRSqVCr1QjDUDTehka/uPkXP71ycGiQp556SiK7UoEvEfh9iVwySyUzcavIH0tDzGy7dTLhSnq7ymBIAanBwUGqtSpRPCPCSK/F7kbUkSp5E1FmnK4CLNcO2xQKhQ7T8jwBpfN8l5YuyZtqbSrSuD7KEgdtlqVkpCSpmLxcVyI24ijC0pJvq9UUNdUxyYECaZNlGShdBjrLOmVBFQrSFLQ/xHJs6T9CrNNUTI2Z9ltkGIeYEC5D5AwBNolPXSZsNqyMr3SjS5DkaPPP+LwMsZA5MFqLYfCWJczOEBhzHzMLlr6uyvl8Mn0tpfTvGpHZ/E06gQlyPbnHdOJp+jRt7vPH5FbV9GfvNqVEhU91hB06mEIc2FKbxdxn+y1DQmnNOJvIKL3RchohZq3qM1Xu8/buoc/ovOt8v53nn/mdzJGs0fy1Ux1cY14dDVS/zPpSGmMt1RGf/X39hGHX4d5ut0HJek2ztBPRhV4/3WtK97M0pVCU0sNxHAtQY7OBZVlST0gz4iRJcD2RZg2TM7OWv7753Iniy4TBtFotDdXiYls25d4+Tj3tNH7y05+RoRgbnyCMYg567Wv5z/+6ld322J2FixYRhTGlcom169Zx4IEH8NAjD1Op1Vi1Zg2bx8d55JlneOCJJ1mxeg3rxsZZvWWYTeNTLNpjL045/a3s9+oDee0hh+EVSnz/33+Eshze9KbT+NOf/sJRRx3N7X+6nTgVzc3zPBG8EgGV3GH+PA479FAKxSJPPPEElWqVOBFYl3323ps777iDZlOSQQ8//AhOOOF4br/9T0yMj9NsNlm0aBHvfve7eeihh9mwaSN9vX20Wi1KxSInn3IKGzdupFFvcPbZ5/ChD53FHnvsweTEBG9729t59JFHOProYzjuuNdz0htP4kMf/CDHHf96TnzDidQbde648y9cc82X2Xmnnbn//gdYt24du+66KwcffIiOPuzSBkM58nOUZRAEPq1mi/HxMW65+RfcvXw5d911F08/9bQuNb+R8fExVq9ezQsvPM/qNWto1GugoFQqY194wUev3GvpUoaGBnnllVd0GHAk6piWyhTaOZwBOvIgQ4GyyDLDRETqzbcugZHf0jRl1qwhsT0a56nsUDDom5qbyj2FmKfGB+KKD0TsthK9FcWShJghKmm1WiHW/hnLlogtR9uXM7ob1rKU3kwShWGYjK2r52VZSqFQ6JCHUAOC+n6Ao/MblDYbKSX+hzRNUWjHqQ6dVbp8gK2LPZmxchybJJHfDQGWi+o/OcJhJE8z9p3vNQE1v820upgtrZR2WOvwWqWDKJT2h8n8CCM3ZqBEO8LzWhFoxqkseU5tSstytUccXa9EbmnwpLrEc1r/9DXNb9JP/RsiwCi6ZrXu+upCg4svTIhkJotIm3KEusnI6PWpL24Ic14DQC9Dubo+TpsMRGpVHXLZOb9zXrf/054ld4607ntlGG8uE9qcL+/lGFubSqX/09eFzGX3nwgucl3XcbFtm1mzZrH//vszNVUhSSSBWBASpAKrmrGmTN8kCiwh60SeQa1WY+myZVx26aVccOEFfODMMznzgx/gnLPPYZ999+Xll19m48aNeJ4n+XK6z+aaMgLyjVJSdz4IArk+Mj+lkpRhyICpSoV77r2XSqUigUQKJienuPOuu7Admz322hPXcRgZHeX22//EU08/STsMWbdxA8VyiTuX302sYMPwMK0sowkMT03RykB5Hot324M/33kXv/7t73ni6We49bbbGJuYQFkOD/7tb0RxxKGHHcp//ed/kqQxhUIB3/do1Ou4js3iRYs4461nsNeSvdhjjz349W9+w+zZs+jr7eON/3ISe+6+B/fdey/tVpudd17IgQcewEEHHcTTTz3F1NQUg4ND7LVkCXvtuQTHdVm5chVplrF48WIuueQT7LnXnhx66GG0w5DjjzuB3//+Pzn6mGOZP38HDj3scH73u9+zbNneHHHkkXz7W99m33335dFHHuW3v/0dB732IFaufJn3vve9rFq1ivGxcVzHZfasWey22+406vVp61iEja7maimLwA+oVmp4rkSh7bXXXhxwwGs46qij2HvvZSxbuozdXrUbCxcu5FW77sqSpUvZe9ne7LJwIUNDs/ALRSzb96nX67z+uNfz4Y9+mNlzh0iJ8Xwb37VIwhaWlrhd18X3A+IkI0lBKQGjQ9mApT+bzSsdTzVh8zwP13Wp1eoUC4VOJUVjEjMST6JDSAWTVuy+IMQqUxAlCT29vcRJLGG0iTC+KBT0YLlGQqidXpASJyFxEmrzX0SWiRlQafOQAnxXoucsRcdOHYYRKBvH9bAshyiWujigSOIUz9Gx5Jl2jlu2MF1lgSYecZyCzifJdMhflkIcaz+V7ehwQyFkju1IFFqmsLBJ4gylbO0/V8RRLOGDSBizcUKKnV4jJ1jiO8n08zm2FDmyLYuw3SYKIzzHkQgopWg325BlHTykWKMVS7+lnxL+rLCUjaVsbMuRCqdhgud4tJttHNuVEGulCAKpaRFHsQBTxkknsMOEOSvL7ggqYpKVImORToiUpkjjFM/x8ByPLMlwbZc4imUsk4wsyQCFbTlYWKhMoTKFrSySMOr4iaIwJPA9Ig0PZNsSdmnpqBeTl+T7vkjXxt9gK4Fp1yY/2xEflBwjvpk4kTUXJxLWazsSOm3ZEoqbplIJNdYlxMU8IRaArOOTEXZo1lRX2JG5sy1LMtVdj0yHvbu6CJ1tiX/M+MgkB2MOV1/9JS6//NMcffQxxFFMrKF0Go1GR2DM39PMexynZJkiSTKCQhFlO7xq99254tNX8OoDXs2s2bPp6e0j0aCURx99LF/44tXaNxJhOy50BBNpeb+MGQMxO0nNKLR2ZTQqx3XYuGkT6HykDMDKCKMW7bBFmiTsvPPONJsN5u+4A68+8AAyS7HXsmUUe3t5+/vfy3BliuFalcT3CC2FUyqSORatqM3ye+/h+BPewPd/+APO/fD5XPyJS7jma1/loosv5Pzzz+OLV32BHXacR5xEuLaFZyusLMWzLQLfZ6B/gLuXL+f551/kmWdX0NfXz6JdFrPnHnuyaeMm1q9eC0nGYP8AixYuZGpigo0b1tNoNvA8n0W7LEZlFkmcMTYyQZpAq9nmkEMOZf78+WzdOsZeS/bmxBNPZnKqzi2/+j2PPvoUfqGXWj0kUx7NdkqrlfLyyjWMjk6wdesoGzZuoVDoQeFgWy62JZFmU5NTvPD88zz95BPiP1W2Fh6FnsjeAZWJwBy2I3w3EIj+DAaHhliw007suGABu+22OzstWMC8uYKU0VPupeAXUJkiTSBJBKfSclyXQqnEVLXKa197EJ/4xCdYsmQvMXXE4mdwXQelYaZTbS8tFIqdxSmvbjPOImVJXofhkmgIas/1BBImdw5Ml86U3lj1Wp1SqYTnurSaLQpBIPU4dCif0qi7ruNg2+KYLmipSOz84DiSsWobk1XOLq+0VB+GIZ6uSxP4Ettv6YJmTZ0kVSqWNJFuocho1BuQSjCCgbgR23g3A91xJBzYjFMcJx2NxtN1SSSHQBhNux1SLJbIMjH3BEHQYZy2JoTNVqsDQxJFEcpSNJtNkjRhoL8fyxZ0ZN/zsJSiUZcS1qQZvb29IuFrhpPE4mj1XFGFHceVvB/dfyNdC9PK1X/AwrYcQEAJC4UinudRqVSxLJslS/bi+OOP5/TTT+OMM87g5JNPZtddd6XZbApTzWttQKlc1mgEEvlkciHSJOmEfLZaLWwDmmlqdThuh6DaOsM+iWOJBtM5T6nO7p89a0gImgVRHBLHEf19UnipWq1SLpfxPI9araaPUxRLRZqtpq6TLn2u1WvYOh9Dws5FG+zp7SXRjKSpy8qGYShE33aIIym853medp4aTUaYTX7tW0ppP54k9iklzzjQ30+jYeBHBB2j1Wp10ArMvpkzZy5f/MIXWbp0GY4jVWNBNFPHcXFdb4b2NP1lKUuKUVk27XZIGEZceeVn2X//V7NixXO89a1v5fjjT+CUk9/EYYcdwa23/oH99t2fSy+9nN7efnxPEpD/Wes8r04uNswFrcEZM3JGSprJnhbCkbFp40YmJyfZd7/9eM0Br2Hx4sUMDg3huC6pgnYcYwU+diEgsS0yxya1QDkWju8RJQn3PfgA/337H/nFLbfwgx/9iK9/4xt87/vX8eOf/JgvfflqzvnXs0nTmFKpQBSK0Do4MEDYbtFoNBgamsVuu+/GnDlz6evrp1KpMmfOXHZasDOe5xP4BaYmK9TrDZbtvXeHFiRJBspmcGg2zUabSqVGuxXS3z8AOveuVq9j2y4Km56efizLwQ9K9PUNMDw8ShQlNFttWq02aZJRqzWYPWsO7XaEZTlMTFZ45ulnCcOIaqXK2rVreezRxzopFgqJcUmTDFLQBl8zM11lQTdjQTD003UFgFfWrggmeXoRJwn2Jy/95JWkGeVSmTRNmDU0i9ce9FpWrVrJ+NiEmI/CEFfDfKTa9ttqNkWCzGSyc8qv3MSySPLRQlpKU0rR19dLpVLRfpBu583DmL++drSHbXEsxrqsr0jkUvK1WCjoaBSPSmWKwYF+RoaHKRWLoH0IqXZYK+EuWLbkrmQ6S17gS0SSMpK0pazOdW2lpDRqKkRLKbFNlkpFiU9vt8mMg1tre7atYRiMJmHMfzrR0rbFBJGmaQcI0qiscnyqiw+JQ9rRaMeujthwPVckQr3ZfN/HcRzJInZsXM8lbEvuTqFQoNFoSkg3EOi6J4HvE+pKj2EYEhQlPNuyLMo9kuVvCMD0l+6nNk3ZtjBoebaEc845m0s+fgknnXQSBx54EEceeSRHHnkkhx52KLVajZUrV2IpizCS/jm2Tb1Ww9bJd8VCgTAUB7LjOMSR+A9MCOvExDi+7+P7PlNTk3iex+DgANVqlUaj3gkvdWzBv7NdMUc2GnUKxaKYOTSOWrUmBfQMnI1lWZBBsVgUhqZNm66rtSaNLAyiPdiOaJyO61CtCA6aMqZFzThcjSTebrcpFotiBYhiMVF1xlTm0TSFIFzLOjBleiUJ2NzXcmzaoUQiloolWromUBi2eee73s2RRx7VqcHz3HPPcd999zF79mxGR0c79XjMXjPEIz/PifZJ9vX1EYUR73j723jmmWe46MKLmZyYot0KyTKxMjz++OO89rWvY+HChdx2621s2bJZWx/Etq9yJsrOM+aIFznTo6x/Sc9I9fn5f5YlJsF2K+Seu+/hz3/6E7/73e+46847ueOOO1i+fDl33nkHK1Y8w9p1a0kS8ROJqU9hafNfsdzD6NgYTz/7DC+tfJmJyQlmz5lNBjQaDR548AF6+3o54IADWLBgJ9asWd2xEmR6jbz1rW9BKYvh4WHuvPNOkiRh9uzZLFu2jFYz5OFHHsXxPPr6+9lryVIs2+H+Bx+kUqkxb9589t1vf161++789b77GZsYZ6oyxWGHH047DLns0ss5+OCDGRkZYeHOO3PKyW9iyZIl3HnnHSxbuoRjjjmGN5xwPPfcs5wnn3ySvfdeiuu6PPXUU5x2+qnccvPN3LP8HnbYYT7HHH00ixcvZuedduLII4+k3QqxLWc6U9FqrNAt5PvOuhSaZN4LSe8GimSZ+DAl0lFwyKI0xf78Fz57ZZbPLLcs+vr62GOPPVm3fj3rN2zoOHeFMAqEeqlUJNGbxCwis4BEipfjZRHlsqXTlIGBfiYmpOxynsF0PuuHUllKGIrKbCIeslQGQWDnPeq1GrNmDTE+PkYhCCiVitJXnb+RZSZfw/iR5LOYRyIpvmVZHfh4S2szWoiCzqYTv43Jn2i1m6CFKdu2cV3RjmKTGZ9lKMvWJi1hUArwXJd2u4VCriUEVCRRz3VBSf6J44hU0G63dM6L9CMMhZlFGtU40TWyTTROT0+ZVqsJ2tQTdnIULErlEi1dWlUCHnTAhK4NEUYhvb29hGHI5OR4xzxpzJ36Q4cwSCJuSlAIyDKB7znttFP5xCWXUK1Wue+vf2X9unW89PLLrF+/jte85gAWL17Miy+8yJYtgutktI/ecg9pklAsFpmYGMfT9dJrtTrFYhHIaLdD4jgmCPzOuhJQQPEPAJLcZSkp6JRleL6HpSw839PaiWi/ge+jtNnX1lhqriO4Y3Ec4TpieooTDc+hcdiSRDTQJJHs9SRJKRQLhG3BPfN9n7Atmn6cpNiWTaslc1Uu9whAZ6OB4+iCVJ2hNWay7n6SBSbPGRQC0HlMRjq0LEU7lMqdYRyx4w47Mjo2iuO4rFr1ClOVKVa+vJITTzyRu+66i+eee078KpqxGC3ebJAOodDaA3p8ms0mWZrxu9/9lr/e+1eUUrTabQnh1RJ5qVTi6KOOoVQq8Zvf/AbSjCQV+pD9HQZj9jxmj+kdZ0LqlWb2Qg40soL2+ykUpUKRyfEJ/CDA8zx8DSppWTZB4FOtViiVipTLZVKdCOjY4pvNMoHDB4HILxSLzJ8/j+9ddx0HHngAp556Kkma8N73vIdDDz2c17zm1QwODvDkU0+Rpime71Ot1thll106wsnDDz9CFMXstddeLFu2NxMTU/zx9tup1ess2Gknjj32WLYMj3DfffdTqzVohyHnnnsez7/wIi+vXMXw8DCWZdNstli3fh3r16+n4Afcd99fWfHss0RRxH//8Tbu/Mufue++v9JTLrPi2Wf4xc9/DlnG6MgILzz/PO12m9NOPY1bb72VyYlxNm3cyPp161i4884sXbqMNE7wvADb1kFaMxi9DLjqMh6zPsxcihzdWZ8mZD5/TAoo28b+1KcuudL3fCxLShkrDfw3e84cXvOaA0jShM2bNmmiJrhVveUy1UpFEyDRQrIs1fUChLlIp1UnESjTWEhZmtLX26tLLncdmMbZbaQYpSx8z+MDH/gAV119FStXrmT9uvWUSyUcS2zn7VaL888/j6uvuopms8nTTz9No1ZjwYId2bx5M67rYdmWZOPqeiqWJSCKqYZYiHUt6lZbpFXblv6Y/B1hvBrQUdvgS8Uivu8LbpJ2bsdxRJLEOvdHmGEUCtFJk4RSsShhoxqiJYpCkkhAI5vNJsViUZslJWih0WjI9XTxI8cWrcTTWo2lCyFZlhCBLM1wPZepqSkCXwp1hboYWaPRwPOkpo7rukCGrz97ngQs1JsNenp7aLUFJXhwYKCrwRhnoOb+hgwmWvubnBIoiz333JPPXHklW4e3csUVl3PjjT/m7rvu5i9/+TN//et9vPj885xyyinsvc8+3HTTTbiugHRmaUqtVsNxbKrVSoeARFHcAbBU2oxi2xaNhmQsmzBcowkKcxcC6nmeMIw4RlmWniuLBTstICgE9Pf3MzQwSG9PDzstWEC9VqdSqcg8uVKKdnBokEMPO4ylS5ey2267sXjxYorFIlNTU7RabQJfspVt2+aEE05geHiYzZs3MzgwyFlnncUhhx7KUUcdRaVSYf369SgtdDmOo60B2kzb2S/d97JnBNC03qhz8cUXcd755/HH2/+Iq8E0m80WhWKBVrvFJZdcwtVXX81//v4/qdVqRFHEk08+ye677c4RRxzB888/z/LlyzvaWBRFnRwrOkEf8l4YTYrreVSrAiJaKBTEFKN9cpaORHQ0UO4XvvAFDjrwIF5euZI/3PoHGs1GZ9+bZ5vJYLYhbIZAGW3KsJxMECUELUELjFlGIShg2bbkdiUyz45Ohq7XqxoKKdJJgZn8liYoBNLJ7HHHkXDpQiFgl10Wcu655+G6Dq/e/9V861vf5mc/+znz589n6dKl3HXnXaAUjbr4sI499vVUqzUc2+HJJ58kSzMOO/wISsUyL69cxfj4BGgT8Jve/CYee/xxpqYqTE5NkSQp73znu1i9eg1KKZ5//nnSJGHLli1MjI/T29PDE088Tthu88qqV3jiiccZHRkhSSLqtRpPPPk4jz/2GI5tEQQ+tUqF9es30N/fx/vPPJO1a9awww474Hku1WqVuXPmsmzZUnxPuyiU9gFK4CsqF0gCooFnGIVB+I1lKSxH6HSmg6XyrgFhQHIdx/OxP/+5z14phFEITRzHeL5Pux1SKpdYsnQpGzZuZNXLK/EDnziSCLNiEHRzCbrBP2AiRyzZTEYSy7RZSKTUAklkHOZ62SmNa9Phl4InduqppzE0axZHH3MM69auZe3ataSphER+4pJLOO3001FKMTU1xV133YXn+yRxwsDAAPV6Q0ukknejNBo0WlPJkOin3p4e8Q1ogmRrtF3RKqQAUKJzJwINjT81OUmxKFFmjit+HzoaTCphz0lC2G5TLpe4/PJLOeCAA3jggfuJQjFPCdeXGPPK1BSTk5LJbGvnrviMtIRgW9RqYvv3dEnnLBPYh2azSRAE1Gt1gkAqUqITBUVSFoRfy7I0YRFTlud5OK5LGIWaqAp8RxxFIgnahgJpswXadKHnSGnsNduxCcM2g4ODnH766fz1r3/lzjvuwHM9At8HHSywdu06nnrqKe69917GJ8bFfKmd1fvuuw9veMMb2GfvZRx33HHsvpuUuJ2YmKDRaGLbAsdTLpc555yzOeENx3Pw6w7mlDedwgknHM/pbzmd9773PRSLJZ577jmRMjUsiuO5zJ07l29842u8453v4IwzzuC0U0/llJNP5m1vezvHHnMMhxx8MA8//DCNeh2UoqenzLXf+x6nn3Y6Rx55JCe+4USOPuZo3vzmN1MqlnjggQewbYdKtcLpp5/O5z77ObZs2UIYhnz605/m5JNP5tX7v4Zly/bmlVdW8fTTz5Do0goSDWmgzbsC1rTPOlE11agIxx1/HIcdfhhJmnDnnXfS29dHEAQ0Gg0WL17MpZdeRqvV5PrrryfVZtd6rc7SpUt5wxvewCOPPMJDDz2EraP6JJy5K/zJe7mveZ/p4IIkljXhe54ECehIQcd2KRZLfPSjH+XkN57Mli1b+djHPkalIniA5JiF/tR5zzRm2mWw5nu0eVvl6IFplgJLF9tDBww4djcC1Phhs0zQsBWI30lrjZkOqQ4KBeI4phAUIMsol8tccMEFzJ07l6OOPponHn+CP9x2G6efdhrHHnMsX//61xkdG+3UbqlVqx0TVrPZ5JFHH8W2bPbdb18W7LgT1WqN5557juGRYfr6+li86668+MILbNq0mUqlwuTEJK7jEscSsPL0009jdepD+YyNjjJ3zlyhSbbs2TRNqNUqOtqujee6BDqyrbe3j2KhSBwn7Lp4V/ZasoQjjjyCQw45mH332Ye999kbS6NUW7aNbUsgBlqIFDostFiaXgydOcm6fhmdokDOBSA0QlqmFEmWYV/5mSuutCxLJHkzsRqnyvN8LNvida99Ha7nsHrVKrIkJgrbmsDpyxkiBGQ6egpyiXvIIra0KUKCBAqCj6OxzGZKc0qHx776NQfwqlfthu/5HHPM68Vst24D73vf+3nTm96M4zgEQYFXVq/m7nuWEycx9UaDwaGhDvBjplFYZdOgB0oGKYkl7DmJJcY/zcRW6zkuSSwMBu3DKRbE/NZqClRMGLa1mU0SK0OdXGk2gHmeWbOHeO973svAQD/3P3AfSkkte6XEOW9Z0r9FixYRRSHj4+N4vo9tO4RxRJKKJP/q/fen2WoxMT5BnMQce+wxbNm6BRQ0m03OOOMMjj/+ePZ/9f709vSyZvVqms1mx/wnWoLDGWe8jbPOOpsTTzyRk09+I4cddjiHHnooTz39FGEYdUwKSgsOYpo1S0eLMvrZJqekFEIcx/SUezjlTW/C9VzuvPNOxkfH9JjovBoFY2OjvLxypXa+S6DGQQcdyDXXXMMbTzpJE+b9OfSwQzjq6KNZuHAhDz/yMHEU0mg2eMtbTuess85iyV57sd9++7Fo8SJ22GEH+vr6WLRoEQcccABKKZ599plOxJQf+Hzzm99k3333ZXx8QkoVVCu0mm02bdxIq9Xi8See4N577qGnp4ehoSE+/4UvsO+++/Hg3x7kbw/9jaeefIrHHnuMUrnEUUcdxU477cTdy5dTLBbZcccdOfTQQ4njmCOPOpL999+fRx55lGuu+Sq33PJL7r//AdF4goKY1qIYz3V1Uq2sx9xe7nyXkZFoDVspxUEHHsScOXN4+KGHmZyaIiMjTlPOO+889thzD/5w223cd999RElCqoNPFi1azPHHH8+KFSu48847GRyUmiSlcolMC4iSqS/+yXyzlNLBNU3t09R+N0tAED3P5yMfPp/3vOc9vPjii1xx+eWsfmU1SWQwqYT4mLY9BrO9Js7+Lmsx53UZoZzb399Ps9FAzNHgaDBWw0TiWLQSMXHqYBrboVAQzSeKYvxAzMwAhUKBY19/LLVqjR133JFf/upXLNplEZ/61Kf45S9/ycqVK9m6dVjuk2b09fZy911302g0eOmllyQx0XEYHZHaM88+u4I1a9Zi2RbVSoXHH3+crVu3snHDBvF5BgEvvvACIyMj3HHHHZRKJaYmJ7EsRaNeQylFu9WiVq926jTNnjMbdNKv0qgfrVaLUlESONM0pVqpcd8D93P/A/dz23/fxm9++xvuuPNO+vv72HXXXQmKJXwv6NBELEtqtxjrkS0+dFCQ5YUfTdMQ2mlcIR2mpBkV2tqQoVBJ1MrMhTOdV+I6YjpyHYc0jWm3miRxxO9/+1t+etNPqNeqtJstskwQk5MM4hSiDDIU4iYxIcBCXMR2LA7u/v4+hgaHWLlyJZlmMFkuqUzZEk3i+wH/9tF/43Wvex1bNm9hp512gizjmWee5eijjmLVKytZvvxu3v/+M/nLX/7ExRdfxOzZs6k36sRRzO6779GBHXd03kmjIaaQMAw75rCenh4hEElCq9Xi4Yceol5vkCVIZFMkkUBKSQTR0qVLeNe73smcOXMol0taE4FCscDU5BS33fYHbr7lFgYHh7jwoot4zWtew9DQUMeU8/zzz3PuuedK4ITt0Gq1+NCHPsR73vMeLr/ich595FHa7TZhnFAsFUnimF0W7cKPb/wxN9x4AzfddBM95TJ/ueMv3PaHP3Dxxy/mS1/6MkcffYwIBZbF8889xwfO/ACOLaGx6FDxM976Vt73vvdRLJZIkhhLg1bajsPmLZv55Kc+xUsvvqSRpM3c5PxXOQaTaZTbaq1Cb28vQRBw+WWXctjhh7FuzVq+dNWXCHyfer2BZVuMjo6ycdMmCgUJYU6zlH333Yerr76KYqHArf/5X6xY8axIalnG29/xThYtXsyKFSv4zKc/w+joKMceewzf+MY3+frXv85vf/db7S8Tc82RRxzJpZddilKK66+/gZ//9OdYSnHNV67hwIMO5N577+Xb3/k2mzZv1BqOaOSpLmtQKBQZHRvl29/6NkcddRTL772Hq66+mvGxMYJCQBhG7DB/PldddRULd9mF73z7u/ziFzdz8slv5MorP8vU1CR9ff0899xzfOADH8D3C1SmqgwMDpCmKc1GE0cn9CpFB4LGNCuH0AzoIlVDnfX6hS98nje/+VS+cs01/PwXv0BZNgsW7MS1115LuVzinHP+lZdffhmlSyvUaw1OfuPJfOtb3+Smn9zEVVdfTbstiOAixUtBNbPv8syAzCRWi68wjhMhyH6AbVkEhQIfOPMDvP/M9zMyMsIHPvABtm7ZSpKmEulZr+lnNUx0epjytHvpZvohkWR0fETmr5knS4fhDw4MMT42Rk9PD/VGAzSTAGg2pWJtmqTU6zVcHVEZxxI6nsQJnh8Qa/N1GEYUS0Uuuugirvv+93nDG97A7nvuhWM7zJ0zB8e2+dvfHuLGG66XZ0olEdskYTcadYIg0EjDJhHWZXBgkKAgkY1xIjWHbNthzpy5WErx8ssr2bB+I6VymZ6eMq973WspFH1tnejXz5PR19+L5/v89ne/4+lnngbAdhwRQtshKlN4rq/95Ta1Wp1Sb5l6o86cObNRZLzplJM58/1n0mq1GRqcJWkDWU57kdFGWfpTaphK11cobgL5m6YS4m/rvD/0HMa6iF+KhWM5krCoz8bVnx0NyW24VxAUOP0tb8H3PX56008YHR7BUhaNZgtLKVzbIm5HpGQksZiITORTrP0KSkGSxrSjkCRLKRRKNJtNyBIcVxaDaADihIvCkGazyYIFO3HVF69m8eLFnH32ORx11DFMTE7y/et+yJo1q/nYv12A7wU6+VIxMT7J2972Nj7ykY/Q0yO1GjzPo9lsMDY2zuc//zkeffTRzuD967nncs7ZZzM+MUEYhpxxxhlE0WbiUIpopTo3x3VsFu2ymC9+4Wp23XVX+vqlJGqr2SIoBFQ0iN3WrSP85je/JwrF8TprcIhms4Vj24yPj9FuSbi16/naiV1i/g47oJTF7rvtwUN/ewjH9VC2LJYoaks8u+Oy4w4LqFZr9PcPEIYJYPO2M97FG096E5VKlf/42U2EUcizzzxDsVSiWq3qUHOXo48+mo9+9N9otZpcd933ePbZFeJ7cz2OP/54Tn7TKXz+c5/n3z72b4yPjaOU6mCwKR1GarRS9GJKElHvXcelUqlwySc+wVe/+lWOPvIo/v37/05PT6/UFrJsNm3exOc//3kee+wxyuUSo+OjnH3OWZSKRW666SZ+etNPGN66tROC+9jjT/LpT3+GAw44gCOOOJJf/OIXpKn4CxrNJo1Gi3qjjuu6BEHA7X/+M2MTE3zpS1/mlFNO4Ve//DW2LYs/y0R4Gh0ZBQGF6DRH+7DCKJIaG+0Q1/O54YYbGRsdE4aoUaI3bNjIbf/9R664/Apmz55DqVQiTSVUuFAo8dBDD3PFFZcTBAXabSmOJvZ60ZpN+HemJBpK8+pOM4Q3SzMc22VifII0ywiCAt///g849NDDed/7z+Tu5feyZvUaTvqXk9h5p5357W9/y8svvgSA7TrUaw1cxyOOEsjEqtButykUApqtZkdginT5i7YuaRHr8HdjWs3SDM8rkGYpRTcQM18Q8La3ncGHzvogq1at4rLLLmN4eCtBwaNer9Ns1fF9qURqWrodiB0zJnnGYo5VufIkSudJoUWbLE2wXQ+Vpri2TRyFeI4t4fVpQhTHDA4MUCwUIM2w580jiRM2b9lMT6lEu91m4S47M2tIiKyybfoH+rEsiycef5xjjjqaLJMw6DCMWP3KK/i+CCOXXHIJ9VqNr1xzDb4r4eanvOUtHHzwwZR7ylSrNfr6+0iTlMALWLBgJ9rtNqtWrcR2LJrNBo5tMzo6hqUsin7Alo2bUGlCuVhg10W70GhUAXAdm8nxMcKoTa02xXHHH8+hhxzM008/qYOTbNpRiywVem3ZEhRk2eKPjXR1zw4CQ08vUZLQaoeMTUzgOr4ordrMJcwFlNLYg0pyaIyWm+pierYj8+R7girtee60omWAaEWAM33Op692paQuhO9L1I6l4LTTTmP2rFl84+vfYGx0rLM4TEhvO4rwimKftHwfRdYxAaF9H1EUUa3V6Onro9FsCbfL1Q8xLYoiXM+j2WphOw43/fSnbNk6zLvf/R5uuOEGHnrwbxSLAa12SLmnh0w7hk964xu58MKLSNOURx55mPHxCdatW8dee+3Jsce+nu9857t8+tNXsHz53bRaLX7x81+wedNmjj32WJYsWUJvby9rVq+FFGq1GM/zCIICvb29/PCHP6RUKnPvvffx3e9+hzgR0M/xiXFKxSK1eo1qtcrAwCBRHHHm+89k4S4L+frXv45tWVx+xRWsWb1aFxNTBEFApvN9PM8jSVKaTXHOoyzarRDLcrBtl2KhRLncS6lYpt0KSeKU17zmQE466RRWrFjB1776dVasWIFSila7SRSF9Pb2yKKwbE4/7XTGx8b49ne+w6233oqv63AopXj88cdxfY+T3vhGlixZyt133dVxRGdpRkaiYVW6Zg/Lsmi1JPJsfGKCcqlEmiZceOGFvOPt7+DAVx9Aq9kmRcDv9t9vf774xau49NJLeeTRR3Bdl+GRUYKihHsfc8wxuK5Db08vrufj+QVdUgBs20Epi6mpCq6jczgsi1K5hygMqegQ4U2bt9BsNqlUaxSKRbZs3swVV3yar3/96xz3+uM5+OBDqFYrzJs7l3a7zcZNG/n857/Ac889h+v5lEplkf5KJZ3tLhpbo9mgEAihRecpNBpNms2WjmgM2LhxI1/72tdotaS8g1KSkAkivKlc3o+MYx56aVuJXvaMhHEnccL69ev56U9/ygUXXMC/nvOvfO9713HGW89gYnyCG2+4kTQVOCbbdpg9azb1WoN6o4HneZR0HRLXdSgVS4RRW/IrikUOPvhg5s+bRxRHvPTiSzzxxBP6/oK+mmgtpNVu4TgOb3/72zn7nLPZtGkTl19+uYQCpzHVWotSqUS9XiNqRdg6nDuvueRbXnNS2i+UHwdl2USh4H8NDgyydetW+mbNEu2+HWIP2Pi+R09PD9+99lpmzZpFlmWMT4zT3z9AdXKSJE7YunUrlmVx2WWXUalU6CmXedtb3sIhrztEAlVcl3YkJu44Sdhtj92xHIeHH32MLVu3ir9UKUaHR1j58ko2b9pEmqQklqAR33/ffbz04ovUm00KxYJoR57Hwp0XcsJxJ5BlKZ+98krWrV+HbQlwqJjeoVFvMDAwSBxHbN28iZt//lN2fdUiNm/eQqvVot5o4HouI2OjeL5PUAj4yle+yt777EOaZNxww42MjIzyyU9+kkKhxO233863vvktXZHXItVI85ZloWyLwaFZ9PR2S9pn2rkvA56hdO6ghcLKbFRm5j/D8yR/r1KZolAMiOIEy06wU0fKJ2u4KBAYl0yBM5Op5FuWib01TcTxnaaSH3LooYejsPnBD/6d9evXMzFVodzTw/jEJJbjkMQhA/19UhTHkofMdMazUhZRHFOt1thh3g6ysHL+l0wfC9LhZqslOR1xiO043L18OY8+9hiTE5Oibjq2AKspRaFQxHJc3n/mBwgKBX7329/yrW99S0d4iVb11rc+wVlnnc0HP/hBnnr6abZu2cLq1WtYu/YnzJs3n3322RfbEr9OpjPqwyiEEObMmUtvTx++73P77bezevXajnrs+z7jY+P4vkchKFCpVEFllHt6mJyqAIqe3j62Do/gatjvekOc847jEkVirgJwXQffD6jU6ti2JOaViiXCMMKyxNSXZVCvN/Bcn6mpCl/9ytdYseI52u02juviexLhNDY2wsDAIEnSIgwjlLJZsmQp++//arFNZymDg4MopegfHCBsR0xNVjSKrBAWpSsXmv7J2hC/macjjQqFgIYGPPR9n5tuuonf/vq3tFtt0iyjVCzy3ve9l3e/+z2cd/6H+dSnPsmadasJggJTUxU+8KEPseP8+YRhSNhukyQpYSyaY7PRpBWGpECp3EOrHTJr9hzq9QZBUMBxPOI4pViUAnMgKLhpllHu6WVicpJLPnEJl3ziE+y///4MDA4yOi6h0It3fRVf/drX+PjFH+fpZ54VxAHHFebRalEql2jUpex0lmVUxiskGgbFJDwa083KlSvZtGkTWQ46p2MC6yBhd1s2zbe1bQsjQZRwbF3zw3a4/777efvb3s6BBx7AOeecje/7LF++nNWrV+M4DuVymTAMmZiYIAwj0kRKRbiuS6lUpNmUQn+RDp/3ewPOP//D7LJwIUop1q1bxzve+U4qlSk8zxH4+KFZNFstyr09nPzGkzn3/PMYHR3ja9/4Gs+seAbP9RiaNYtqtUK1VsXzPFCydvLMpUPIdMs/u9n3+WPSJMV1JSJydHSMclk0hEKhQCtp0Wq1pPZJfx9z5szhxhtv4K677u4E65SKJSpTUyilqFWr1Go1At+n1Wjy3e98lx/94Id4nodl8os8j3YUcuVnr+Q1Bx7IN775dRH4Gg3KpRK95R5cx2Xrls0sWrQLgS+atu/5VCoVbNflpZdeYt68eVhK8dCDf+Og1xyI7/u85fS3sGzvpWzcsJ57772HWbNmMTQ4RCEIaDabDM0a0oE3Ln19vTz44AMcfsSRZCjWbVjHddd9H98PGBqawx6778lvfv1bxscnOP300/nd7/6TH/3oepI44UMf+hA/+clPGB8fp6lTGfyCCLF33X03q15ZTbPZ0kKaQV4RS47RYCytwajMwrF1hdNQtPFSuUSxEPCGN5zA7nvsriG5HFE3pwV7yR8nL1xMm3+NuGtbijQFFac4rk+axLiew2GHH8GcOXP58jXX8PQzTxOFIf19vVRqVWylqNcqOLarPTBdJz564YRRKBu4VGRycgLH0Zn9SrhgRobjekxMjJHppEPLFkI3MTkhuQhpAkoYQE9PD41mkx0HB5kzZw6rV6/mhz/6Ib4vKlwYhhQKAf/937dx9NFHs/vuuzM4MMDGDRsoFouMjIzQboedzNRGvY7rehIyqwfm5ZUr+dVvfs1pp57GhRdexEGvfR2O7dDb20uWpTz62KP8+MYb8H0JLy4UCzTbTakHgSJOEso9PQwPDxNpqJQ8YzHhfpZlU280sLXW12qJv4tM0VPu1vSWbGzFFz7/BR5//HGCoECxWJLkwcCnXW9RKpUB6Cn3aEdzwAc/+EG9sBSu6zA1OUVQCHA9j+GREfEVzSB84rzrEgmFwHu4noSCR1EkED46t8j3faJYghNijYZw440/Zp999mPJsmU4rqd9IAlJkvHLW35NrVrRlUIj0gzaYUys0VofeeQR+vr6GR4ZYevwMEr76GKNcBzFEfVGg6AQSPRgklKtSka+4zpMVatcdPHFzJ8/n1qtSqFQwLEdTjv9dN75jndy+RWf5iMf+SiVSlVrPyWWLl3KM08/zd777MOWzZup1ev09fWxy6JF1Ou1ToSi0iWI+/v7cRyHalW0qZltJjMxzuV86zhekSgyWwtlaSb5Lxs3beJXv/4NH/3oRznu+BOwLJubfvozgkJR7xtFUQsjc+cOsnCXhTTqDQqFQieiLY5jwkiSp7NU4HzGxiY0ceunUCjSajbJsoS+/n7GxycoFAuceOK/cO6551Gr1dm4cSOHHnoYxx1/ArZl4XkuxVKR4eGtfPc732XDhg3T1tBM5kFOoJz5u9LRY0pZeJ7PvPnzeO1rX8srr7zCY489xuDQEOeddx6ObfOLX/ycer3O8PAIk5MVdnvVbhx40IG4jsuypUt58MEHCTyfjRs2sPPOOzM1NYVlWyzYYUc2b9rECy++SH9/P17gs2Cnnbjll7+UUhpRxNFHHsmHzj6bKAx57tkVrFq5kgNe8xruuvMuNm3cSHWqgqWjPZct25vBoUE2b9nCAQccQG9PL9f/8PqOheKUU05hl112BjIGBvtJ4pjHHnmUTRtrJEnCqlUrSZKIickJ3vWud0iIdRKz7377MTI2wlSlouvRRExMVkgSyDJFf/8gP/vZz9lvv/245ivXMDIyAmRUa1UsHX7dbDRwPY9Vq1axbu06Gs0WxUKJVlO0QwPuO91EZmEjwQyurtdj6HhPbw/7v2Z/9nv1fsIzlASIpGnSYTKSqxVjAJ+203TJ3DjSPhExl9mao7WjFrvtsReXXXY53/7Ot3jq6adEdQrEgUgmxF+wyiDSkmWWaf8OinqjQf/gILVarWNvzXRopGVbtMM2PeUyZJJRbGt0ZM+xCYKA8fExKpUpZs2axQsvvEC5XKbdbkmxm0RCoBuNOko78gEmJycICj5xLJnVBjKjr6+fIJCM6aGhQb05JJJHWRDGIa2wzXXfvw7f93nzm0/lTW96szjaLKlfccSRRxIEAb+4+Wba7Rb1ZoNms8HA4CDtKGTQ84iTpGP2MxndYSwvPyhSLJZpRxFpImaXNBMssTSTRD+xqYpm2ajXGRsf509/+pOUWM0kCKFYKEqeTSLVCEON7ZXpMtPf+973WL16jf4shdgmJieJopjRsVHGx8flHNfJSR06JFF/Eqld8LqSJMEPfDIF137ve9QbDb7zrW/zwnMvYOnw897eXmbPnsPA4KCWmBSW5TAyMobr+kxOVfnJj39Ms9mQCLM0pdUOSXWZ59mzZ3fyO/r7+2WtaAk5jmKKpZKE2isLL/BptJokaUZvfz+tVhPbdhiaNYuJySnBmrNsorBOudRDEBSo1xs4totSFk8+8STPP/8CHz7/I1jKolKpsGDHndi6dSunnXYqp5xyCmvWrOOpJ59iaGiok2exZcsW0jTtVDp0TKKqIZozCKphJoa4GjNylgmOk20LMGWSpKQax67ZDPnzn+/ghBNOZNHiXbnvr/fx1FPP0N/fT7VWI4nbFEslFu/6Kq7/0Y+wLYvRsVH2228/fv/73/OlL13Nd7/73U5CbRjKvuzvl0CErVu3CNyP7Wjmn9I/MECtVud1rztYTC6tNosWLWb3PfbsCGBmvw0MDAoOmc6B64iyaro2Y57TNDM+5vs0zbBcm0zBZZdfxvj4BK8/7vX85S93sMvChey2224UgoAdd9yRz33+8/T19zM0NMTCnRfy0Y/8G0masGb1agYGB9h9t92YPWcW++6zL4UgoFKpoJRiwYIFLNxlF+655x7e+/73oSyLp55+SuYFOO6445g/dx6u4+BaDq1Gk4Jf4InHHqcyNcnQ4CA1Xd2xEATssMPhzJ41RK8u1jhnzhzqjQZDQ4PMnTcXz/exbEWz1WLunDls2bqVJI7ZYYcdGBsbY+HCXVi58uWOQF0qFxkbH0NZinnz57Nu/Qb22msZcZTwltPPoNzTw69/8xsOeu3r8DyPa675ChdedAGz585m0xbRpC0lZcWzdiq+RcfDsm0mxsc72olpli1mW7FcWdjKIgolt8/zXMo9ZaIwodms47o2mUF8z8lNShlNRta0o/1q01pX0BBV2tU1AaIo0aCLEBRKKBS7LFrMRRd9nC99+Sqeefop0lTg733XoR2mKJ106LgOZBaODmdGSXjd0OAQfuATtdskseREYEs4ZCHwmZwYo1QsUC4VUKRYKqNWr0MmPp+5c2czNTlJuSxx4X19vTi2Rarj34slgYyp1WsSy+/7DA8Ps3DnhaAzlZWWQJvNJmmaamwwG2ULdIzSmFRRLFnd3/jWN3n0sccIgqLOT6mzePEi3vWud3LmBz9ArdHgl7+6BYWip6+ParXKxOQki3fdFdtxGJ+YoL+/n7AdUtSJevV6g1arRblHCJ74R0LidkihGHSinUDqmZgCQPV6nUJR8LYsDY/iei6NZl1Hgkk4qfgExIzY19fPH//4R1pNwbDKUqn70dffT5ImhGEoJrk47NAHEEaRlzL9QqBDJAXqJkkTRsdGOeaYYykWCnzhs19gZOswURyz88KFXHjhRey22x7ceusfGB4ewfcDbr31D7z+9cfzr+ecy6zBIe6++y4c22FgcIB2FPLoY4/RqNfZvHkL8+bPo9VuUyyWUErqf/t+QJa1tOkwYXJykjAUP0T/4CAjIyMcd9zrOfLII7SZK6W/v59Wq0UxKLL7brszOTnJlVd+lg2bNuE6Lo89/gTf+MY3+dKXrubjH7+Eqakp+vr6mNDzNjY2zsc+9jHWr19Puy1ICeVyWbS2KOrk7MQawNE0y3I644dm0phNmSO4mY5CijIDACpJcbbtgg1r163nG9/8Npdffjk33/JLkjSjVm9gWTblvjKNZpPx8XEeeOB+BgcG9LpNqFSnePLJp/B9WQ+tlkSUfeMb32S33XYjjhNeeukl4kgCOyzbIQxj0gRs2+Xzn/8iCxYsIAgKNBtNavU6s2fP7uyraq1CpTLF8PCwAOD+Hd/L32vTGI5OvO7tFX/clVdeSU9PD6VymSeffApLKc466ywx8/k+jYYIFKVymVa7jW1b9A30k2YZ/YODPP/8C4yOjuLpyM2JiXE816PVanLwoQczNj6G7ci6Gx0bJdU5ZoVCQBonjAxv7aQYVyoVdlm4kF0WLuSRRx5mzpw5xFEogU22TbPZYHR0DCzFvB3mUygUGJ+cZGjubDauX0crbFNr1LFsi2ZDfD+zZs0iiiMGBge0z9mmWquwacsWKQ/fbpMkGbbj0tPbz1e/9g2dH3g0Tz/zDJd84hJq1QovvvQSz65YIXh4zSZOqmmCK0CxcRx36Gys8fBMszNdxiRLSciw/ADbsUjSmMmpGnGihc4IJiYnRJHIcRdbC7FoGmUpC8FiMOrRjFj8KGzjFwIsR8xGQaGA43q4XkCcpCjLxrIcdlm0iK9/9WscdeQR1GtVespFKVKka8zLtUXdB7RjScwqk1OTlHt6BHPISHJKQZYSRS0cWxGFTdIkIomjTrU2pTKSOMR3HYqFAEejyE5NjON5LgP9fcydN1fU3TCUPJZikR123JElS5Z0Nm4YRmSZIAi32yFBUJAcAtclikO8wCVJY6aqknfQaNbBgjvuvpP/+sN/cfufbuf+B+7jV7/+Fffdfz9RkvCaA16tQ/WUIAYrxejoGL4fcNHFH2fBTjvTbksN7mazSa1WY8OGDbTbbU466SSOO+44LMumv7+f/v4+ent7GJo1RK1WpdxTIgh8XF2utre3B6WUOFmrFYqlIo16jZ6eckdTaLXE//LlL3+FMIx485tP5eqrvsSZZ57JRz/yUS688CI+/OGPojT6s+t0gRSNjTYfPWZaq9XCdSTMulKpUC6VueSST/Doo4+w5x57cuutt7J8+T089dTT3PLLX7HPPvtx5113cdXVXyKMEpI04/kXXuJjH7uAkZFR3vXu93DTT3/Gr3/9G77z3Wv58pe/wi67LCZKUso9PWzZKlAao+PjZDqnKU0z8deE4mcLggIbN24iDCPGJyYolcscdfQxvO7gQ1i6bBl77LUX83fYgZ13XsjiV72KZ559lg+ddQ4bNm3Cth1K5R6mKlWW33MvF1xwAevXr2dsbIznn3+eSqXCo48+2mEukcYFe+6557j22mv54Q9/CDrfKDHz38nb0Dlt+mXZEm5r5sj8Ne+VLoNQKAhqRJaltFpN2u02lmVx331/5eijj2b58uX09fWJL0EpEb6A0dFRPvpvH+X9Z76f973vvZz5gTO5+OKP88gjj4jJLcnoKfcSRQkPPfQwP/mPm7j55pt57LHHUMqiUCiRZRZRnJBmilK5h2arzfPPv8izK55n5arVbB0e5aWXVvLCSyt57PEnWPXKGrZsGSFNlUTuzVgv+ZZnJjO/U0pJCC2qo+XbjsvE5BTDW0fYunUrOy5YwJy5c3B9iZZqtlr09/eLU9x18Xyf++6/n3YcoWyLYrlEGMdi1kwTbT6KJDquVGTzls089fSTNFtN0iwlCHzWrl1Nmia8rHHKlFKEURvbVmwdHmbFihUMzZrFyMgItVodCwvPdVnx7AoazSabt25h7fp1TExNsmHTRl5++WX+ev/99PT10Qrb9Pb18exzK/jbww/xyKOPcMedd1CrNySBt1Zj2bKlDA9vYeXKl8Vi0WiglMW5536YRx97nFt++SvOO//D/Pkvd/C+972fT3/mM1x++eWkujhaIfBpNZs06nWajTq2LlXv2A6BLzTE1WjcrutgGQw9HSLeaNSI0xBlpXiBQ0oi0WRZQqPZvZ55mZavgqGy7c10p2WQCU6Z5+moJg0/kmUZWSL1Q0hjorBFrV7hxht+yM9//lMsyyaOIc2UJAsmEnKbpIIS7DgCl6KUYuHChWxYv07DtNtarYtQNpxyysl89rOf4+OXXMKf/vRn0kSkIscRzJ4FC3bij3+8neeee453v/s9WJbFxz72b5xyyik89uhjXH/99WzatBHHcSkWC1x44YUceOBBPPzQw3z6M1dSqVQZ6O+nWCrx1re+lXe/+91859vf5q/33cuada/Q1lEsnucTRzGHH3EEfX39FAtFCoUSrVYL3/fZcYcdOfFfTmTd2rV87vOf4/nnn+/4U5qtFgsWLOCKKy5n77334ZlnnuaSj19CGIadrOgwDHnLW97C+eefj2M7bNy0EaUU5VKZKI4IgoDZs2ezcuXLvPnNb6J/oJ9f/vJXNOoN3v3udwNgaeRb9GY1ErVji+TcaDTYY/c9uPLKK9ln771xtPYWRxGWbfHhj36Eu+++C88TiI0UUZXpSNtdM45RbQwUi+9LGHiaZsydO4cPffBDLNxpYYeJK2WxecsWbrjhRjZv2UIQSAGrTKMy7LP33hxz7NGCFlyv0w4jhkdH+NOf/iRmAp3olaYJBxxwIONjY6xes7oT9ms7gvvm+z6DQ4NYls3Y+Bj1RoOBgQF6e3tRCsrlkg5MqGEpi1azxbp161BKkJhbLTHLtsMWipRCQXCu4khQk1ON2ycafSSO5EqlE9wQhaKVNjShzzd5Bq0BWpaO4un6J7tjK/PnuBJoYfZcPqcpjmId3BB1UDharRa9vb0CfZ+mOupPTHFpmtFoNLRpTCCA0Ajd6HpHYpKLtcaky0rbFkmSEoWRlEbWNMB1xJxo+iOJlWIuk30Nipkmse7nLJf1nf/O0kRLKYs4Spg7dy5f//rXufHHP2bJkr2wtblmw4YNLNplF1772oP42L99jE9+8pO8+MILWJbNRz/yEdavX8/mrZsZHx9n/rx5PP7YYxx95FFYOqio3W4xsnWYF158gcGhQQYGBljx3AruvOsuDjv8MM46+xx+fvMtvPWtb+Whv/2N+fPm8/BDDzFv7lwevP8BJicnSMKIwPdptpos3GUXdlm4ENfz2Wnhztz2x9tZ+corvOMd72JgoJ8//el2enrKQEahELB29Womx8eZHJ/AdRzCSJDDbcdm4c470Ww3mbfDfMbGxymVenju+Zd429vexfwdFnDBhRcThjrCtq1Dzi0AEUKCwCdst3F0jorjSAFGzwtEkMkUkUYPyI2+zHkmyNVxHOH5HmmWSfVfXT7d1TlUl116Ge9/35mCSIqQgyynjctf9Y8ZjFkQ5uDu991TZFAsYQikTE1N8Pvf/5brvvc9HGXTbIiDW1kWrbbUV0nSjDQRJ34YSphrIQhYv34d5VKJdtgCUmzH4vg3nMDll13OF6+6it//7nc4Gpbfsm3qtTpz587j1lv/wMjIGKedejpZlhHHCddffwN7L1uG67pMTkzoxWvT29vLM888zUUXXUylIjDaZ575fj71qUsJw1DCGHt6CAo+n7z0En7/n7/HtmyiKGLx4sX88pe/0k59DfeKOPka9QbVWpX3ve99vPTiixRLYsap1STCzLIUAwMDXHnlZ1m6dClvecvpjI8J4Geqc3/iJOa41x/H+eefj+d5NJoCTNmo13Bdh0azwW1/+AP//cfbaDTqvOMd72RkZITly5eT5konF4sS699qtRnoH6DeqJMmKeVyD5VKhTmz53Liv/wLruOKc7xWpd6os3z5XYRRmygWAuHYgtqLDhlHh8wqS5EmuqaLljYN8RQVOwNdu0YkcwHGdHREnNJIvUoJYXI1AnCSxERRhOdJnZ9CsTjNUWxbYhbLUgn59TU0fzYjn6LTNMGbmUyY6oRXz/OFDus2fStkZFmMUpIAbFmCXBGGodSIURKplj/PZN3Ll3rPpDPLEJs2vb8zt2H++Jm/mWZMEubFtA0OxjLR/U0YGmYcUpk/89s29zOJjqkk3KKz+82cSnCHmNOcTv2e7vXRSAXb632aCRK4iTA168j8liYZKrMJggJvPvXNnH3O2QyPjPDFq75IGLX5+MUXUwgCrvnyl3nuuef4wb//kLVr17JixQre9ra38dSTT3HE4UcwPjbG/fffR29vL3PnzCGJpR5PX28v69et58UXXmTnhTux+x678+c//5mXXnqRAw44gI9deCHXfO3rhGHEvPnzqVWrrFktaMpJFDK8ZTPNeh3HthkcGpSE6DRl7br17LjzQjw/AAve8fZ3sGjxYpbffRf1WhXXdRgaHCCOIqYmJ2g3m/zi5ptpNVvUazXe+c538MY3vpF5O8wnjGN6+nopaGE2ihLCMOZTl13GH2+/veNHC4JAgk6SmIGBfmq1mkTypbq2S6dNf99dV+JLsfKJvkoEAMP08iZAx3H42AUXctZZ53TWQn6Ndtf1P2Uw0xftzO/lvQHJk1wJpWDjxg08+MD93PDv/87o8AhpBnGSStZ/mmFZDkmadcwxURyxYMECRkaGicKQOJGs2mq1wrGvP5azzj6L73//+yxfvlwD9Ym/pFiUJLdrr/0eI8OjfOpTl3W0jfnz5vPBD3yQefPmsuMOO7J161bKPT2sWb2aa75yDZMTk50IpIMOPIjjjz+eNMuIdY2PVqvF7X/6I2vWijNcEkddTjjhBObNm4vnCgOwtaScJikvvPgCL734kpbqlEZEkDwZ23EYHxtjaNYsFixYwEsvvkimTSDNZgNbh1YCzJo1iyRJURq+vlaropQgBbTbLRqNbj2Skk4cCwJBRzUalfgCXBKN/uvYDrYjkPOZzitJ4oQ4ibFsRblcpNGoUioXcWyB0ieTmiDkIp7MWkjTbsCHaXkClWUyz7Y29Ug+S9phWPKsBiJFGJeYFeX8JBZ/n7mW0gzESPvmfkIwZkrK+v7aRGvW68z1LEW18ms5vxUyLFuI8DTJWyMaKKXhVfR3bHO+FIzLMtkjaCKeb4bAi6lMzBOp1mhkX5nNu31fhqUJcvf5uueoTsTfdOaTHwvzHOY30zrH62fLa1gmZD3Te0LmtUucumMxPZt12siaMh0zGIyMgQTykEoBOaUkYc/WKQlxKmWgCwUflYn27TouX77mGrZu2cq1136PgYEBPNdl91ftztbNW9iydQuOY/PKK6+QZYLCXiwUWLBgAWki0E5Ds4ZoNBqkacJpp53GG048kS3DI4Rx3FnDllKsXf0KhcDjK1/6Eps2rGNk6wiHHX4Ib3/nOxkYHGJw1my8QpFiT48gMcyaRbPZYNPGjax86UWCIKDdahJHIe1WkyeeeIK7775b4Kdsh/POPZcxTSf8UgmUYtUrr9DfP8CyZXtz4on/woc//BEefOghmjrHqd5oUAh8QU5IEqI4oqfcS6vRzo36tk3WSiavfIix/lZpqB+lBUHfdcXCZFucf/6HOfe8D09jMDPXUpb9ExNZfmFu73t5n2JZok6HURvXkWScqckJ7lu+nGu+/GWiKCZJxTlWKvdITHtPL3Es2dNKCULx4NAQa9esEXygNCHVduclS/Zi3fp1UhlRQ87YjkOaZERxTLlUplKpUCyWAUW9JiCXBU10Y121MAxDqlWJ0/d18mgci9RszA++75OmKVEkZilL1zpRGlo+SVPK5TKWRksOAqlHUwgKNJoNfF2nBG3GKJZKRNpB77lCkE1ggWXbuDqL2nFdyuWymIf0Z6ULMPm+AFFGsQBVJokwwExDtaDNI7ZtE+p4dTHlyH0LhSJxFDMxKeB6JknQcyWazXEUcRJh29Bui/ZYbzRwbFOUqlt6wcy9ycUxhCpLZ0hAegE7uuJmnCQaP0mukWgiil5Pvi4t4LqSk5BlAtMzc3WaSCRLayZxToMx1zJ9dD1X38cwPEN8RaOOo7hDA40W2Wkqw/UERiedEU4s1UvFVGTazG0kMpdEI3W+m7GPzJgaBtP9frrGM/PapnUZTHccu5vc0oLf9H1s3ue/+3u/GXO0acanmupKtJ4nAtT2+pqlaQcmyvTe9DPNuoLF32cw4DqeoJ57ktPUjkIdiSVRm4VAKij6vs9VV13FwQcfwvPPv0AURxT8AN/zaejQ8kqlwje/+U02b97E8PAw5513LqefdhqWFtw8z8NzPUJttq9Wq1hK8dxzzxPqyNKtmzcxPjrM2tWv8Pijj7B21UqazQaDQ4MsWrwrxXIPluNSqTdxfJ9CqcQ73vkO9l62jB/94AckOnJ108aNzJo1RCEQk+qmzZvwXI9CEOiSI2UWv2pXHnnscTKl6O3t46WXX+bRRx7jD3+4jZ//4ue02yGvetWraLfb/OQn/yH9tRSnnvpm7n/gATZv2rxNlNg/ahmyaPXsyZeqWxQwTRJ8z8WxBSfuAx/8IBdefMk2QtP0dfB/SYMRULuUOBFuj8qIoxAb+NMfb+e6677P1q1biZOYUCcLttshtuPS1s7kLMs6ocJjY+O0Wk16+/uYmpoUE1wsGfWyIFO9hSX6y7ZsiqUSrWaLdjvEscX047kSkpfEgn6KLra100470263SXUtFSE4Cs/1yLSDzJgEHNsh0gujVCwRJ1J21jjxjX1c0Ex7O07WTINmGsk/TXTxNUvOEUlPCK9j2yRpKj6ojl9EtBmpYSFx6pGOSnI1npW5dqarGvq+j62JnzGZWdoGa1CkZTOL4z6JRfv0A49Wq4GlGYwwNCl9ahiMObdDQLIM2zbx8dKMPd+0xFQd1ecbk5o5x0S5CZSQQ6hBVOW5BMImrzFkGrcOzWCSVEAV0bhMM1tes5n+DClZCq4nvkTz/fR1nqGUPjb3m5Hm/9GekCawMFZu/GaeY1q+D/mW7/P22szr5fuZ/82cnx/7/Hfmb147zLJsG63VIDHLGEoyqXmfv2aaanj9GY+bZWmHuWS5/szst6RFZKhM9rfjurieR6PVAO0HcF0PC0uDxdocccQR7LTTzoRhRKNep1qtYusS4bbtMDk5yfr160nShHqtTm9vD3vtsTtRHFIsFBmfGCdLMyYmxvmXk07ikNcdzFVXfZEjDz+CIAjYsnkTG9evZbfFi5iaHGPT+nWUCz6FwKent5clS/fmsSefYvPWEfbe/9X4xRIvv7KaJUuW8N73vJu77ryTd73z7VI9eGKCO/7yZ/bcYw8effQR7vvrfYyOjlLQdW1q1Sqnnn46W4dHOPyII5mqVHns8Se48YYb+f6//zuPP/44xx1/PI8+8iizZs1ieHiY6677Hud/+Dz23WcfLrv8clavXtPxx/69Nk2AUCbXTeiS/K9xynQtHs8Vi4Qi473vfR+fuvyKaQwmP4/y3sK+8sorr+zeZftt5kLONyu3iixdzwWNJmw7LnPnzWWvJUt44sknGJ+YwPc9yFKBJNCRZiKVi6N7cFByUOI47sB/AKBzMGxTFlcTK9/ztRQrDulyWTQGKVIFkBEEckwUC9rx5s2bqNWqTE5OMjy8ldGxUUE53bSJ9evXMTo2xuTkJCPDw4yMjDI2NsbIyAjDI8NUq1XGxsYYGx+j2WwwMTFBpTJFvV5j6/BWwjCk0agzNjZGHMdMTU51CH6lWuloHkmaEEUh7VAIepYJeJ7jCIZbW1fxlHoLovUY86B5dqVBDV1XAPfMHLRaAunhulLvQjQCgfxJdRiyZUnEi2WJ7yBNYzzXwdV5PYJFhSCn6mbnAO0MjEy+dbC19CtPeLrSulmAgrabpIJTFycRaHRr13W6prJEHOvTiZi8bF3C2GgmYmJKO78rHb1l6Qp9ti0ahemHEH+6x3a73glJJRMpXClTm2T7300/V8ZN6aCIPPHsPsP2mYD5Pv/a3nfbe+Vb/nr599v7bL5LtDZiXkqpjsBi6yJr+Xvl59+c2/k9kzHNt0zlfteMhBnjkH8e25a9bmuTred7eIEPCsJ2mzgW7VwpOqUgXnjhRV5++WW2bNnMqpWr2LBhPevXr6NarYolIRELxGGHHkqWpjzy8MNMTEyyefNm9n/1qxkdGaNWq7F06VLWrF7Nl6++mje+8SR2XrAjtlIcd+zRuEpRmRhjqK+XObMG8T2PN7/5TYyOjLHrq3bjpJNO5qDXvY56vYnnBSzZcwk95R523HEBFoJQveLZFQwNDUk0YhhJsNHAAJZls3GDJLFWq3UGBoZIEkmG/eu993HSSW9k/foNzBqazec//wXa7ZCjjjqaWbNmc+qpp+E4Lj29vdz6X7fiul2oI3QOoi7a1fURdl7IZtHHZCgsx+kIEaY4om0Ljd9zz7049NBDO9r89ppSiu3/8v+xGXWZTInPJUnp7Rtg77334dNXXsnee+9NEAREURvXtQWNU2UoUhxH7IHDIyMUigWKpRL9AwOiGuuQXtcRk0eky8dmWUac6GxxXV2z3W7T0NDWoXZYx0mM60rmf6QXar1eJ00FRkNCRhUZUvrWcSxxOmv7eztsdRCAI12AzLYs6vUaaBt3mkqN6jRNxKdi20SRxI232y1qdam46Hme7qdA4LiuQ6vVpNUSWJ0kiWg0G53+WrYAElaqUzSbUs7Y1uCVmWbErVarw6ABfI1ZZOzWvu9hO7au5ij1eFzHFg0gS4ljYThxkpCkgrLQarWmhSabexliLxnssia7ry7hEd+P0jXUM2xbdQpc2bbU7IgiKffbYRiWHJ+k2jdkWXKerbrnmzBfS+mxF1Ob0aBT/cqm1TuR3829Ov1F0L7N/ae/RJiZSbiVEqZhabt8ps2D24Rxb0PEpa/Gp2Ped/0wck3ZrN0+mHO3/5rZuuOx/d+ntzwxF4Iu5m3zMsTDvJSGfUILG4Z5Km3uNVDtqK5/qnsz+ZPveT7x0lyn+71E6SVJRFvj6iVpQqvVJArblMolHMem0Wx01qVlWbiuFBWrVCpYtgJL0Nmb7SbNVpOMjO9c+x3e8C8ncu7553LZFVcwNj7O+R/+CN/+9neZN38+zVabdlsqhc6eM5dWs8lee+7FvLlzCVttSsUCpAlhu8nI1q24tsXQ4CDFYoHBgQFqtRornn2OuXPmabqkCIKiBC64Hhs3bkLpuixJklCpVXFcl6GhIbZu2Uqp3KPz4kI2bdrC1FSFarVOFElFzsmJKfr7B/j6N77JBRdexK9/8xsef+JJvvPda3l51SoqlargguWEhWyb9Sim2c5La6caOBKluvTAnJvqiqKWErdBov1hnStuR+D5P2IweclSKaXDYaVznuth6dKunh+wbOlSPvvZz7Jk6V709/dLTkyWUAh8GvUaxWKRKBY05smpKUrlMvVajWajKQWBENMSQBQltFtiKwVoh+3OYk0TuWaxVMB2LPyCOL+a7SZ+wadQKhJGbfyCj+VaSCZQRqqj1jIExjXVIZ6p1ozSVAhqmsmgppkUUHN0mHEcx5S0v8VxHMp6A9i2ZDm7rpRxbTbrNJsNisUCzWZDtJh2S2sYnlw/jnQorBAL15UiY8oS4gx0/UJ6YaRpKnUutDTRqNc7kSnm+iKBSH/rDfH15MNczfgpHVyQl2iTRID9TDNMNf8yx3S+yxH/VL/iRMyLqa4OavorUUhidkFrYnEiPrdUj695nyYJiZ4P87J16WfDVF2nC3/x915pJvOYJ8z5lwlLNmOQplI6eXvArNtvM+6XY6b/N15Zlkx7kWeeMxjj/7Rl5m9O4LVsQdjAkprrWAKGaWxh5hzz3pizU8z863HMmTr/XpM1J1U3HVe0ccd2KBaK2I5DvV5HmYJsjo3tiRbcjtoUigHl3hLKgUK5AFaG7dn4pYBZ82bRaDX5wfU/4GMXXcBNP7uJs889h3e/971sGRnmyGOOpVAqk2QwMDQbbJs0g3vvu4+NGzfKkymJJlRKERQCkjSlUqlQKJaoN5q8/PJKsgzGRseJ4ww/KLJ58xbCMOaxhx7mnnvvo9zTR6lcptZosHLlSlatWsXdy5dTqVUFCTmO6e3rY2BgkEcefoRms0n/wACj4+NEcUy9UedXv/k1q9euwfE8bv/zn/nR9Teweu06/nr//bieJ9Q9N0eZyma8zNxKFFk34Ex/1qVX0lQWgoUwFwuVSykxgQDTmcv/FQZjiEOWdVVkQ2CyDDJZhbheQJrCzgt35lOf+hR77LkHaZpQKATEcUhPT5latUK5XCJNEmr1GkrBnDlzKAQBju2Q6cqHKhOTjtLQ5+ZhBCamLdEOvsfk5ETHgd9oNvC0U79aq+qHlwUukmgKSuG44uhPUgnNE6Ii/azVarret9IZ2jKoRmsoFAqMjo6SaL9OpVIBLellGk4ljiXUz/c92trf4LqulEL2XMKoDWQUS0XR7mxFu90iSSU6L45CoijSeEGSQJnosrUmkCBJEokocwS+2/Vc0ATHdR2SJOqMuecJTL15TlvXdXA7tdanS5YdSVZL3NssKKUzsDWhR2sB4puZLl1bSnXU9maz2fFzyfdi7jLnWlqLUSqXrKhDomX9CcGKO2tPRz7JIpSAgNxLYZzQosVISV7RZvIvshQL6YdjC4GzddVE0swoZ51mNBkzpkBHg0OPpfmrlIyTZcv6M9qMMCHdZt7g/3IzjNO8ZrYkFSuESKqmFovMe5Jqf4phJFpTNMwjy6ZHJs28utL3lzmgIxmbz1kqCNyGrgDEUXeNuK6uPmsr4jgk1uHtlkI70wVLLYraYv71HNI0Ymx0mKGhAVqtJpVKhfUbNtBstXjs8cdpt9vMmzePIAhohSFTlSr1epN773+Q0fEJ4iyjHcWMTUzi+L68PJ+to2PUW20mK1UW7bobPb39rHjuBar1BtVqjUazRaVW5+57lvPH2//EjjvtxNjEBI8+9jgDA4P867nn8clLL+WTl17Kxy64kA+edTbzdtiBFEWxp4etoyO8tHIlm7R2Mzk1xS2//BV/uO02Lr7kEoZHRymWy1gacf6lVavElGiJMGBeyhZEZfMybMQwG7OH6WAi6pwkTeMzHdyRpilJnOA6gtIue3H6WjJz9g+d/P+zNvMyspmSOAElPpcsjbEteGXVSn7205u49dZbcWyHar1Bs9Umw8KyHNJMJPQd5+9AHEVUKhWazSa2Y8sCTgSXKy8FdTaqXpCSSawJ4Ux1XTfLsomjiFhL5sJs9AClGmMnD2eda9k2TmEtdetQY8N80ceCJhiGEGU6STVHeAzBNG2m09w8r1xPoZTdcdR1mb2eWEvKEaO65hu5T7fP4qBT3bmbifibTb+/WUh07tOtFzSzpUmyzbirGXb3JJVKocJ4JOxVmtxjptVpZjPMyDQzjyCXmPn7zGa0QdPyc6o66AVdRra9Nn1OcnOt12Tn9xmhzCoXmWe+795b//076/bvtelmOgV0817yzRzndEAMpSW6oqulmV+apR2pNtNRglZO4DDjLfPajQjLUsHAStNEmyCnUwdzT2uah8+sx9w+6Kwxyb1CSeXFzr7XaBxotF/LsgQFPctotRqgUg3oKaZpXyeI33DDj7njL3fgeR677bY755/3YUqlEv/6r+fyzDPP8Morq/n0FZ/hiss/zXnnnUcUh7zhhOP41c0/J4vbTI4Ns+6VVVgkqCwjShIGhubg+AXaUcaBBx/Kgw89woaNm1iydBnnnnsOy5ffzTe/+TUsS9Hb28umjRvo7+tlcnIS27IoFArYlkAMiXCmiJKMvv5B6jUBVlXK4kMfOov775dKlT29vZ1AFqV9lmbstt2TplyEXn96j077XUeNyZ4E25F8NNtSKDI8x9HacsoRhx/BD6+/XvaJWatmLadSPyr7Z2HK/6ctTfSlVYoIsQlS7Slh/bq1/OiHP+KOv/yFtk7ISzOoVKU4VavVxnMcess9JGkqTrpYUIrFPiibgc7mRIhpbgOjuuGfMvjacekILIIx6ZhJ6mwSPcCW0kg6uU3Rufbfafn7mHPkr7xmhvIy7XrTp2ImgfyfMhijLUwbk04zjr78V+b+5vrd50ffI9Vjlcnq6fR55pjkiadp08YknU5Qskx8WGacQKql/qM28/r5pphJcLdt/xsMxjQZHy0Rmu+2w2QME8l08qj5Pn+caf/seaYfrzqvmeNkjjNhzvKdmP4wa8fMS24dzhQm8vczc9vtY94kuG1TbF85m8Zk9JgYIkanX3Ki6zqkGpm9r69PSgYnCUFBygGbqMhCIAE/URTR29vHfvvt30HOvuGGG/nb3x7Cth0OPvgQatUqw8MjXHrp5XziE5eSpBlLly0BUrZsXEerUcOzFY3KFHHYxHMcsCwcL6DZjsksl77BWYxPTFEsljjs8MO55JKLGR0d4cG/3U9PT4m+vl7a7TZJGBG2Q37605+yatUqoihizz335IILPqaLg6U4rodt2/h+QLsd0lPu4fobrudXv/oVnu9Po11okz6gU0fyA6wL3OXmo+t/7LbuPCLCfpriWAqlqwIrrakecsgh/PjG/xAtSXXNpABZkoqG9L/NYEyL4hBLR/GkiZiXLAWVyUl+9KMf8ctf/oqpShUsqxPGHOhKgIEneSVJKrkZkc5pUSYpDbOoZTF2ObhI5/nNagiIgcJIEsmhyA9Bqs0bWSaQ1fnPXeIjmpEhtvmWv5Z5bwi90pLhzONmEgAz6UbaN20bYvYPNIz/TwwG5N766/8Jg5Hju9dL03x2t/5OayowncGY60gmd/ea/1MGM3O8/nHb9toz51j6+o8ZTJ5pTOuPkrVEzh+S5QjwzDmZdu+/o7nMZDD5NbS9plQeCmQG8d7O55lr13xSxrSYW1/m+5ktMz6WNMnTnE4zBFCZad9OM/0yp2d6TMzh3X2gw+A147OUolgoUKtVcTRIo0ShijBZLpUYGRll3rz5jIyMkulQeEGSzqjVavT09OD7Addd9wOeffYF+voHmJyaxHYUswYHqEyM0d9b5mc/+Q/uuesO8Sc7DpdefgW7LN6NZjuiHaX09vWLCcm26O3t4fHHH+PBB++n2W5oZp7gaFywRx55lMnJSVqtJoVCkQMPPIBGs0kYJbnQftkzYRiycdNGGvUGXtBlMEJfpq+raeZWfcy0da/pQ76ZORaN1SZLUhzLQmmUe2XJHB5wwAHcdNPPBDnbBKaYtfz/KwaTxOI4l8gZsfGj8zniSHC42q0mv/nNb/nmN79FUAioVqsoZVGrVnEdlzRNcR2Jgw+jiCgSzSWKpAia2H5F68irgCBwJpZRr7ezIcymNkOQadNVl7Boe3LOpq601Gm0nZmtS0DSTp0FOVczre2YzqRfck39S+eY7jbrbk7Tv5kMIv8sansmsvyOz7SGMq3lx2/bNm2sMimjmidO+WdLE/P801tHGtZoyNKMT0bemz5It7dDpXSbqeH9n7Y0l2yZf1Yz7ttr+fH4e+uL3PWyGUzG/D7t2O1R5u20mQxn2zZzfWzLYGYyF9PPJE0hE6FC5fxs+ec1ARnyXF0UgTSVoAwDbru9lumyyH+vqVz+kGXpvZYbK/leaIttW4KdpSNLXdfGdW1AtBsyRaFYpN1u09fXT6PewPV8bYqXpN4gCMh02eyB/gH23ffVBIUefL/A8Ogww8NbmZqaoFgIqEyMk8bizxHGa5GkGfN22JEoyWi1IyxLYJGiUMBJw6gNSMBOFEeErTaeJ0J0qpHQPc+VvLsoAgNFZKlOAb4gKNBqtXFsh6AQEEbRNCZi3AQyftOFAaE/0xlKl2V3W36dWpbVYYQq0z5JyyLJEvbZZ19uvvkWHNfDsh0JCTBWlFSAkLMs+99lMDMfME1F+xBbbUqWJHoCFD/72c+47rrriKMIx7FpNVudZEO0ZpFmGYVCiTTLBKxQMxizEFPtDM801IhSgvb8jzaxIVIGyiTfZxOC9/eGKE9QrA6+lu6L9kGInXNbzWWbDZtmHa1LpAFz/ZxGNc0Mtq0Ja1rTqmyXwc1omUa87RA7cz8jDYqkOJMA5ZvQk+73tq4PI+MsZbDN9eT4GYRTHkO/yffTjJHYojuHz1D5/xEBY8b8oJ/BjDtay/pHTYIrpvuNskzMEOZanfnbZn7+523medvr///rpp2y+bY9BpNvQqCyDvxOlm4bjmxapgUMiajrjof5Ld9mPkendYS37fdHvuuuHaV09BryfEr7Kdthi55yiTgOIU0pFAPGx0bxCx7lcknXHRphzpw5JInQhThOcGxXoyhIcEscSbE81/WYnKriugFhFBNqoFPPc8mylHq9Sm9PD0oLRpn2C0exRMxGUcLQrFl4nqcDj+IOMxY/o9SpMlFZcRLL/jeVY3VgUKTLIIRRiOdK2fZ2O+wgnTuuM42hdEz829FM6OxX0yTAgu3MF51xF8GdJM0JhvJ30eLF/P6//gs/KAjMVSqJ1+a+cs1/ksn/f9qyTCIOOo64WEL7Mv2bY/IJ0pgobPPIww/zmc98mvExicZKk27UQpplJEnWKRAWJQlREk8T4jOd+yCbRHDO0JqIkZZtE9dv252Q3CxLOzUzzOcsk+gKtGlLrv+PN47xOxjCI8+fQCZ+H/P9zHMNARNLX3cHieTWZXoz+/HPGMy2hDvfZmpAypykN/rfX6idNjMoQPdNxkAzyxyhmzleQpC71zAMvXuYIL9ut+Wez7RtTGTbIdD5Pmx/XLpNfjeMX/pv5lU+T9cAZs7PP2v542aOzfa+m8kQZ2owMxm4/N6VLLvfb6u1AOKYNSHnaYqFEF9lSSTdzP4IgxEzTqYZrCFE2Xbw62Y2SwlB5e+MmWEqnc8zriORYx5JEuH7LpbK8F2XRqPGfvvtw5Jle6E01EqhIGkQji3lyAcGhlDK4sEH/8add9wp2IhRJKVDEsm9AwlEKff0Uq3VSbRPynEsajUBoLWUCVYQ7MEwjOjp66NSqUr12UTQJmxdJ0aQQ6BWrWJZEnadpolUtrXF72eCXZJE4KqiKNLaSwvbcjSz83RQhsxl14QpIeFss170XskNYd7agl7PnaYk181SYvISSH6JelTKYscFC/ivP9xGUCxqbcWcP31//a8yGMh0SLHUvtCPQ0qGhYIspdmsUwgCFCn1WpUHH3yA6753LWtWryZLBfPKVMNMddKlUjaFUommzn+RTS8DaGmAtjTJsJQNWVflQxM1yUa1dcivLHIJh+yq+UmaIPRbfDH8HVOJpbGTzGQKcZVBtpQhmrJB0xnEdjpcdn6CDKES6dCY6QwBMQtj5obLcmaLRJvHhECa6+WnelsGY+7fPe4fMxhldRdn/rnkfkby3z5x6Ta98HPjaylDvGc6KrsmGzoMcPstY1uCC137PbAN85pmclPk+qXXjv49/7njD8ht5s5YdL7Zfps5ZjO34vbm9x99ntlm0nVzfGfOck707jEmz4cug9Fm4Zn9ES23S8wMgxEpWsLGyT3Htud3o8hmPov5ZP6qjkDS/WzbDmG7hec5WCaZV2Uc/NrXcuFFF7Bsn6W4vs/UxATlco/sD8um2WpT7O0jDSMazRY3/+Jmrrvu+0RxJCarDErFEo6GdYqTDNcPaLVDolTwBVttQTonzfA9FwtFtVJhaHCIeqPZKcpm1lEQBKSplBJPkpRmsylo5lGsETqktpBSikajro+PcWyLIAgYGppFpMtRjI2OMTY2RqEoEXN01pCMY5dhzFyBxm+qP22Hucv5Er6cGPNjGOM5EnFohPPZc+Zy+5//TFAsiWACZJns946Q8b/NYKI41ICFgqZrMoONypemiWRvk5FEEQai/8H77uPb3/oWTz/1tB78mCiMcByPTClBGrZtkk7cvZHyxeeCXvBxKH6fvARnBt3SOGJ5s0aXOGrcrBxDzzIpEZxvwpCEMES6OpxJfESDLUZx1NGMhGh2F8T0e3ZNMV0GI5NtmJfp60xJ1rRsBoPJshQ0PAfbLDgxbxjiYvqQZzBZtq1qnG/KEsJqNEyB8hcpONMSTX5xGZgY09JUINsNGTHjIQxGYdK0Mu0LQ8+bGYeZfcrD5Wf8YwbTNUl220wGYzbsTAbTOSTHFEQImMFs+fuObNMM4c4zK9NMVJdpM31a08NMt9PUdAEh31cMge+8utpYqs1jIqB1x7H7vEpfd3p/zXyYdTvz+5lN6XkwLX9OhjbZ6U9qxnWU3qPFQiD9zhJKRUFI/vGNNzI0NIiyldTUiRPBqjPnK4tE+3BbLamke+2113L9j36oib7UeWm1Gtg6070dxbieh+U4NFst4a4Ig0miEEsHGNTrDSlZHifYtkSrpjpCUnD+/A5KRqZ9P3GSiGvAdbE1oK4io6STsbNMLDdRGLFwl10Iw5Dh4WGx/uToiWV1g5TYxnLR/X5mmzbunTwm0YQspQhD0fySRD+TbTEwNIu77r5nmolMona1Pmfo2/8mg+lKmN2FYW6m9O9m0bTbbYG1ty2q1QojW7fyuSs/zbPPPINCnHGtVhvPD2i22sSpZPCGGvVYKUWz1dYFiaTOjMq6dkb04CUaqRadPb49ExR6k9kmL8ZoDB2ociGo2wtz7byHbeDiyW1us5C6m3z6YrEthyiKO5NlmjnGmB8kkXM6E0rTlCQRldu2xMYr1xQfiaUs7V8wfhKdpd1hMkgQgH5viFCqkxjN5+53wqjMojLnmGc1C1Z+F0QB02dHg1TGSdwZi26bvjRtx9mu1JVv+f6ZsPU0NSGa3Q2Yv0+HiU4zJZlx7j6zrX0URquaeU1ya96xpWR3lun6M515NwKQhPA6tt0ZV7mmXnNZJnORI/CQ0171Wvx7TVmQImgHxjdoW1ISITPCwAwGm98blq56SSq+lq4gJsd2xjgnHExrOupoe31USmPBWRJmbwQUs/7SVOeR2+b6er5kOLA0gkXWGUMHV+e0XHXVVSxdtjdRGGE5LqABGzE15+VaMk8ZrUZD9kjY5qb/+DE/+tEPCVvtjnCZpgmZ3oNKB6bEiZQdVoDnSqQYOtncPJ/reDSaTdA1lBxXirkZQdRAPWXat2z2kEGslsRpSWZUlgiDtmPTU+7B0xD9Uuyv2zczF5aOVhUTl058zkHHWBpr0HUcIo3j6Dgujjbjy+82SSwal+t5eJ6H43p4vi/o036BT3/ms5RKvViOgwimyHgbS8j/vg/mH1/aTDZ6QI1DMU1T4qjN+jWv8LWvXMM9dy8XyPkkodlq4wcFWmGbTIma3GxKKdGe3j7a7ZBGs0mxUNA1p7t9MANsiIClIx26jLDb8jkBZjPliRK6pPQ0DpZrMtbT8yBMM9cSHKDuAWkq4Z2GuDi2i8pEcs3StJOpDtokMyMEFs1w0AwoiaUUQqrNF+berutqpiNRImjp2DDUNJMsdbQT0pxnEJmt3Jikadoh4HlCq/TC7mp9mRhHc1J+lnXzgjpaXscMKBvKHLu9Np1BdjOKpWXTTAaGmOaZ4fZapkNsM11RciaBNGsl36f8tfKaAGl3fVsaeofcs5OmGjtLGIwh+nmnL0jiW74ZRjjzGaaPU0qSCYCoWTNmvswaMGulc0aO0ZGByvTaUV0mlyQioAh6dSbzuh2NJUsznO300xyXaQaUZkwzVRqzapqlWoHNOsEkqdEmFRI2q/0BCosdd9yR73z3WhYt3hXLsnG9AJQDRvDR10lzDCZsNykGPqQppAnDWzdz03/8mF/98haq1WrH/GdrAFjjIzHPYGuEByHgXSBIx3ZwXJdSsaTPFcFO4G6mr1NbA0rato2nUaON0OV5AuFk21KS2LIlIdPRJT5KpXIHLDjVfhmDqG72vMy1lLw3a9/zXDzPIwgC8XWnkuNiaIShwz2lMmEYEiUxrudTKpfx/YBMQTuMmb/DAoJgOz4YZXUFkf9NBvPPWn6xMWMDWCojDptMTUzw1a98hbvvXk4cJzSbTfygwOTUFHEi+F9xHGucMnGmZ9rMY1v2NBOFmVjz6kSJzch1UUqJ/dG1QUOW5Pv595q5nmkdyXiGpJhprclIbRLJ0mUUpg+Kbf0+XSLQ3SiGgJiFZhiE64qmoDoFvQRuxzNqupau0QSazlh0TVym791nMRKKkcKnt7z5JU0MvIhoM0KjuiYnMY92m2Hm0q8UkYa6953ZlJVjMDPmKE2TTpRNfkynzXGe4KfdYmjo++WjAkG0vHyT87prxzDEJBbIFwOjYa6RZ+BGWrdthzRNBNo/ZwJVqitxm2cwwTKGAYZhOI1ZmvMBUGI6VpZcT5i/rBWlGUz+2WaOs0IRt0XaVkoDf1qqk7+klGiI5MzSHW1cz6MJrJFyE9tqoGZfSWEx2bsyZnrNOUJUHQ2pYzmCDu66As6YJkJU+/oGeOtbz+CII48kKJa1+csl1T4BZRiMAl3qTISANMWxLZI4JEsSHM+hNjnJ/fff1ym6p/Te6Qo+wvhNrh56zGwNQGvWu2XZ2LaEHYPUcnJdR+flSJpFq9USIdPk9KWJPq8LMBrHInj7GurK0WOQJIlmNjZpmhFFAlnluh6WpYgiKW8iQqxYJ6YJMo4DaaqR6Kebt/OgpWTiR0fp4oNa2E0zOlG6Qm+79CIzdFG8oXIAAAYfSURBVOx/W4P5Z83cOsuFeBoCalvQatQgTWk26txy8y06IbNCs9XqRFpMTk3h6AmIYjEFWZZNFMfio86pEJ376SgZyRzvEhjTLFskjgQBvqRDWHMMSvse/l5Tssfl/XY2stnoStvfQUwZWYcAGgI+PcM7H1RgAhpk4XWz+s092q2WSKKWqa4paKzFUlFKWc8wrc0koIJH1iWQzBiH7TXzvVKKTFfTlPNz35sY+1y1SHNdYRpdLc7S6vxM05YxG+Q1RPNbpjHxTFhp/rx8v33f1+aJ6VK4bCAZG4makT4nM30iuXEhx4CyTGCGsky0GEM8zD2UTvZttdr4vpSjSJOku341Ll6aRihFx3SRj0RMEyk1rXI+KYlQ0sjGSsANDWFSSkmuh9Yafd8nSzNc15V6K9q07Lgi3dqWRRYLI/Q8MZ8UCgU5XoOjlkpS7M6MbZ44KqXwAh+lxDxj21KXSI7Tc6j9juKbtfV95b1SFn5BxkaJUCxEzrE77g/flxrzrVabxbu+SpuyLPygIIxMJ5qa/oEiE6IgDIeMdqtFEPhARqIBZquVKa2RJxpAVXwpBu9PKe3b0T4/o8EbxiiMXPpna80h0hBShsG0Wi35PafRJElCZiB5NEZiGIadHBnoMjh5HM0IsoxUrx1li1CMFtCwu8egzZFynP7emIBtQVHu1BDPZE1atq2JmUWq6QGWwrJd2dJaW8kymX99qr7G/7IP5v9NyxM407IsI0sEyr/daIhvxrJ4+umnuOmnP+Xev95Lhqm+KC2JpRCY2cRxkuD7QYcwmY1t3hsfBDnJMq+BZCiiNCHVv6MZjyGIWarrgswgMrLhNcpoIrk+aIKoTAh0qtV8s05yBNssANuWrNk8AcaMTZblpxFLg9IBhFEoRMSy8BxXmwkFd0rCHCUqpa0LpSWpZBWba+eZptEATL/NX/Tzm1Bvcs+Xdsx4Ga4jfohu635S2oSWZ4pKh8OaPpnnVMqAQnbH29J1b/JE1/w1zNKUoJZ7yZwYqVopQbnOn2ccmJjn04xbzAsy3o5G9UVrEkJUtYSu0bXFvu0SBEVATBSO0yXcrudR0M5R3xdYEzMvvq6I6nkuhaLgUrmOqyV5kdxtS6RJge7QyBRaiFC6zyiL/qFB0AXdskyYiYG2RxM72xGzTaqruJrxsy1bqEYGomnN9LHN9BdJy+8H3/fJjDarTVp5Amk0MoM44HQEPiRPS2uE0gkRCmXTyJqINPFVyiKKYgqFkmYyNmG7jed5+nxk7c3Yq3Jd6XuSSEgu2hTt+h6ZBp/NP1OnKWBG0E/HLqT30jTpB4naVDkhLonCrhVjhnCnLBsQJtch3J2xFxQSYyVA74eZGoiZZ9P/vFCbX/fmGHNc/jv9RvdfPsp3oh1qfi3MaUbL/v/NYEQK72ouTHvQjFa9iu+6KNshajZQCqrVKr/+za/53e9/x/jYKJVKhUxHeEWhZLn6vk87bHdUNfJ/tYpuFnx+YM1xWZaBshD9odtmbiZbo7/ObOaYwJPSxYappDkEWjDx7rJZDAE3ZieZ/BnourqZa8gi6QIQGsKsNMHKRyHZlmxCy7YoFgpEmhmbKpl2J5lOQ953so+7z2vGycyZMas5tt2R8syGUUqiwTrCll6QlmXrMgbCGJSSsHFDMLtER4rRKdX1DxlbuFJCLGxHbN1ynO6TdlBalo3ryj2MTdwwL/MsvsasMpqAsW8bU0exUMCxnY7py/d9XEfuB2jHqH4WbRZyHSkM5ziuhFknIpGasTMb27ZsCoUiSaorqOoQVkeX7hbpUa7ZkViN3d/tZnwrjSohz96V2DPo5G2kqay/oCDBMLK2RIo24w7id0y16cqyLaJ2KBqGqRdi2XTgRcyeyQXJmGaetdPykrH5rPuGcQqLNAVySZhGE/TPGEGme/12O8T3pZxHtVbD9wNcRzS5LoMUWtghirrFSYRjS6CQlDPXlolE9p3rdjUSOmu426Y/tfTN0Bf9jX4+M/fmO7QfLSPLBVaYeRH6I+eKhqCFuo51wyJJJHR4WlOK1JQQ72ixXZqnLCXpIdpakl9X2zTtP1Sa3ij9/GZusqxrGpUJ6vYv//f/AYg7rv8OlcHOAAAAAElFTkSuQmCC;direction=north;" parent="bytlwHfJNPBL17TegRJU-22" vertex="1">
          <mxGeometry x="399.99999999999994" y="380.2850000000001" width="95" height="408" as="geometry" />
        </mxCell>
        <mxCell id="bytlwHfJNPBL17TegRJU-11" value="" style="endArrow=classic;html=1;rounded=0;exitX=0.916;exitY=0.805;exitDx=0;exitDy=0;exitPerimeter=0;edgeStyle=orthogonalEdgeStyle;strokeWidth=2;" parent="bytlwHfJNPBL17TegRJU-22" edge="1">
          <mxGeometry width="50" height="50" relative="1" as="geometry">
            <mxPoint x="250.08956094222384" y="310.2855922536721" as="sourcePoint" />
            <mxPoint x="431.00000000000006" y="400.265" as="targetPoint" />
            <Array as="points">
              <mxPoint x="249.99999999999994" y="341.2650000000001" />
              <mxPoint x="430.99999999999994" y="341.2650000000001" />
            </Array>
          </mxGeometry>
        </mxCell>
        <mxCell id="bytlwHfJNPBL17TegRJU-12" value="" style="endArrow=classic;html=1;rounded=0;edgeStyle=orthogonalEdgeStyle;strokeWidth=2;strokeColor=#FF0000;entryX=1.002;entryY=0.421;entryDx=0;entryDy=0;entryPerimeter=0;" parent="bytlwHfJNPBL17TegRJU-22" source="bytlwHfJNPBL17TegRJU-1" edge="1">
          <mxGeometry width="50" height="50" relative="1" as="geometry">
            <mxPoint x="230.00357593972433" y="330.2833261218369" as="sourcePoint" />
            <mxPoint x="450.00499999999994" y="409.59900000000016" as="targetPoint" />
            <Array as="points">
              <mxPoint x="229.99999999999994" y="350.2850000000001" />
              <mxPoint x="449.99999999999994" y="350.2850000000001" />
            </Array>
          </mxGeometry>
        </mxCell>
        <mxCell id="bytlwHfJNPBL17TegRJU-13" value="" style="endArrow=classic;html=1;rounded=0;entryX=0.926;entryY=0.632;entryDx=0;entryDy=0;entryPerimeter=0;strokeWidth=2;strokeColor=#00FF00;exitX=0.008;exitY=0.387;exitDx=0;exitDy=0;exitPerimeter=0;" parent="bytlwHfJNPBL17TegRJU-22" source="bytlwHfJNPBL17TegRJU-1" target="bytlwHfJNPBL17TegRJU-10" edge="1">
          <mxGeometry width="50" height="50" relative="1" as="geometry">
            <mxPoint x="389.99999999999994" y="40.28500000000008" as="sourcePoint" />
            <mxPoint x="479.99999999999994" y="360.2850000000001" as="targetPoint" />
            <Array as="points">
              <mxPoint x="459.99999999999994" y="40.28500000000008" />
              <mxPoint x="670" y="40.28500000000008" />
              <mxPoint x="670" y="360.2850000000001" />
              <mxPoint x="520" y="360.2850000000001" />
              <mxPoint x="459.99999999999994" y="360.2850000000001" />
            </Array>
          </mxGeometry>
        </mxCell>
      </root>
    </mxGraphModel>
  </diagram>
</mxfile>
